<svg width="212" height="40" viewBox="0 0 212 40" fill="none" xmlns="http://www.w3.org/2000/svg">
<g clip-path="url(#clip0_1_56)">
<rect width="212" height="40" rx="8" fill="url(#paint0_linear_1_56)"/>
<g filter="url(#filter0_d_1_56)">
<g filter="url(#filter1_d_1_56)">
<g clip-path="url(#clip1_1_56)">
<path d="M22.0075 6C14.2761 6 8.01628 12.1058 8.0026 19.6439H8V30.2057H8.0026C8.0062 31.9152 9.42907 33.3 11.1838 33.3H22.0088C29.7416 33.2951 36 27.1902 36 19.6561C36 12.118 29.7334 6.01223 21.9951 6.01223L22.0075 6Z" fill="#51A2DA"/>
<path d="M24.8537 11.6141C22.6695 11.6141 20.7402 13.2163 20.4731 15.3186C20.4551 15.4945 20.45 15.6214 20.4489 15.7809L20.4515 24.3763C20.4515 26.0251 19.185 27.1472 17.6026 27.1472C16.0181 27.1472 14.7415 25.9133 14.7415 24.3736C14.7675 22.6833 16.1557 21.6113 17.775 21.5646H17.7837L19.4276 21.5499V19.2804L17.7837 19.2925C14.8364 19.2667 12.4969 21.5157 12.4115 24.375C12.4115 27.1554 14.7557 29.4221 17.6018 29.4221C20.2865 29.4221 22.5208 27.3782 22.7647 24.8207C22.7999 23.9501 22.7828 22.8013 22.7828 22.8013C22.7877 22.3282 22.7752 22.4981 22.7802 21.5588L24.8194 21.544C26.3973 21.5549 26.3795 19.2387 24.8012 19.2706L22.7798 19.2852C22.7798 18.1192 22.7986 16.9605 22.7798 15.7927C22.7812 14.7827 23.7628 13.8902 24.8519 13.8902C25.9412 13.8902 27.0935 14.4202 27.0935 15.7927C27.0935 15.9888 27.0894 16.103 27.0783 16.1756C26.9567 16.8121 27.4029 17.4205 28.0603 17.5123C28.7178 17.6031 29.3215 17.1404 29.3866 16.4965C29.4244 16.242 29.4229 16.0174 29.4229 15.7929C29.4229 13.3726 27.2032 11.6182 24.8522 11.6182L24.8537 11.6141Z" fill="white"/>
</g>
</g>
</g>
<g filter="url(#filter2_d_1_56)">
<path d="M44.4027 26.5H42.4226L46.8718 14.1364H49.027L53.4762 26.5H51.4961L48.0007 16.3821H47.9041L44.4027 26.5ZM44.7347 21.6584H51.158V23.228H44.7347V21.6584ZM61.8871 17.2273L58.5246 26.5H56.5928L53.2241 17.2273H55.162L57.5104 24.3629H57.607L59.9493 17.2273H61.8871ZM66.0164 26.7053C65.4288 26.7053 64.8976 26.5966 64.4227 26.3793C63.9477 26.1579 63.5714 25.8379 63.2937 25.4194C63.0201 25.0008 62.8832 24.4877 62.8832 23.88C62.8832 23.3568 62.9839 22.9261 63.1851 22.5881C63.3863 22.25 63.658 21.9824 64.0001 21.7852C64.3422 21.5879 64.7245 21.439 65.1471 21.3384C65.5697 21.2378 66.0003 21.1613 66.439 21.109C66.9944 21.0446 67.4451 20.9923 67.7913 20.9521C68.1374 20.9078 68.3889 20.8374 68.5459 20.7408C68.7028 20.6442 68.7813 20.4872 68.7813 20.2699V20.2276C68.7813 19.7004 68.6324 19.2919 68.3346 19.0021C68.0408 18.7124 67.6021 18.5675 67.0185 18.5675C66.4108 18.5675 65.9319 18.7023 65.5817 18.9719C65.2356 19.2376 64.9962 19.5334 64.8633 19.8594L63.167 19.473C63.3682 18.9096 63.662 18.4548 64.0484 18.1087C64.4388 17.7585 64.8875 17.505 65.3946 17.348C65.9017 17.187 66.435 17.1065 66.9944 17.1065C67.3646 17.1065 67.757 17.1508 68.1716 17.2393C68.5901 17.3239 68.9805 17.4808 69.3428 17.7102C69.709 17.9396 70.0088 18.2676 70.2423 18.6942C70.4757 19.1168 70.5924 19.6662 70.5924 20.3423V26.5H68.8296V25.2322H68.7572C68.6405 25.4657 68.4654 25.6951 68.232 25.9204C67.9985 26.1458 67.6987 26.333 67.3325 26.4819C66.9662 26.6308 66.5275 26.7053 66.0164 26.7053ZM66.4088 25.2564C66.9079 25.2564 67.3345 25.1578 67.6886 24.9606C68.0468 24.7634 68.3185 24.5058 68.5036 24.1879C68.6928 23.8659 68.7874 23.5218 68.7874 23.1555V21.9602C68.723 22.0246 68.5982 22.085 68.4131 22.1413C68.232 22.1937 68.0247 22.2399 67.7913 22.2802C67.5578 22.3164 67.3304 22.3506 67.1091 22.3828C66.8877 22.411 66.7026 22.4351 66.5537 22.4553C66.2035 22.4995 65.8836 22.574 65.5938 22.6786C65.3081 22.7833 65.0787 22.9342 64.9056 23.1314C64.7366 23.3246 64.6521 23.5821 64.6521 23.9041C64.6521 24.3508 64.8171 24.6889 65.1471 24.9183C65.4771 25.1437 65.8977 25.2564 66.4088 25.2564ZM72.9966 26.5V17.2273H74.8016V26.5H72.9966ZM73.9082 15.7965C73.5943 15.7965 73.3246 15.6919 73.0992 15.4826C72.8779 15.2693 72.7672 15.0157 72.7672 14.7219C72.7672 14.4241 72.8779 14.1706 73.0992 13.9613C73.3246 13.748 73.5943 13.6413 73.9082 13.6413C74.2221 13.6413 74.4897 13.748 74.7111 13.9613C74.9365 14.1706 75.0492 14.4241 75.0492 14.7219C75.0492 15.0157 74.9365 15.2693 74.7111 15.4826C74.4897 15.6919 74.2221 15.7965 73.9082 15.7965ZM79.035 14.1364V26.5H77.23V14.1364H79.035ZM84.1619 26.7053C83.5743 26.7053 83.0431 26.5966 82.5682 26.3793C82.0932 26.1579 81.7169 25.8379 81.4392 25.4194C81.1656 25.0008 81.0287 24.4877 81.0287 23.88C81.0287 23.3568 81.1294 22.9261 81.3306 22.5881C81.5318 22.25 81.8035 21.9824 82.1456 21.7852C82.4877 21.5879 82.87 21.439 83.2926 21.3384C83.7152 21.2378 84.1458 21.1613 84.5845 21.109C85.1399 21.0446 85.5906 20.9923 85.9368 20.9521C86.2829 20.9078 86.5344 20.8374 86.6914 20.7408C86.8483 20.6442 86.9268 20.4872 86.9268 20.2699V20.2276C86.9268 19.7004 86.7779 19.2919 86.4801 19.0021C86.1863 18.7124 85.7476 18.5675 85.164 18.5675C84.5563 18.5675 84.0774 18.7023 83.7272 18.9719C83.3811 19.2376 83.1417 19.5334 83.0089 19.8594L81.3125 19.473C81.5137 18.9096 81.8075 18.4548 82.1939 18.1087C82.5843 17.7585 83.033 17.505 83.5401 17.348C84.0472 17.187 84.5805 17.1065 85.1399 17.1065C85.5102 17.1065 85.9026 17.1508 86.3171 17.2393C86.7356 17.3239 87.126 17.4808 87.4883 17.7102C87.8545 17.9396 88.1543 18.2676 88.3878 18.6942C88.6212 19.1168 88.7379 19.6662 88.7379 20.3423V26.5H86.9751V25.2322H86.9027C86.786 25.4657 86.6109 25.6951 86.3775 25.9204C86.144 26.1458 85.8442 26.333 85.478 26.4819C85.1117 26.6308 84.673 26.7053 84.1619 26.7053ZM84.5543 25.2564C85.0534 25.2564 85.48 25.1578 85.8341 24.9606C86.1923 24.7634 86.464 24.5058 86.6491 24.1879C86.8383 23.8659 86.9329 23.5218 86.9329 23.1555V21.9602C86.8685 22.0246 86.7437 22.085 86.5586 22.1413C86.3775 22.1937 86.1702 22.2399 85.9368 22.2802C85.7033 22.3164 85.4759 22.3506 85.2546 22.3828C85.0332 22.411 84.8481 22.4351 84.6992 22.4553C84.349 22.4995 84.0291 22.574 83.7393 22.6786C83.4536 22.7833 83.2242 22.9342 83.0511 23.1314C82.8821 23.3246 82.7976 23.5821 82.7976 23.9041C82.7976 24.3508 82.9626 24.6889 83.2926 24.9183C83.6226 25.1437 84.0432 25.2564 84.5543 25.2564ZM91.287 26.5V14.1364H93.092V18.7305H93.2007C93.3053 18.5373 93.4563 18.3139 93.6535 18.0604C93.8507 17.8068 94.1243 17.5855 94.4745 17.3963C94.8246 17.2031 95.2875 17.1065 95.863 17.1065C96.6116 17.1065 97.2796 17.2957 97.8672 17.674C98.4548 18.0523 98.9157 18.5977 99.2497 19.31C99.5878 20.0224 99.7568 20.8796 99.7568 21.8817C99.7568 22.8839 99.5898 23.7431 99.2557 24.4595C98.9217 25.1719 98.4629 25.7212 97.8793 26.1076C97.2957 26.4899 96.6297 26.6811 95.8811 26.6811C95.3176 26.6811 94.8568 26.5865 94.4986 26.3974C94.1445 26.2082 93.8668 25.9869 93.6655 25.7333C93.4643 25.4798 93.3094 25.2544 93.2007 25.0572H93.0498V26.5H91.287ZM93.0558 21.8636C93.0558 22.5156 93.1504 23.0871 93.3395 23.5781C93.5287 24.0691 93.8024 24.4535 94.1606 24.7312C94.5188 25.0048 94.9574 25.1417 95.4766 25.1417C96.0159 25.1417 96.4667 24.9988 96.8289 24.7131C97.1911 24.4233 97.4648 24.0309 97.6499 23.5359C97.8391 23.0408 97.9337 22.4834 97.9337 21.8636C97.9337 21.2519 97.8411 20.7025 97.656 20.2156C97.4748 19.7286 97.2012 19.3442 96.8349 19.0625C96.4727 18.7808 96.0199 18.6399 95.4766 18.6399C94.9534 18.6399 94.5107 18.7747 94.1485 19.0444C93.7903 19.314 93.5186 19.6903 93.3335 20.1733C93.1484 20.6562 93.0558 21.2197 93.0558 21.8636ZM103.589 14.1364V26.5H101.784V14.1364H103.589ZM110.014 26.6871C109.1 26.6871 108.313 26.4919 107.653 26.1016C106.997 25.7071 106.49 25.1538 106.132 24.4414C105.778 23.725 105.601 22.8859 105.601 21.924C105.601 20.9742 105.778 20.1371 106.132 19.4126C106.49 18.6882 106.989 18.1227 107.629 17.7163C108.273 17.3098 109.026 17.1065 109.887 17.1065C110.41 17.1065 110.917 17.1931 111.408 17.3661C111.899 17.5392 112.34 17.8108 112.73 18.1811C113.121 18.5514 113.428 19.0323 113.654 19.6239C113.879 20.2115 113.992 20.9259 113.992 21.767V22.407H106.621V21.0547H112.223C112.223 20.5798 112.126 20.1592 111.933 19.793C111.74 19.4227 111.468 19.1309 111.118 18.9176C110.772 18.7043 110.366 18.5977 109.899 18.5977C109.392 18.5977 108.949 18.7224 108.571 18.9719C108.196 19.2174 107.907 19.5394 107.701 19.9379C107.5 20.3323 107.4 20.7609 107.4 21.2237V22.2802C107.4 22.9 107.508 23.4272 107.726 23.8619C107.947 24.2965 108.255 24.6285 108.649 24.8579C109.044 25.0833 109.504 25.196 110.032 25.196C110.374 25.196 110.686 25.1477 110.967 25.0511C111.249 24.9505 111.493 24.8016 111.698 24.6044C111.903 24.4072 112.06 24.1637 112.169 23.8739L113.877 24.1818C113.74 24.6849 113.495 25.1256 113.141 25.5039C112.791 25.8782 112.35 26.17 111.819 26.3793C111.291 26.5845 110.69 26.6871 110.014 26.6871ZM124.907 17.2273V18.6761H119.667V17.2273H124.907ZM121.103 26.5V16.1527C121.103 15.5732 121.23 15.0922 121.484 14.7099C121.737 14.3235 122.073 14.0357 122.492 13.8466C122.91 13.6534 123.365 13.5568 123.856 13.5568C124.218 13.5568 124.528 13.587 124.786 13.6474C125.043 13.7037 125.235 13.756 125.359 13.8043L124.937 15.2653C124.852 15.2411 124.744 15.2129 124.611 15.1808C124.478 15.1445 124.317 15.1264 124.128 15.1264C123.689 15.1264 123.375 15.2351 123.186 15.4524C123.001 15.6697 122.908 15.9837 122.908 16.3942V26.5H121.103ZM130.31 26.6871C129.44 26.6871 128.682 26.4879 128.034 26.0895C127.386 25.691 126.883 25.1336 126.525 24.4173C126.166 23.7009 125.987 22.8638 125.987 21.9059C125.987 20.944 126.166 20.1029 126.525 19.3825C126.883 18.662 127.386 18.1026 128.034 17.7042C128.682 17.3058 129.44 17.1065 130.31 17.1065C131.179 17.1065 131.938 17.3058 132.586 17.7042C133.234 18.1026 133.737 18.662 134.095 19.3825C134.453 20.1029 134.632 20.944 134.632 21.9059C134.632 22.8638 134.453 23.7009 134.095 24.4173C133.737 25.1336 133.234 25.691 132.586 26.0895C131.938 26.4879 131.179 26.6871 130.31 26.6871ZM130.316 25.1719C130.879 25.1719 131.346 25.023 131.716 24.7251C132.087 24.4273 132.36 24.0309 132.537 23.5359C132.718 23.0408 132.809 22.4955 132.809 21.8999C132.809 21.3082 132.718 20.7649 132.537 20.2699C132.36 19.7708 132.087 19.3704 131.716 19.0685C131.346 18.7667 130.879 18.6158 130.316 18.6158C129.748 18.6158 129.277 18.7667 128.903 19.0685C128.533 19.3704 128.257 19.7708 128.076 20.2699C127.899 20.7649 127.81 21.3082 127.81 21.8999C127.81 22.4955 127.899 23.0408 128.076 23.5359C128.257 24.0309 128.533 24.4273 128.903 24.7251C129.277 25.023 129.748 25.1719 130.316 25.1719ZM136.647 26.5V17.2273H138.392V18.7003H138.488C138.657 18.2012 138.955 17.8088 139.382 17.5231C139.812 17.2333 140.299 17.0884 140.843 17.0884C140.955 17.0884 141.088 17.0924 141.241 17.1005C141.398 17.1085 141.521 17.1186 141.609 17.1307V18.8572C141.537 18.8371 141.408 18.815 141.223 18.7908C141.038 18.7627 140.853 18.7486 140.668 18.7486C140.241 18.7486 139.861 18.8391 139.527 19.0202C139.197 19.1973 138.935 19.4448 138.742 19.7628C138.549 20.0767 138.452 20.4349 138.452 20.8374V26.5H136.647Z" fill="#E8E8E8"/>
<path d="M146.936 26.5V14.1364H155.375V16.5632H149.924V19.0987H154.838V21.5316H149.924V26.5H146.936ZM160.534 26.6751C159.564 26.6751 158.727 26.4839 158.023 26.1016C157.322 25.7152 156.783 25.1658 156.405 24.4535C156.03 23.7371 155.843 22.8859 155.843 21.8999C155.843 20.942 156.032 20.1049 156.411 19.3885C156.789 18.6681 157.322 18.1087 158.01 17.7102C158.699 17.3078 159.51 17.1065 160.443 17.1065C161.103 17.1065 161.707 17.2092 162.254 17.4144C162.802 17.6197 163.275 17.9235 163.673 18.326C164.072 18.7285 164.381 19.2255 164.603 19.8171C164.824 20.4047 164.935 21.0788 164.935 21.8395V22.576H156.875V20.8615H162.188C162.184 20.5476 162.11 20.2679 161.965 20.0224C161.82 19.7769 161.621 19.5857 161.367 19.4489C161.117 19.308 160.83 19.2376 160.504 19.2376C160.174 19.2376 159.878 19.312 159.616 19.4609C159.355 19.6058 159.147 19.805 158.994 20.0586C158.842 20.3081 158.761 20.5919 158.753 20.9098V22.6545C158.753 23.0328 158.827 23.3648 158.976 23.6506C159.125 23.9323 159.337 24.1516 159.61 24.3086C159.884 24.4655 160.21 24.544 160.588 24.544C160.85 24.544 161.087 24.5078 161.301 24.4354C161.514 24.3629 161.697 24.2563 161.85 24.1154C162.003 23.9745 162.118 23.8015 162.194 23.5962L164.905 23.6747C164.792 24.2824 164.544 24.8117 164.162 25.2624C163.784 25.7092 163.287 26.0573 162.671 26.3068C162.055 26.5523 161.343 26.6751 160.534 26.6751ZM169.829 26.6328C169.145 26.6328 168.523 26.4557 167.964 26.1016C167.404 25.7474 166.958 25.2161 166.624 24.5078C166.29 23.7995 166.123 22.9201 166.123 21.8697C166.123 20.779 166.296 19.8815 166.642 19.1772C166.988 18.4729 167.441 17.9517 168 17.6136C168.563 17.2756 169.169 17.1065 169.817 17.1065C170.304 17.1065 170.721 17.191 171.067 17.3601C171.413 17.5251 171.699 17.7384 171.924 18C172.149 18.2616 172.32 18.5333 172.437 18.815H172.498V14.1364H175.45V26.5H172.528V24.9968H172.437C172.312 25.2825 172.135 25.5502 171.906 25.7997C171.677 26.0492 171.389 26.2505 171.043 26.4034C170.701 26.5563 170.296 26.6328 169.829 26.6328ZM170.856 24.3327C171.214 24.3327 171.52 24.2321 171.773 24.0309C172.027 23.8256 172.222 23.5379 172.359 23.1676C172.496 22.7973 172.564 22.3627 172.564 21.8636C172.564 21.3565 172.496 20.9199 172.359 20.5536C172.226 20.1874 172.031 19.9057 171.773 19.7084C171.52 19.5112 171.214 19.4126 170.856 19.4126C170.489 19.4126 170.179 19.5133 169.926 19.7145C169.672 19.9157 169.479 20.1995 169.346 20.5657C169.217 20.9319 169.153 21.3646 169.153 21.8636C169.153 22.3627 169.219 22.7973 169.352 23.1676C169.485 23.5379 169.676 23.8256 169.926 24.0309C170.179 24.2321 170.489 24.3327 170.856 24.3327ZM181.645 26.6751C180.671 26.6751 179.834 26.4758 179.134 26.0774C178.437 25.6749 177.9 25.1155 177.522 24.3991C177.147 23.6787 176.96 22.8436 176.96 21.8938C176.96 20.94 177.147 20.1049 177.522 19.3885C177.9 18.6681 178.437 18.1087 179.134 17.7102C179.834 17.3078 180.671 17.1065 181.645 17.1065C182.619 17.1065 183.454 17.3078 184.15 17.7102C184.851 18.1087 185.388 18.6681 185.762 19.3885C186.141 20.1049 186.33 20.94 186.33 21.8938C186.33 22.8436 186.141 23.6787 185.762 24.3991C185.388 25.1155 184.851 25.6749 184.15 26.0774C183.454 26.4758 182.619 26.6751 181.645 26.6751ZM181.663 24.4474C182.017 24.4474 182.317 24.3388 182.563 24.1214C182.808 23.9041 182.995 23.6023 183.124 23.2159C183.257 22.8295 183.323 22.3828 183.323 21.8757C183.323 21.3606 183.257 20.9098 183.124 20.5234C182.995 20.1371 182.808 19.8352 182.563 19.6179C182.317 19.4006 182.017 19.2919 181.663 19.2919C181.297 19.2919 180.987 19.4006 180.733 19.6179C180.484 19.8352 180.293 20.1371 180.16 20.5234C180.031 20.9098 179.967 21.3606 179.967 21.8757C179.967 22.3828 180.031 22.8295 180.16 23.2159C180.293 23.6023 180.484 23.9041 180.733 24.1214C180.987 24.3388 181.297 24.4474 181.663 24.4474ZM187.842 26.5V17.2273H190.709V18.9176H190.806C190.975 18.3059 191.251 17.8511 191.633 17.5533C192.015 17.2514 192.46 17.1005 192.967 17.1005C193.104 17.1005 193.245 17.1106 193.39 17.1307C193.535 17.1468 193.67 17.1729 193.794 17.2092V19.7749C193.653 19.7266 193.468 19.6883 193.239 19.6602C193.014 19.632 192.812 19.6179 192.635 19.6179C192.285 19.6179 191.969 19.6964 191.687 19.8533C191.41 20.0063 191.19 20.2216 191.029 20.4993C190.872 20.773 190.794 21.0949 190.794 21.4652V26.5H187.842ZM197.263 26.657C196.671 26.657 196.146 26.5584 195.687 26.3611C195.232 26.1599 194.872 25.8581 194.606 25.4556C194.345 25.0491 194.214 24.54 194.214 23.9283C194.214 23.4131 194.304 22.9785 194.486 22.6243C194.667 22.2701 194.916 21.9824 195.234 21.761C195.552 21.5397 195.918 21.3726 196.333 21.2599C196.747 21.1432 197.19 21.0647 197.661 21.0245C198.188 20.9762 198.613 20.9259 198.935 20.8736C199.257 20.8172 199.49 20.7388 199.635 20.6381C199.784 20.5335 199.858 20.3866 199.858 20.1974V20.1673C199.858 19.8574 199.752 19.6179 199.538 19.4489C199.325 19.2798 199.037 19.1953 198.675 19.1953C198.285 19.1953 197.971 19.2798 197.733 19.4489C197.496 19.6179 197.345 19.8513 197.281 20.1491L194.558 20.0526C194.638 19.4891 194.846 18.986 195.18 18.5433C195.518 18.0966 195.981 17.7464 196.568 17.4929C197.16 17.2353 197.87 17.1065 198.699 17.1065C199.291 17.1065 199.836 17.177 200.335 17.3178C200.834 17.4547 201.269 17.6559 201.639 17.9215C202.01 18.1831 202.295 18.5051 202.497 18.8874C202.702 19.2698 202.804 19.7064 202.804 20.1974V26.5H200.027V25.2081H199.955C199.79 25.522 199.579 25.7876 199.321 26.005C199.068 26.2223 198.768 26.3853 198.422 26.494C198.08 26.6026 197.693 26.657 197.263 26.657ZM198.174 24.7251C198.492 24.7251 198.778 24.6607 199.031 24.532C199.289 24.4032 199.494 24.2261 199.647 24.0007C199.8 23.7713 199.877 23.5057 199.877 23.2038V22.3224C199.792 22.3667 199.689 22.407 199.569 22.4432C199.452 22.4794 199.323 22.5136 199.182 22.5458C199.041 22.578 198.897 22.6062 198.748 22.6303C198.599 22.6545 198.456 22.6766 198.319 22.6967C198.041 22.741 197.804 22.8094 197.607 22.902C197.413 22.9946 197.265 23.1153 197.16 23.2642C197.059 23.4091 197.009 23.5821 197.009 23.7834C197.009 24.0892 197.118 24.3227 197.335 24.4837C197.556 24.6446 197.836 24.7251 198.174 24.7251Z" fill="white"/>
</g>
</g>
<rect x="1.07143" y="1.07143" width="209.857" height="37.8571" rx="6.92857" stroke="white" stroke-opacity="0.15" stroke-width="2.14286"/>
<defs>
<filter id="filter0_d_1_56" x="4" y="2" width="36" height="36" filterUnits="userSpaceOnUse" color-interpolation-filters="sRGB">
<feFlood flood-opacity="0" result="BackgroundImageFix"/>
<feColorMatrix in="SourceAlpha" type="matrix" values="0 0 0 0 0 0 0 0 0 0 0 0 0 0 0 0 0 0 127 0" result="hardAlpha"/>
<feOffset/>
<feGaussianBlur stdDeviation="2"/>
<feComposite in2="hardAlpha" operator="out"/>
<feColorMatrix type="matrix" values="0 0 0 0 0 0 0 0 0 0 0 0 0 0 0 0 0 0 0.25 0"/>
<feBlend mode="normal" in2="BackgroundImageFix" result="effect1_dropShadow_1_56"/>
<feBlend mode="normal" in="SourceGraphic" in2="effect1_dropShadow_1_56" result="shape"/>
</filter>
<filter id="filter1_d_1_56" x="2.28571" y="0.285715" width="39.4286" height="39.4286" filterUnits="userSpaceOnUse" color-interpolation-filters="sRGB">
<feFlood flood-opacity="0" result="BackgroundImageFix"/>
<feColorMatrix in="SourceAlpha" type="matrix" values="0 0 0 0 0 0 0 0 0 0 0 0 0 0 0 0 0 0 127 0" result="hardAlpha"/>
<feOffset/>
<feGaussianBlur stdDeviation="2.85714"/>
<feComposite in2="hardAlpha" operator="out"/>
<feColorMatrix type="matrix" values="0 0 0 0 0 0 0 0 0 0 0 0 0 0 0 0 0 0 0.25 0"/>
<feBlend mode="normal" in2="BackgroundImageFix" result="effect1_dropShadow_1_56"/>
<feBlend mode="normal" in="SourceGraphic" in2="effect1_dropShadow_1_56" result="shape"/>
</filter>
<filter id="filter2_d_1_56" x="36.2857" y="3.78571" width="173.429" height="32.4286" filterUnits="userSpaceOnUse" color-interpolation-filters="sRGB">
<feFlood flood-opacity="0" result="BackgroundImageFix"/>
<feColorMatrix in="SourceAlpha" type="matrix" values="0 0 0 0 0 0 0 0 0 0 0 0 0 0 0 0 0 0 127 0" result="hardAlpha"/>
<feOffset/>
<feGaussianBlur stdDeviation="2.85714"/>
<feComposite in2="hardAlpha" operator="out"/>
<feColorMatrix type="matrix" values="0 0 0 0 0 0 0 0 0 0 0 0 0 0 0 0 0 0 0.25 0"/>
<feBlend mode="normal" in2="BackgroundImageFix" result="effect1_dropShadow_1_56"/>
<feBlend mode="normal" in="SourceGraphic" in2="effect1_dropShadow_1_56" result="shape"/>
</filter>
<linearGradient id="paint0_linear_1_56" x1="106" y1="0" x2="106" y2="40" gradientUnits="userSpaceOnUse">
<stop stop-color="#284171"/>
<stop offset="1" stop-color="#001F52"/>
</linearGradient>
<clipPath id="clip0_1_56">
<rect width="212" height="40" rx="8" fill="white"/>
</clipPath>
<clipPath id="clip1_1_56">
<rect width="28" height="27.3" fill="white" transform="translate(8 6)"/>
</clipPath>
</defs>
</svg>
