<svg width="217" height="40" viewBox="0 0 217 40" fill="none" xmlns="http://www.w3.org/2000/svg">
<rect width="217.001" height="40.0014" rx="8" fill="url(#paint0_linear_1_56)"/>
<rect x="1.07143" y="1.07143" width="214.858" height="37.8585" rx="6.92857" stroke="black" stroke-opacity="0.15" stroke-width="2.14286"/>
<g filter="url(#filter0_d_1_56)">
<g clip-path="url(#clip0_1_56)">
<g filter="url(#filter1_d_1_56)">
<mask id="mask0_1_56" style="mask-type:luminance" maskUnits="userSpaceOnUse" x="11" y="9" width="22" height="22">
<path d="M32.8889 9.65556H11.1111V30.3444H32.8889V9.65556Z" fill="white"/>
</mask>
<g mask="url(#mask0_1_56)">
<path d="M16.1244 19.6098C18.8931 19.6098 21.1377 17.3818 21.1377 14.6334C21.1377 11.885 18.8931 9.65696 16.1244 9.65696C13.3556 9.65696 11.1111 11.885 11.1111 14.6334C11.1111 17.3818 13.3556 19.6098 16.1244 19.6098Z" fill="white"/>
<path d="M18.2053 21.3176H13.9615C12.6222 21.3176 11.5365 22.3953 11.5365 23.7247V27.9373C11.5365 29.2667 12.6222 30.3444 13.9615 30.3444H18.2053C19.5446 30.3444 20.6302 29.2667 20.6302 27.9373V23.7247C20.6302 22.3953 19.5446 21.3176 18.2053 21.3176Z" fill="white"/>
<path d="M32.1649 13.3845L31.2514 12.861L25.9944 9.84813C25.7742 9.72198 25.5246 9.65556 25.2704 9.65556C25.0162 9.65555 24.7665 9.72196 24.5464 9.8481C24.3264 9.97425 24.1435 10.1557 24.0165 10.3742C23.8894 10.5927 23.8225 10.8405 23.8225 11.0928L23.8226 18.1655C23.8226 18.4178 23.8895 18.6656 24.0166 18.8841C24.1436 19.1026 24.3264 19.284 24.5465 19.4101C24.7666 19.5363 25.0163 19.6027 25.2705 19.6027C25.5246 19.6027 25.7743 19.5363 25.9944 19.4101L32.1649 15.8739C32.3851 15.7478 32.5678 15.5664 32.6949 15.3479C32.822 15.1294 32.8889 14.8815 32.8889 14.6292C32.8889 14.3769 32.822 14.1291 32.6949 13.9106C32.5678 13.6921 32.385 13.5107 32.1649 13.3845Z" fill="white"/>
<path d="M31.8051 25.8882C31.8051 26.3719 31.4127 26.7613 30.9254 26.7613H23.8885C23.4012 26.7613 23.0089 26.3719 23.0089 25.8882C23.0089 25.4045 23.4012 25.015 23.8885 25.015H30.9254C31.4127 25.015 31.8051 25.4045 31.8051 25.8882ZM27.407 21.5225C27.8943 21.5225 28.2866 21.9119 28.2866 22.3956V29.3808C28.2866 29.8645 27.8943 30.2539 27.407 30.2539C26.9197 30.2539 26.5274 29.8645 26.5274 29.3808V22.3956C26.5274 21.9119 26.9197 21.5225 27.407 21.5225Z" fill="white"/>
</g>
</g>
</g>
</g>
<g filter="url(#filter2_d_1_56)">
<path d="M44.4041 26.5007H42.424L46.8732 14.1371H49.0284L53.4776 26.5007H51.4975L48.0021 16.3828H47.9055L44.4041 26.5007ZM44.7361 21.6591H51.1594V23.2287H44.7361V21.6591ZM61.8886 17.228L58.526 26.5007H56.5942L53.2256 17.228H55.1634L57.5118 24.3636H57.6084L59.9507 17.228H61.8886ZM66.0178 26.706C65.4302 26.706 64.899 26.5973 64.4241 26.38C63.9492 26.1586 63.5729 25.8386 63.2952 25.4201C63.0215 25.0015 62.8846 24.4884 62.8846 23.8807C62.8846 23.3575 62.9853 22.9268 63.1865 22.5888C63.3877 22.2507 63.6594 21.9831 64.0015 21.7859C64.3436 21.5886 64.7259 21.4397 65.1485 21.3391C65.5711 21.2385 66.0017 21.162 66.4404 21.1097C66.9958 21.0453 67.4466 20.993 67.7927 20.9528C68.1388 20.9085 68.3903 20.8381 68.5473 20.7415C68.7042 20.6449 68.7827 20.4879 68.7827 20.2706V20.2283C68.7827 19.7011 68.6338 19.2926 68.336 19.0028C68.0422 18.7131 67.6035 18.5682 67.0199 18.5682C66.4122 18.5682 65.9333 18.703 65.5832 18.9726C65.237 19.2383 64.9976 19.5341 64.8648 19.8601L63.1684 19.4737C63.3696 18.9103 63.6634 18.4555 64.0498 18.1094C64.4402 17.7592 64.8889 17.5057 65.396 17.3487C65.9031 17.1877 66.4364 17.1072 66.9958 17.1072C67.3661 17.1072 67.7585 17.1515 68.173 17.24C68.5916 17.3246 68.9819 17.4815 69.3442 17.7109C69.7104 17.9403 70.0102 18.2683 70.2437 18.6949C70.4771 19.1175 70.5938 19.6669 70.5938 20.343V26.5007H68.831V25.2329H68.7586C68.6419 25.4664 68.4668 25.6958 68.2334 25.9212C67.9999 26.1465 67.7001 26.3337 67.3339 26.4826C66.9676 26.6315 66.5289 26.706 66.0178 26.706ZM66.4102 25.2571C66.9093 25.2571 67.3359 25.1585 67.69 24.9613C68.0482 24.7641 68.3199 24.5065 68.505 24.1886C68.6942 23.8666 68.7888 23.5225 68.7888 23.1562V21.9609C68.7244 22.0253 68.5996 22.0857 68.4145 22.142C68.2334 22.1944 68.0261 22.2406 67.7927 22.2809C67.5592 22.3171 67.3319 22.3513 67.1105 22.3835C66.8891 22.4117 66.704 22.4358 66.5551 22.456C66.205 22.5002 65.885 22.5747 65.5952 22.6793C65.3095 22.784 65.0801 22.9349 64.907 23.1321C64.738 23.3253 64.6535 23.5828 64.6535 23.9048C64.6535 24.3515 64.8185 24.6896 65.1485 24.919C65.4785 25.1444 65.8991 25.2571 66.4102 25.2571ZM72.998 26.5007V17.228H74.8031V26.5007H72.998ZM73.9096 15.7972C73.5957 15.7972 73.326 15.6926 73.1006 15.4833C72.8793 15.27 72.7686 15.0164 72.7686 14.7226C72.7686 14.4248 72.8793 14.1713 73.1006 13.962C73.326 13.7487 73.5957 13.642 73.9096 13.642C74.2235 13.642 74.4911 13.7487 74.7125 13.962C74.9379 14.1713 75.0506 14.4248 75.0506 14.7226C75.0506 15.0164 74.9379 15.27 74.7125 15.4833C74.4911 15.6926 74.2235 15.7972 73.9096 15.7972ZM79.0365 14.1371V26.5007H77.2314V14.1371H79.0365ZM84.1633 26.706C83.5757 26.706 83.0445 26.5973 82.5696 26.38C82.0947 26.1586 81.7184 25.8386 81.4407 25.4201C81.167 25.0015 81.0301 24.4884 81.0301 23.8807C81.0301 23.3575 81.1308 22.9268 81.332 22.5888C81.5332 22.2507 81.8049 21.9831 82.147 21.7859C82.4891 21.5886 82.8714 21.4397 83.294 21.3391C83.7166 21.2385 84.1472 21.162 84.5859 21.1097C85.1413 21.0453 85.5921 20.993 85.9382 20.9528C86.2843 20.9085 86.5358 20.8381 86.6928 20.7415C86.8497 20.6449 86.9282 20.4879 86.9282 20.2706V20.2283C86.9282 19.7011 86.7793 19.2926 86.4815 19.0028C86.1877 18.7131 85.749 18.5682 85.1654 18.5682C84.5577 18.5682 84.0788 18.703 83.7287 18.9726C83.3825 19.2383 83.1431 19.5341 83.0103 19.8601L81.3139 19.4737C81.5151 18.9103 81.8089 18.4555 82.1953 18.1094C82.5857 17.7592 83.0344 17.5057 83.5415 17.3487C84.0486 17.1877 84.5819 17.1072 85.1413 17.1072C85.5116 17.1072 85.904 17.1515 86.3185 17.24C86.7371 17.3246 87.1274 17.4815 87.4897 17.7109C87.8559 17.9403 88.1557 18.2683 88.3892 18.6949C88.6226 19.1175 88.7393 19.6669 88.7393 20.343V26.5007H86.9765V25.2329H86.9041C86.7874 25.4664 86.6123 25.6958 86.3789 25.9212C86.1454 26.1465 85.8456 26.3337 85.4794 26.4826C85.1131 26.6315 84.6744 26.706 84.1633 26.706ZM84.5557 25.2571C85.0548 25.2571 85.4814 25.1585 85.8355 24.9613C86.1937 24.7641 86.4654 24.5065 86.6505 24.1886C86.8397 23.8666 86.9343 23.5225 86.9343 23.1562V21.9609C86.8699 22.0253 86.7451 22.0857 86.56 22.142C86.3789 22.1944 86.1716 22.2406 85.9382 22.2809C85.7047 22.3171 85.4774 22.3513 85.256 22.3835C85.0346 22.4117 84.8495 22.4358 84.7006 22.456C84.3505 22.5002 84.0305 22.5747 83.7407 22.6793C83.455 22.784 83.2256 22.9349 83.0525 23.1321C82.8835 23.3253 82.799 23.5828 82.799 23.9048C82.799 24.3515 82.964 24.6896 83.294 24.919C83.624 25.1444 84.0446 25.2571 84.5557 25.2571ZM91.2884 26.5007V14.1371H93.0934V18.7312H93.2021C93.3067 18.538 93.4577 18.3146 93.6549 18.0611C93.8521 17.8075 94.1258 17.5862 94.4759 17.397C94.826 17.2038 95.2889 17.1072 95.8644 17.1072C96.613 17.1072 97.2811 17.2964 97.8687 17.6747C98.4563 18.053 98.9171 18.5984 99.2511 19.3107C99.5892 20.0231 99.7582 20.8803 99.7582 21.8824C99.7582 22.8846 99.5912 23.7438 99.2571 24.4602C98.9231 25.1726 98.4643 25.7219 97.8807 26.1083C97.2972 26.4906 96.6311 26.6818 95.8825 26.6818C95.3191 26.6818 94.8582 26.5872 94.5 26.3981C94.1459 26.2089 93.8682 25.9876 93.667 25.734C93.4657 25.4805 93.3108 25.2551 93.2021 25.0579H93.0512V26.5007H91.2884ZM93.0572 21.8643C93.0572 22.5163 93.1518 23.0878 93.341 23.5788C93.5301 24.0698 93.8038 24.4542 94.162 24.7319C94.5202 25.0056 94.9589 25.1424 95.478 25.1424C96.0173 25.1424 96.4681 24.9995 96.8303 24.7138C97.1925 24.424 97.4662 24.0316 97.6513 23.5366C97.8405 23.0415 97.9351 22.4841 97.9351 21.8643C97.9351 21.2526 97.8425 20.7032 97.6574 20.2163C97.4763 19.7293 97.2026 19.3449 96.8363 19.0632C96.4741 18.7815 96.0214 18.6406 95.478 18.6406C94.9548 18.6406 94.5121 18.7754 94.1499 19.0451C93.7917 19.3147 93.5201 19.691 93.3349 20.174C93.1498 20.6569 93.0572 21.2204 93.0572 21.8643ZM103.59 14.1371V26.5007H101.785V14.1371H103.59ZM110.015 26.6878C109.101 26.6878 108.315 26.4926 107.655 26.1023C106.999 25.7078 106.491 25.1545 106.133 24.4421C105.779 23.7257 105.602 22.8866 105.602 21.9247C105.602 20.9749 105.779 20.1378 106.133 19.4133C106.491 18.6889 106.99 18.1234 107.63 17.717C108.274 17.3105 109.027 17.1072 109.888 17.1072C110.411 17.1072 110.918 17.1938 111.409 17.3668C111.9 17.5399 112.341 17.8115 112.732 18.1818C113.122 18.5521 113.43 19.033 113.655 19.6246C113.881 20.2122 113.993 20.9266 113.993 21.7677V22.4077H106.622V21.0554H112.224C112.224 20.5805 112.128 20.1599 111.935 19.7937C111.742 19.4234 111.47 19.1316 111.12 18.9183C110.774 18.705 110.367 18.5984 109.9 18.5984C109.393 18.5984 108.95 18.7231 108.572 18.9726C108.198 19.2181 107.908 19.5401 107.703 19.9386C107.502 20.333 107.401 20.7616 107.401 21.2244V22.2809C107.401 22.9007 107.51 23.4279 107.727 23.8626C107.948 24.2972 108.256 24.6292 108.651 24.8587C109.045 25.084 109.506 25.1967 110.033 25.1967C110.375 25.1967 110.687 25.1484 110.969 25.0518C111.251 24.9512 111.494 24.8023 111.699 24.6051C111.905 24.4079 112.061 24.1644 112.17 23.8746L113.879 24.1825C113.742 24.6856 113.496 25.1263 113.142 25.5046C112.792 25.8789 112.351 26.1707 111.82 26.38C111.293 26.5852 110.691 26.6878 110.015 26.6878ZM124.401 26.6878C123.532 26.6878 122.773 26.4886 122.125 26.0902C121.477 25.6917 120.974 25.1343 120.616 24.418C120.258 23.7016 120.079 22.8645 120.079 21.9066C120.079 20.9447 120.258 20.1036 120.616 19.3832C120.974 18.6627 121.477 18.1033 122.125 17.7049C122.773 17.3065 123.532 17.1072 124.401 17.1072C125.27 17.1072 126.029 17.3065 126.677 17.7049C127.325 18.1033 127.828 18.6627 128.186 19.3832C128.544 20.1036 128.723 20.9447 128.723 21.9066C128.723 22.8645 128.544 23.7016 128.186 24.418C127.828 25.1343 127.325 25.6917 126.677 26.0902C126.029 26.4886 125.27 26.6878 124.401 26.6878ZM124.407 25.1726C124.97 25.1726 125.437 25.0237 125.808 24.7258C126.178 24.428 126.452 24.0316 126.629 23.5366C126.81 23.0415 126.9 22.4962 126.9 21.9006C126.9 21.3089 126.81 20.7656 126.629 20.2706C126.452 19.7715 126.178 19.3711 125.808 19.0692C125.437 18.7674 124.97 18.6165 124.407 18.6165C123.84 18.6165 123.369 18.7674 122.994 19.0692C122.624 19.3711 122.348 19.7715 122.167 20.2706C121.99 20.7656 121.902 21.3089 121.902 21.9006C121.902 22.4962 121.99 23.0415 122.167 23.5366C122.348 24.0316 122.624 24.428 122.994 24.7258C123.369 25.0237 123.84 25.1726 124.407 25.1726ZM132.543 20.995V26.5007H130.738V17.228H132.471V18.7372H132.586C132.799 18.2462 133.133 17.8518 133.588 17.554C134.046 17.2561 134.624 17.1072 135.32 17.1072C135.952 17.1072 136.506 17.24 136.98 17.5057C137.455 17.7673 137.824 18.1577 138.085 18.6768C138.347 19.196 138.478 19.8379 138.478 20.6026V26.5007H136.673V20.8199C136.673 20.1478 136.497 19.6226 136.147 19.2443C135.797 18.862 135.316 18.6708 134.704 18.6708C134.286 18.6708 133.914 18.7614 133.588 18.9425C133.266 19.1236 133.01 19.3892 132.821 19.7393C132.636 20.0855 132.543 20.504 132.543 20.995Z" fill="#E8E8E8"/>
<path d="M144.937 26.5007V14.1371H153.377V16.5639H147.925V19.0994H152.839V21.5323H147.925V26.5007H144.937ZM157.833 14.1371V26.5007H154.881V14.1371H157.833ZM162.326 26.6577C161.735 26.6577 161.21 26.5591 160.751 26.3618C160.296 26.1606 159.936 25.8588 159.67 25.4563C159.409 25.0498 159.278 24.5407 159.278 23.929C159.278 23.4138 159.368 22.9792 159.549 22.625C159.731 22.2708 159.98 21.9831 160.298 21.7617C160.616 21.5404 160.982 21.3733 161.397 21.2606C161.811 21.1439 162.254 21.0654 162.725 21.0252C163.252 20.9769 163.677 20.9266 163.999 20.8743C164.321 20.8179 164.554 20.7395 164.699 20.6388C164.848 20.5342 164.922 20.3873 164.922 20.1981V20.168C164.922 19.8581 164.816 19.6186 164.602 19.4496C164.389 19.2805 164.101 19.196 163.739 19.196C163.349 19.196 163.035 19.2805 162.797 19.4496C162.56 19.6186 162.409 19.852 162.345 20.1498L159.622 20.0533C159.702 19.4898 159.91 18.9867 160.244 18.544C160.582 18.0973 161.045 17.7471 161.632 17.4936C162.224 17.236 162.934 17.1072 163.763 17.1072C164.355 17.1072 164.9 17.1777 165.399 17.3185C165.898 17.4554 166.333 17.6566 166.703 17.9222C167.074 18.1838 167.359 18.5058 167.56 18.8881C167.766 19.2705 167.868 19.7071 167.868 20.1981V26.5007H165.091V25.2088H165.019C164.854 25.5227 164.643 25.7883 164.385 26.0057C164.132 26.223 163.832 26.386 163.486 26.4947C163.143 26.6033 162.757 26.6577 162.326 26.6577ZM163.238 24.7258C163.556 24.7258 163.842 24.6614 164.095 24.5327C164.353 24.4039 164.558 24.2268 164.711 24.0014C164.864 23.772 164.94 23.5064 164.94 23.2045V22.3231C164.856 22.3674 164.753 22.4077 164.633 22.4439C164.516 22.4801 164.387 22.5143 164.246 22.5465C164.105 22.5787 163.96 22.6069 163.812 22.631C163.663 22.6552 163.52 22.6773 163.383 22.6974C163.105 22.7417 162.868 22.8101 162.671 22.9027C162.477 22.9953 162.328 23.116 162.224 23.2649C162.123 23.4098 162.073 23.5828 162.073 23.7841C162.073 24.0899 162.182 24.3234 162.399 24.4844C162.62 24.6453 162.9 24.7258 163.238 24.7258ZM174.907 17.228V19.4013H169.058V17.228H174.907ZM170.283 15.0064H173.235V23.5849C173.235 23.766 173.263 23.9129 173.32 24.0256C173.38 24.1342 173.467 24.2127 173.579 24.261C173.692 24.3053 173.827 24.3274 173.984 24.3274C174.096 24.3274 174.215 24.3173 174.34 24.2972C174.469 24.2731 174.565 24.2529 174.63 24.2368L175.076 26.3679C174.936 26.4081 174.736 26.4584 174.479 26.5188C174.225 26.5792 173.921 26.6174 173.567 26.6335C172.875 26.6657 172.281 26.5852 171.786 26.392C171.295 26.1948 170.919 25.889 170.657 25.4744C170.4 25.0599 170.275 24.5387 170.283 23.9109V15.0064ZM179.565 21.2123V26.5007H176.613V14.1371H179.468V18.9304H179.571C179.78 18.3589 180.122 17.9122 180.597 17.5902C181.076 17.2682 181.662 17.1072 182.354 17.1072C183.006 17.1072 183.573 17.2521 184.056 17.5419C184.539 17.8276 184.914 18.2321 185.179 18.7553C185.449 19.2785 185.582 19.8903 185.578 20.5905V26.5007H182.626V21.1701C182.63 20.6549 182.501 20.2525 182.239 19.9627C181.978 19.6729 181.609 19.528 181.135 19.528C180.825 19.528 180.551 19.5965 180.314 19.7333C180.08 19.8661 179.897 20.0573 179.764 20.3068C179.635 20.5563 179.569 20.8582 179.565 21.2123ZM193.403 22.4982V17.228H196.349V26.5007H193.536V24.7741H193.439C193.234 25.3416 192.884 25.7924 192.389 26.1264C191.898 26.4564 191.304 26.6214 190.608 26.6214C189.976 26.6214 189.421 26.4765 188.942 26.1868C188.463 25.897 188.091 25.4925 187.825 24.9734C187.559 24.4502 187.425 23.8384 187.42 23.1381V17.228H190.373V22.5586C190.377 23.0617 190.509 23.4581 190.771 23.7479C191.033 24.0376 191.389 24.1825 191.84 24.1825C192.133 24.1825 192.397 24.1181 192.63 23.9893C192.868 23.8565 193.055 23.6654 193.192 23.4158C193.333 23.1623 193.403 22.8564 193.403 22.4982ZM198.228 26.5007V14.1371H201.18V18.8157H201.241C201.361 18.534 201.532 18.2623 201.754 18.0007C201.979 17.7391 202.265 17.5258 202.611 17.3608C202.961 17.1918 203.38 17.1072 203.867 17.1072C204.511 17.1072 205.112 17.2763 205.672 17.6143C206.235 17.9524 206.69 18.4736 207.036 19.1779C207.382 19.8822 207.555 20.7797 207.555 21.8704C207.555 22.9208 207.388 23.8002 207.054 24.5085C206.724 25.2168 206.277 25.7481 205.714 26.1023C205.154 26.4564 204.533 26.6335 203.848 26.6335C203.382 26.6335 202.977 26.557 202.635 26.4041C202.293 26.2512 202.005 26.0499 201.772 25.8004C201.542 25.5509 201.365 25.2832 201.241 24.9975H201.15V26.5007H198.228ZM201.12 21.8643C201.12 22.3634 201.186 22.798 201.319 23.1683C201.456 23.5386 201.651 23.8263 201.905 24.0316C202.162 24.2328 202.47 24.3334 202.828 24.3334C203.19 24.3334 203.498 24.2328 203.752 24.0316C204.005 23.8263 204.197 23.5386 204.325 23.1683C204.458 22.798 204.525 22.3634 204.525 21.8643C204.525 21.3653 204.458 20.9326 204.325 20.5664C204.197 20.2002 204.005 19.9164 203.752 19.7152C203.502 19.514 203.194 19.4133 202.828 19.4133C202.466 19.4133 202.158 19.5119 201.905 19.7092C201.651 19.9064 201.456 20.1881 201.319 20.5543C201.186 20.9206 201.12 21.3572 201.12 21.8643Z" fill="white"/>
</g>
<defs>
<filter id="filter0_d_1_56" x="2.39972" y="0.39972" width="39.202" height="39.202" filterUnits="userSpaceOnUse" color-interpolation-filters="sRGB">
<feFlood flood-opacity="0" result="BackgroundImageFix"/>
<feColorMatrix in="SourceAlpha" type="matrix" values="0 0 0 0 0 0 0 0 0 0 0 0 0 0 0 0 0 0 127 0" result="hardAlpha"/>
<feOffset/>
<feGaussianBlur stdDeviation="2.80014"/>
<feComposite in2="hardAlpha" operator="out"/>
<feColorMatrix type="matrix" values="0 0 0 0 0 0 0 0 0 0 0 0 0 0 0 0 0 0 0.25 0"/>
<feBlend mode="normal" in2="BackgroundImageFix" result="effect1_dropShadow_1_56"/>
<feBlend mode="normal" in="SourceGraphic" in2="effect1_dropShadow_1_56" result="shape"/>
</filter>
<filter id="filter1_d_1_56" x="5.39683" y="3.94128" width="33.2063" height="32.1174" filterUnits="userSpaceOnUse" color-interpolation-filters="sRGB">
<feFlood flood-opacity="0" result="BackgroundImageFix"/>
<feColorMatrix in="SourceAlpha" type="matrix" values="0 0 0 0 0 0 0 0 0 0 0 0 0 0 0 0 0 0 127 0" result="hardAlpha"/>
<feOffset/>
<feGaussianBlur stdDeviation="2.85714"/>
<feComposite in2="hardAlpha" operator="out"/>
<feColorMatrix type="matrix" values="0 0 0 0 0 0 0 0 0 0 0 0 0 0 0 0 0 0 0.25 0"/>
<feBlend mode="normal" in2="BackgroundImageFix" result="effect1_dropShadow_1_56"/>
<feBlend mode="normal" in="SourceGraphic" in2="effect1_dropShadow_1_56" result="shape"/>
</filter>
<filter id="filter2_d_1_56" x="36.2871" y="3.78642" width="178.429" height="32.4286" filterUnits="userSpaceOnUse" color-interpolation-filters="sRGB">
<feFlood flood-opacity="0" result="BackgroundImageFix"/>
<feColorMatrix in="SourceAlpha" type="matrix" values="0 0 0 0 0 0 0 0 0 0 0 0 0 0 0 0 0 0 127 0" result="hardAlpha"/>
<feOffset/>
<feGaussianBlur stdDeviation="2.85714"/>
<feComposite in2="hardAlpha" operator="out"/>
<feColorMatrix type="matrix" values="0 0 0 0 0 0 0 0 0 0 0 0 0 0 0 0 0 0 0.25 0"/>
<feBlend mode="normal" in2="BackgroundImageFix" result="effect1_dropShadow_1_56"/>
<feBlend mode="normal" in="SourceGraphic" in2="effect1_dropShadow_1_56" result="shape"/>
</filter>
<linearGradient id="paint0_linear_1_56" x1="108.501" y1="0" x2="108.501" y2="40.0014" gradientUnits="userSpaceOnUse">
<stop stop-color="#4A90D9"/>
<stop offset="1" stop-color="#24486D"/>
</linearGradient>
<clipPath id="clip0_1_56">
<rect width="28" height="28" fill="white" transform="translate(8 6)"/>
</clipPath>
</defs>
</svg>
