<svg width="215" height="40" viewBox="0 0 215 40" fill="none" xmlns="http://www.w3.org/2000/svg">
<rect width="214.333" height="40" rx="8" fill="url(#paint0_linear_1_56)"/>
<rect x="1.07143" y="1.07143" width="212.19" height="37.8571" rx="6.92857" stroke="white" stroke-opacity="0.15" stroke-width="2.14286"/>
<g clip-path="url(#clip0_1_56)">
<path d="M31.954 13.5036L31.954 26.4964L20.6667 32.9928V20L31.954 13.5036Z" fill="white"/>
<path d="M20.6667 20V7.00723L9.37937 13.5036L20.6667 20Z" fill="white"/>
<path d="M9.88423 11.6253C8.71684 12.2972 7.99997 13.535 7.99997 14.8788V25.1214C7.99997 26.4652 8.71684 27.703 9.88423 28.3749L18.7824 33.4962C19.9498 34.1681 21.3835 34.1681 22.5509 33.4962L31.449 28.3749C32.6164 27.703 33.3333 26.4652 33.3333 25.1214V14.8788C33.3333 13.535 32.6164 12.2972 31.449 11.6253L22.5509 6.50402C21.3835 5.83213 19.9498 5.83213 18.7824 6.50402L9.88423 11.6253ZM21.1715 8.88571L30.0697 14.007C30.3807 14.186 30.5746 14.5208 30.5746 14.8788V25.1214C30.5746 25.4794 30.3807 25.8142 30.0697 25.9932L21.1715 31.1145C20.8605 31.2935 20.4728 31.2935 20.1617 31.1145L11.2636 25.9932C10.9526 25.8142 10.7587 25.4794 10.7587 25.1214V14.8788C10.7587 14.5208 10.9526 14.186 11.2636 14.007L20.1617 8.88571C20.4728 8.70671 20.8605 8.70671 21.1715 8.88571Z" fill="white"/>
</g>
<g filter="url(#filter0_d_1_56)">
<path d="M41.736 26.5H39.7559L44.2051 14.1364H46.3603L50.8095 26.5H48.8294L45.334 16.3821H45.2374L41.736 26.5ZM42.0681 21.6584H48.4914V23.228H42.0681V21.6584ZM59.2205 17.2273L55.8579 26.5H53.9261L50.5575 17.2273H52.4953L54.8437 24.3629H54.9403L57.2826 17.2273H59.2205ZM63.3497 26.7053C62.7622 26.7053 62.2309 26.5966 61.756 26.3793C61.2811 26.1579 60.9048 25.8379 60.6271 25.4194C60.3534 25.0008 60.2166 24.4877 60.2166 23.88C60.2166 23.3568 60.3172 22.9261 60.5184 22.5881C60.7197 22.25 60.9913 21.9824 61.3334 21.7852C61.6755 21.5879 62.0578 21.439 62.4804 21.3384C62.903 21.2378 63.3336 21.1613 63.7723 21.109C64.3277 21.0446 64.7785 20.9923 65.1246 20.9521C65.4707 20.9078 65.7223 20.8374 65.8792 20.7408C66.0362 20.6442 66.1147 20.4872 66.1147 20.2699V20.2276C66.1147 19.7004 65.9657 19.2919 65.6679 19.0021C65.3741 18.7124 64.9354 18.5675 64.3519 18.5675C63.7442 18.5675 63.2652 18.7023 62.9151 18.9719C62.569 19.2376 62.3295 19.5334 62.1967 19.8594L60.5003 19.473C60.7015 18.9096 60.9953 18.4548 61.3817 18.1087C61.7721 17.7585 62.2208 17.505 62.7279 17.348C63.235 17.187 63.7683 17.1065 64.3277 17.1065C64.698 17.1065 65.0904 17.1508 65.5049 17.2393C65.9235 17.3239 66.3139 17.4808 66.6761 17.7102C67.0423 17.9396 67.3422 18.2676 67.5756 18.6942C67.809 19.1168 67.9257 19.6662 67.9257 20.3423V26.5H66.163V25.2322H66.0905C65.9738 25.4657 65.7987 25.6951 65.5653 25.9204C65.3319 26.1458 65.032 26.333 64.6658 26.4819C64.2996 26.6308 63.8609 26.7053 63.3497 26.7053ZM63.7421 25.2564C64.2412 25.2564 64.6678 25.1578 65.022 24.9606C65.3802 24.7634 65.6518 24.5058 65.837 24.1879C66.0261 23.8659 66.1207 23.5218 66.1207 23.1555V21.9602C66.0563 22.0246 65.9315 22.085 65.7464 22.1413C65.5653 22.1937 65.358 22.2399 65.1246 22.2802C64.8912 22.3164 64.6638 22.3506 64.4424 22.3828C64.2211 22.411 64.0359 22.4351 63.887 22.4553C63.5369 22.4995 63.2169 22.574 62.9272 22.6786C62.6414 22.7833 62.412 22.9342 62.239 23.1314C62.0699 23.3246 61.9854 23.5821 61.9854 23.9041C61.9854 24.3508 62.1504 24.6889 62.4804 24.9183C62.8104 25.1437 63.231 25.2564 63.7421 25.2564ZM70.3299 26.5V17.2273H72.135V26.5H70.3299ZM71.2415 15.7965C70.9276 15.7965 70.658 15.6919 70.4326 15.4826C70.2112 15.2693 70.1005 15.0157 70.1005 14.7219C70.1005 14.4241 70.2112 14.1706 70.4326 13.9613C70.658 13.748 70.9276 13.6413 71.2415 13.6413C71.5554 13.6413 71.8231 13.748 72.0444 13.9613C72.2698 14.1706 72.3825 14.4241 72.3825 14.7219C72.3825 15.0157 72.2698 15.2693 72.0444 15.4826C71.8231 15.6919 71.5554 15.7965 71.2415 15.7965ZM76.3684 14.1364V26.5H74.5633V14.1364H76.3684ZM81.4952 26.7053C80.9077 26.7053 80.3764 26.5966 79.9015 26.3793C79.4266 26.1579 79.0503 25.8379 78.7726 25.4194C78.4989 25.0008 78.3621 24.4877 78.3621 23.88C78.3621 23.3568 78.4627 22.9261 78.6639 22.5881C78.8652 22.25 79.1368 21.9824 79.4789 21.7852C79.821 21.5879 80.2033 21.439 80.6259 21.3384C81.0485 21.2378 81.4791 21.1613 81.9178 21.109C82.4732 21.0446 82.924 20.9923 83.2701 20.9521C83.6162 20.9078 83.8678 20.8374 84.0247 20.7408C84.1817 20.6442 84.2602 20.4872 84.2602 20.2699V20.2276C84.2602 19.7004 84.1113 19.2919 83.8134 19.0021C83.5196 18.7124 83.0809 18.5675 82.4974 18.5675C81.8897 18.5675 81.4107 18.7023 81.0606 18.9719C80.7145 19.2376 80.475 19.5334 80.3422 19.8594L78.6458 19.473C78.847 18.9096 79.1408 18.4548 79.5272 18.1087C79.9176 17.7585 80.3663 17.505 80.8734 17.348C81.3805 17.187 81.9138 17.1065 82.4732 17.1065C82.8435 17.1065 83.2359 17.1508 83.6504 17.2393C84.069 17.3239 84.4594 17.4808 84.8216 17.7102C85.1878 17.9396 85.4877 18.2676 85.7211 18.6942C85.9545 19.1168 86.0712 19.6662 86.0712 20.3423V26.5H84.3085V25.2322H84.236C84.1193 25.4657 83.9442 25.6951 83.7108 25.9204C83.4774 26.1458 83.1775 26.333 82.8113 26.4819C82.4451 26.6308 82.0064 26.7053 81.4952 26.7053ZM81.8876 25.2564C82.3867 25.2564 82.8133 25.1578 83.1675 24.9606C83.5257 24.7634 83.7973 24.5058 83.9825 24.1879C84.1716 23.8659 84.2662 23.5218 84.2662 23.1555V21.9602C84.2018 22.0246 84.077 22.085 83.8919 22.1413C83.7108 22.1937 83.5035 22.2399 83.2701 22.2802C83.0367 22.3164 82.8093 22.3506 82.5879 22.3828C82.3666 22.411 82.1814 22.4351 82.0325 22.4553C81.6824 22.4995 81.3624 22.574 81.0727 22.6786C80.7869 22.7833 80.5575 22.9342 80.3845 23.1314C80.2154 23.3246 80.1309 23.5821 80.1309 23.9041C80.1309 24.3508 80.2959 24.6889 80.6259 24.9183C80.9559 25.1437 81.3765 25.2564 81.8876 25.2564ZM88.6203 26.5V14.1364H90.4254V18.7305H90.534C90.6387 18.5373 90.7896 18.3139 90.9868 18.0604C91.184 17.8068 91.4577 17.5855 91.8078 17.3963C92.158 17.2031 92.6208 17.1065 93.1963 17.1065C93.9449 17.1065 94.613 17.2957 95.2006 17.674C95.7882 18.0523 96.249 18.5977 96.583 19.31C96.9211 20.0224 97.0901 20.8796 97.0901 21.8817C97.0901 22.8839 96.9231 23.7431 96.5891 24.4595C96.255 25.1719 95.7962 25.7212 95.2127 26.1076C94.6291 26.4899 93.963 26.6811 93.2144 26.6811C92.651 26.6811 92.1902 26.5865 91.832 26.3974C91.4778 26.2082 91.2001 25.9869 90.9989 25.7333C90.7977 25.4798 90.6427 25.2544 90.534 25.0572H90.3831V26.5H88.6203ZM90.3892 21.8636C90.3892 22.5156 90.4837 23.0871 90.6729 23.5781C90.862 24.0691 91.1357 24.4535 91.4939 24.7312C91.8521 25.0048 92.2908 25.1417 92.81 25.1417C93.3493 25.1417 93.8 24.9988 94.1622 24.7131C94.5245 24.4233 94.7981 24.0309 94.9833 23.5359C95.1724 23.0408 95.267 22.4834 95.267 21.8636C95.267 21.2519 95.1744 20.7025 94.9893 20.2156C94.8082 19.7286 94.5345 19.3442 94.1683 19.0625C93.8061 18.7808 93.3533 18.6399 92.81 18.6399C92.2868 18.6399 91.8441 18.7747 91.4818 19.0444C91.1236 19.314 90.852 19.6903 90.6669 20.1733C90.4817 20.6562 90.3892 21.2197 90.3892 21.8636ZM100.922 14.1364V26.5H99.117V14.1364H100.922ZM107.347 26.6871C106.433 26.6871 105.646 26.4919 104.986 26.1016C104.33 25.7071 103.823 25.1538 103.465 24.4414C103.111 23.725 102.934 22.8859 102.934 21.924C102.934 20.9742 103.111 20.1371 103.465 19.4126C103.823 18.6882 104.322 18.1227 104.962 17.7163C105.606 17.3098 106.359 17.1065 107.22 17.1065C107.743 17.1065 108.25 17.1931 108.741 17.3661C109.232 17.5392 109.673 17.8108 110.064 18.1811C110.454 18.5514 110.762 19.0323 110.987 19.6239C111.213 20.2115 111.325 20.9259 111.325 21.767V22.407H103.954V21.0547H109.556C109.556 20.5798 109.46 20.1592 109.267 19.793C109.073 19.4227 108.802 19.1309 108.452 18.9176C108.106 18.7043 107.699 18.5977 107.232 18.5977C106.725 18.5977 106.282 18.7224 105.904 18.9719C105.53 19.2174 105.24 19.5394 105.035 19.9379C104.834 20.3323 104.733 20.7609 104.733 21.2237V22.2802C104.733 22.9 104.842 23.4272 105.059 23.8619C105.28 24.2965 105.588 24.6285 105.983 24.8579C106.377 25.0833 106.838 25.196 107.365 25.196C107.707 25.196 108.019 25.1477 108.301 25.0511C108.582 24.9505 108.826 24.8016 109.031 24.6044C109.236 24.4072 109.393 24.1637 109.502 23.8739L111.211 24.1818C111.074 24.6849 110.828 25.1256 110.474 25.5039C110.124 25.8782 109.683 26.17 109.152 26.3793C108.625 26.5845 108.023 26.6871 107.347 26.6871ZM122.24 17.2273V18.6761H117V17.2273H122.24ZM118.437 26.5V16.1527C118.437 15.5732 118.564 15.0922 118.817 14.7099C119.071 14.3235 119.407 14.0357 119.825 13.8466C120.244 13.6534 120.699 13.5568 121.19 13.5568C121.552 13.5568 121.862 13.587 122.119 13.6474C122.377 13.7037 122.568 13.756 122.693 13.8043L122.27 15.2653C122.186 15.2411 122.077 15.2129 121.944 15.1808C121.811 15.1445 121.65 15.1264 121.461 15.1264C121.023 15.1264 120.709 15.2351 120.519 15.4524C120.334 15.6697 120.242 15.9837 120.242 16.3942V26.5H118.437ZM127.643 26.6871C126.774 26.6871 126.015 26.4879 125.367 26.0895C124.719 25.691 124.216 25.1336 123.858 24.4173C123.5 23.7009 123.321 22.8638 123.321 21.9059C123.321 20.944 123.5 20.1029 123.858 19.3825C124.216 18.662 124.719 18.1026 125.367 17.7042C126.015 17.3058 126.774 17.1065 127.643 17.1065C128.512 17.1065 129.271 17.3058 129.919 17.7042C130.567 18.1026 131.07 18.662 131.428 19.3825C131.786 20.1029 131.965 20.944 131.965 21.9059C131.965 22.8638 131.786 23.7009 131.428 24.4173C131.07 25.1336 130.567 25.691 129.919 26.0895C129.271 26.4879 128.512 26.6871 127.643 26.6871ZM127.649 25.1719C128.213 25.1719 128.679 25.023 129.05 24.7251C129.42 24.4273 129.694 24.0309 129.871 23.5359C130.052 23.0408 130.142 22.4955 130.142 21.8999C130.142 21.3082 130.052 20.7649 129.871 20.2699C129.694 19.7708 129.42 19.3704 129.05 19.0685C128.679 18.7667 128.213 18.6158 127.649 18.6158C127.082 18.6158 126.611 18.7667 126.236 19.0685C125.866 19.3704 125.59 19.7708 125.409 20.2699C125.232 20.7649 125.144 21.3082 125.144 21.8999C125.144 22.4955 125.232 23.0408 125.409 23.5359C125.59 24.0309 125.866 24.4273 126.236 24.7251C126.611 25.023 127.082 25.1719 127.649 25.1719ZM133.98 26.5V17.2273H135.725V18.7003H135.822C135.991 18.2012 136.288 17.8088 136.715 17.5231C137.146 17.2333 137.633 17.0884 138.176 17.0884C138.289 17.0884 138.421 17.0924 138.574 17.1005C138.731 17.1085 138.854 17.1186 138.943 17.1307V18.8572C138.87 18.8371 138.741 18.815 138.556 18.7908C138.371 18.7627 138.186 18.7486 138.001 18.7486C137.574 18.7486 137.194 18.8391 136.86 19.0202C136.53 19.1973 136.268 19.4448 136.075 19.7628C135.882 20.0767 135.785 20.4349 135.785 20.8374V26.5H133.98Z" fill="white"/>
<path d="M144.269 26.5V14.1364H152.709V16.5632H147.257V19.0987H152.171V21.5316H147.257V26.5H144.269ZM157.165 14.1364V26.5H154.213V14.1364H157.165ZM161.658 26.657C161.067 26.657 160.542 26.5584 160.083 26.3611C159.628 26.1599 159.268 25.8581 159.002 25.4556C158.741 25.0491 158.61 24.54 158.61 23.9283C158.61 23.4131 158.7 22.9785 158.881 22.6243C159.063 22.2701 159.312 21.9824 159.63 21.761C159.948 21.5397 160.314 21.3726 160.729 21.2599C161.143 21.1432 161.586 21.0647 162.057 21.0245C162.584 20.9762 163.009 20.9259 163.331 20.8736C163.653 20.8172 163.886 20.7388 164.031 20.6381C164.18 20.5335 164.254 20.3866 164.254 20.1974V20.1673C164.254 19.8574 164.148 19.6179 163.934 19.4489C163.721 19.2798 163.433 19.1953 163.071 19.1953C162.681 19.1953 162.367 19.2798 162.129 19.4489C161.892 19.6179 161.741 19.8513 161.677 20.1491L158.954 20.0526C159.034 19.4891 159.242 18.986 159.576 18.5433C159.914 18.0966 160.377 17.7464 160.964 17.4929C161.556 17.2353 162.266 17.1065 163.095 17.1065C163.687 17.1065 164.232 17.177 164.731 17.3178C165.23 17.4547 165.665 17.6559 166.035 17.9215C166.405 18.1831 166.691 18.5051 166.892 18.8874C167.098 19.2698 167.2 19.7064 167.2 20.1974V26.5H164.423V25.2081H164.351C164.186 25.522 163.975 25.7876 163.717 26.005C163.463 26.2223 163.164 26.3853 162.817 26.494C162.475 26.6026 162.089 26.657 161.658 26.657ZM162.57 24.7251C162.888 24.7251 163.174 24.6607 163.427 24.532C163.685 24.4032 163.89 24.2261 164.043 24.0007C164.196 23.7713 164.272 23.5057 164.272 23.2038V22.3224C164.188 22.3667 164.085 22.407 163.965 22.4432C163.848 22.4794 163.719 22.5136 163.578 22.5458C163.437 22.578 163.292 22.6062 163.143 22.6303C162.995 22.6545 162.852 22.6766 162.715 22.6967C162.437 22.741 162.2 22.8094 162.003 22.902C161.809 22.9946 161.66 23.1153 161.556 23.2642C161.455 23.4091 161.405 23.5821 161.405 23.7834C161.405 24.0892 161.514 24.3227 161.731 24.4837C161.952 24.6446 162.232 24.7251 162.57 24.7251ZM174.239 17.2273V19.4006H168.39V17.2273H174.239ZM169.615 15.0057H172.567V23.5842C172.567 23.7653 172.595 23.9122 172.652 24.0249C172.712 24.1335 172.799 24.212 172.911 24.2603C173.024 24.3046 173.159 24.3267 173.316 24.3267C173.428 24.3267 173.547 24.3166 173.672 24.2965C173.801 24.2724 173.897 24.2522 173.962 24.2361L174.408 26.3672C174.268 26.4074 174.068 26.4577 173.811 26.5181C173.557 26.5785 173.253 26.6167 172.899 26.6328C172.207 26.665 171.613 26.5845 171.118 26.3913C170.627 26.1941 170.251 25.8883 169.989 25.4737C169.732 25.0592 169.607 24.538 169.615 23.9102V15.0057ZM175.746 29.9773V17.2273H178.667V18.815H178.758C178.879 18.5333 179.05 18.2616 179.271 18C179.497 17.7384 179.782 17.5251 180.128 17.3601C180.479 17.191 180.897 17.1065 181.384 17.1065C182.028 17.1065 182.63 17.2756 183.189 17.6136C183.753 17.9517 184.207 18.4729 184.553 19.1772C184.9 19.8815 185.073 20.779 185.073 21.8697C185.073 22.9201 184.906 23.7995 184.572 24.5078C184.242 25.2161 183.795 25.7474 183.231 26.1016C182.672 26.4557 182.05 26.6328 181.366 26.6328C180.899 26.6328 180.495 26.5563 180.153 26.4034C179.81 26.2505 179.523 26.0492 179.289 25.7997C179.06 25.5502 178.883 25.2825 178.758 24.9968H178.698V29.9773H175.746ZM178.637 21.8636C178.637 22.3627 178.704 22.7973 178.836 23.1676C178.973 23.5379 179.169 23.8256 179.422 24.0309C179.68 24.2321 179.988 24.3327 180.346 24.3327C180.708 24.3327 181.016 24.2321 181.269 24.0309C181.523 23.8256 181.714 23.5379 181.843 23.1676C181.976 22.7973 182.042 22.3627 182.042 21.8636C182.042 21.3646 181.976 20.9319 181.843 20.5657C181.714 20.1995 181.523 19.9157 181.269 19.7145C181.02 19.5133 180.712 19.4126 180.346 19.4126C179.984 19.4126 179.676 19.5112 179.422 19.7084C179.169 19.9057 178.973 20.1874 178.836 20.5536C178.704 20.9199 178.637 21.3565 178.637 21.8636ZM189.234 26.657C188.642 26.657 188.117 26.5584 187.658 26.3611C187.203 26.1599 186.843 25.8581 186.577 25.4556C186.316 25.0491 186.185 24.54 186.185 23.9283C186.185 23.4131 186.275 22.9785 186.457 22.6243C186.638 22.2701 186.887 21.9824 187.205 21.761C187.523 21.5397 187.889 21.3726 188.304 21.2599C188.718 21.1432 189.161 21.0647 189.632 21.0245C190.159 20.9762 190.584 20.9259 190.906 20.8736C191.228 20.8172 191.461 20.7388 191.606 20.6381C191.755 20.5335 191.829 20.3866 191.829 20.1974V20.1673C191.829 19.8574 191.723 19.6179 191.51 19.4489C191.296 19.2798 191.008 19.1953 190.646 19.1953C190.256 19.1953 189.942 19.2798 189.704 19.4489C189.467 19.6179 189.316 19.8513 189.252 20.1491L186.529 20.0526C186.61 19.4891 186.817 18.986 187.151 18.5433C187.489 18.0966 187.952 17.7464 188.539 17.4929C189.131 17.2353 189.841 17.1065 190.67 17.1065C191.262 17.1065 191.807 17.177 192.306 17.3178C192.805 17.4547 193.24 17.6559 193.61 17.9215C193.981 18.1831 194.266 18.5051 194.468 18.8874C194.673 19.2698 194.775 19.7064 194.775 20.1974V26.5H191.999V25.2081H191.926C191.761 25.522 191.55 25.7876 191.292 26.005C191.039 26.2223 190.739 26.3853 190.393 26.494C190.051 26.6026 189.664 26.657 189.234 26.657ZM190.145 24.7251C190.463 24.7251 190.749 24.6607 191.002 24.532C191.26 24.4032 191.465 24.2261 191.618 24.0007C191.771 23.7713 191.848 23.5057 191.848 23.2038V22.3224C191.763 22.3667 191.66 22.407 191.54 22.4432C191.423 22.4794 191.294 22.5136 191.153 22.5458C191.012 22.578 190.868 22.6062 190.719 22.6303C190.57 22.6545 190.427 22.6766 190.29 22.6967C190.012 22.741 189.775 22.8094 189.578 22.902C189.385 22.9946 189.236 23.1153 189.131 23.2642C189.03 23.4091 188.98 23.5821 188.98 23.7834C188.98 24.0892 189.089 24.3227 189.306 24.4837C189.527 24.6446 189.807 24.7251 190.145 24.7251ZM199.243 24.0671L199.255 20.5476H199.665L202.273 17.2273H205.618L201.742 21.9844H200.963L199.243 24.0671ZM196.581 26.5V14.1364H199.533V26.5H196.581ZM202.34 26.5L199.913 22.6484L201.857 20.5536L205.751 26.5H202.34Z" fill="#F7F7F7"/>
</g>
<defs>
<filter id="filter0_d_1_56" x="33.619" y="3.78571" width="178.429" height="32.4286" filterUnits="userSpaceOnUse" color-interpolation-filters="sRGB">
<feFlood flood-opacity="0" result="BackgroundImageFix"/>
<feColorMatrix in="SourceAlpha" type="matrix" values="0 0 0 0 0 0 0 0 0 0 0 0 0 0 0 0 0 0 127 0" result="hardAlpha"/>
<feOffset/>
<feGaussianBlur stdDeviation="2.85714"/>
<feComposite in2="hardAlpha" operator="out"/>
<feColorMatrix type="matrix" values="0 0 0 0 0 0 0 0 0 0 0 0 0 0 0 0 0 0 0.25 0"/>
<feBlend mode="normal" in2="BackgroundImageFix" result="effect1_dropShadow_1_56"/>
<feBlend mode="normal" in="SourceGraphic" in2="effect1_dropShadow_1_56" result="shape"/>
</filter>
<linearGradient id="paint0_linear_1_56" x1="107.167" y1="0" x2="107.167" y2="40" gradientUnits="userSpaceOnUse">
<stop stop-color="#4A90D9"/>
<stop offset="1" stop-color="#24486D"/>
</linearGradient>
<clipPath id="clip0_1_56">
<rect width="25.3333" height="28" fill="white" transform="translate(8 6)"/>
</clipPath>
</defs>
</svg>
