<svg width="217" height="40" viewBox="0 0 217 40" fill="none" xmlns="http://www.w3.org/2000/svg">
<g clip-path="url(#clip0_1_56)">
<rect width="217" height="40" rx="8" fill="url(#paint0_linear_1_56)"/>
<g filter="url(#filter0_d_1_56)">
<g clip-path="url(#clip1_1_56)">
<mask id="mask0_1_56" style="mask-type:luminance" maskUnits="userSpaceOnUse" x="8" y="5" width="28" height="30">
<path d="M35.3 5.2999H8.7V34.6999H35.3V5.2999Z" fill="white"/>
</mask>
<g mask="url(#mask0_1_56)">
<path d="M33.8516 13.1787V26.8212L22 33.6424V19.9999L33.8516 13.1787Z" fill="white"/>
<path d="M22 19.9999V6.35751L10.1484 13.1787L22 19.9999Z" fill="white"/>
<path d="M10.6785 11.2065C9.45271 11.912 8.7 13.2117 8.7 14.6226V25.3774C8.7 26.7883 9.45271 28.088 10.6785 28.7935L20.0215 34.1709C21.2473 34.8764 22.7527 34.8764 23.9785 34.1709L33.3215 28.7935C34.5473 28.088 35.3 26.7883 35.3 25.3774V14.6226C35.3 13.2117 34.5473 11.912 33.3215 11.2065L23.9785 5.82911C22.7527 5.12363 21.2473 5.12363 20.0215 5.82911L10.6785 11.2065ZM22.5301 8.32988L31.8732 13.7073C32.1997 13.8952 32.4033 14.2467 32.4033 14.6226V25.3774C32.4033 25.7533 32.1997 26.1048 31.8732 26.2927L22.5301 31.6701C22.2036 31.8581 21.7964 31.8581 21.4698 31.6701L12.1268 26.2927C11.8002 26.1048 11.5967 25.7533 11.5967 25.3774V14.6226C11.5967 14.2467 11.8002 13.8952 12.1268 13.7073L21.4698 8.32988C21.7964 8.14193 22.2036 8.14193 22.5301 8.32988Z" fill="white"/>
</g>
</g>
</g>
<g filter="url(#filter1_d_1_56)">
<path d="M44.4027 26.5H42.4226L46.8718 14.1364H49.027L53.4762 26.5H51.4961L48.0007 16.3821H47.9041L44.4027 26.5ZM44.7347 21.6584H51.158V23.228H44.7347V21.6584ZM61.8871 17.2273L58.5246 26.5H56.5928L53.2242 17.2273H55.162L57.5104 24.3629H57.607L59.9493 17.2273H61.8871ZM66.0164 26.7053C65.4288 26.7053 64.8976 26.5966 64.4227 26.3793C63.9478 26.1579 63.5715 25.8379 63.2938 25.4194C63.0201 25.0008 62.8832 24.4877 62.8832 23.88C62.8832 23.3568 62.9839 22.9261 63.1851 22.5881C63.3863 22.25 63.658 21.9824 64.0001 21.7852C64.3422 21.5879 64.7245 21.439 65.1471 21.3384C65.5697 21.2378 66.0003 21.1613 66.439 21.109C66.9944 21.0446 67.4451 20.9923 67.7913 20.9521C68.1374 20.9078 68.3889 20.8374 68.5459 20.7408C68.7028 20.6442 68.7813 20.4872 68.7813 20.2699V20.2276C68.7813 19.7004 68.6324 19.2919 68.3346 19.0021C68.0408 18.7124 67.6021 18.5675 67.0185 18.5675C66.4108 18.5675 65.9319 18.7023 65.5818 18.9719C65.2356 19.2376 64.9962 19.5334 64.8634 19.8594L63.167 19.473C63.3682 18.9096 63.662 18.4548 64.0484 18.1087C64.4388 17.7585 64.8875 17.505 65.3946 17.348C65.9017 17.187 66.435 17.1065 66.9944 17.1065C67.3647 17.1065 67.7571 17.1508 68.1716 17.2393C68.5902 17.3239 68.9805 17.4808 69.3428 17.7102C69.709 17.9396 70.0088 18.2676 70.2423 18.6942C70.4757 19.1168 70.5924 19.6662 70.5924 20.3423V26.5H68.8296V25.2322H68.7572C68.6405 25.4657 68.4654 25.6951 68.232 25.9204C67.9985 26.1458 67.6987 26.333 67.3325 26.4819C66.9662 26.6308 66.5275 26.7053 66.0164 26.7053ZM66.4088 25.2564C66.9079 25.2564 67.3345 25.1578 67.6886 24.9606C68.0468 24.7634 68.3185 24.5058 68.5036 24.1879C68.6928 23.8659 68.7874 23.5218 68.7874 23.1555V21.9602C68.723 22.0246 68.5982 22.085 68.4131 22.1413C68.232 22.1937 68.0247 22.2399 67.7913 22.2802C67.5578 22.3164 67.3304 22.3506 67.1091 22.3828C66.8877 22.411 66.7026 22.4351 66.5537 22.4553C66.2036 22.4995 65.8836 22.574 65.5938 22.6786C65.3081 22.7833 65.0787 22.9342 64.9056 23.1314C64.7366 23.3246 64.6521 23.5821 64.6521 23.9041C64.6521 24.3508 64.8171 24.6889 65.1471 24.9183C65.4771 25.1437 65.8977 25.2564 66.4088 25.2564ZM72.9966 26.5V17.2273H74.8017V26.5H72.9966ZM73.9082 15.7965C73.5943 15.7965 73.3246 15.6919 73.0992 15.4826C72.8779 15.2693 72.7672 15.0157 72.7672 14.7219C72.7672 14.4241 72.8779 14.1706 73.0992 13.9613C73.3246 13.748 73.5943 13.6413 73.9082 13.6413C74.2221 13.6413 74.4897 13.748 74.7111 13.9613C74.9365 14.1706 75.0492 14.4241 75.0492 14.7219C75.0492 15.0157 74.9365 15.2693 74.7111 15.4826C74.4897 15.6919 74.2221 15.7965 73.9082 15.7965ZM79.035 14.1364V26.5H77.23V14.1364H79.035ZM84.1619 26.7053C83.5743 26.7053 83.0431 26.5966 82.5682 26.3793C82.0933 26.1579 81.717 25.8379 81.4393 25.4194C81.1656 25.0008 81.0287 24.4877 81.0287 23.88C81.0287 23.3568 81.1294 22.9261 81.3306 22.5881C81.5318 22.25 81.8035 21.9824 82.1456 21.7852C82.4877 21.5879 82.87 21.439 83.2926 21.3384C83.7152 21.2378 84.1458 21.1613 84.5845 21.109C85.1399 21.0446 85.5907 20.9923 85.9368 20.9521C86.2829 20.9078 86.5344 20.8374 86.6914 20.7408C86.8483 20.6442 86.9268 20.4872 86.9268 20.2699V20.2276C86.9268 19.7004 86.7779 19.2919 86.4801 19.0021C86.1863 18.7124 85.7476 18.5675 85.164 18.5675C84.5563 18.5675 84.0774 18.7023 83.7273 18.9719C83.3811 19.2376 83.1417 19.5334 83.0089 19.8594L81.3125 19.473C81.5137 18.9096 81.8075 18.4548 82.1939 18.1087C82.5843 17.7585 83.033 17.505 83.5401 17.348C84.0472 17.187 84.5805 17.1065 85.1399 17.1065C85.5102 17.1065 85.9026 17.1508 86.3171 17.2393C86.7357 17.3239 87.126 17.4808 87.4883 17.7102C87.8545 17.9396 88.1543 18.2676 88.3878 18.6942C88.6212 19.1168 88.7379 19.6662 88.7379 20.3423V26.5H86.9751V25.2322H86.9027C86.786 25.4657 86.6109 25.6951 86.3775 25.9204C86.144 26.1458 85.8442 26.333 85.478 26.4819C85.1117 26.6308 84.673 26.7053 84.1619 26.7053ZM84.5543 25.2564C85.0534 25.2564 85.48 25.1578 85.8341 24.9606C86.1923 24.7634 86.464 24.5058 86.6491 24.1879C86.8383 23.8659 86.9329 23.5218 86.9329 23.1555V21.9602C86.8685 22.0246 86.7437 22.085 86.5586 22.1413C86.3775 22.1937 86.1702 22.2399 85.9368 22.2802C85.7033 22.3164 85.476 22.3506 85.2546 22.3828C85.0332 22.411 84.8481 22.4351 84.6992 22.4553C84.3491 22.4995 84.0291 22.574 83.7393 22.6786C83.4536 22.7833 83.2242 22.9342 83.0511 23.1314C82.8821 23.3246 82.7976 23.5821 82.7976 23.9041C82.7976 24.3508 82.9626 24.6889 83.2926 24.9183C83.6226 25.1437 84.0432 25.2564 84.5543 25.2564ZM91.287 26.5V14.1364H93.092V18.7305H93.2007C93.3053 18.5373 93.4563 18.3139 93.6535 18.0604C93.8507 17.8068 94.1244 17.5855 94.4745 17.3963C94.8246 17.2031 95.2875 17.1065 95.863 17.1065C96.6116 17.1065 97.2797 17.2957 97.8673 17.674C98.4548 18.0523 98.9157 18.5977 99.2497 19.31C99.5878 20.0224 99.7568 20.8796 99.7568 21.8817C99.7568 22.8839 99.5898 23.7431 99.2557 24.4595C98.9217 25.1719 98.4629 25.7212 97.8793 26.1076C97.2958 26.4899 96.6297 26.6811 95.8811 26.6811C95.3177 26.6811 94.8568 26.5865 94.4986 26.3974C94.1445 26.2082 93.8668 25.9869 93.6655 25.7333C93.4643 25.4798 93.3094 25.2544 93.2007 25.0572H93.0498V26.5H91.287ZM93.0558 21.8636C93.0558 22.5156 93.1504 23.0871 93.3396 23.5781C93.5287 24.0691 93.8024 24.4535 94.1606 24.7312C94.5188 25.0048 94.9575 25.1417 95.4766 25.1417C96.0159 25.1417 96.4667 24.9988 96.8289 24.7131C97.1911 24.4233 97.4648 24.0309 97.6499 23.5359C97.8391 23.0408 97.9337 22.4834 97.9337 21.8636C97.9337 21.2519 97.8411 20.7025 97.656 20.2156C97.4749 19.7286 97.2012 19.3442 96.8349 19.0625C96.4727 18.7808 96.02 18.6399 95.4766 18.6399C94.9534 18.6399 94.5107 18.7747 94.1485 19.0444C93.7903 19.314 93.5187 19.6903 93.3335 20.1733C93.1484 20.6562 93.0558 21.2197 93.0558 21.8636ZM103.589 14.1364V26.5H101.784V14.1364H103.589ZM110.014 26.6871C109.1 26.6871 108.313 26.4919 107.653 26.1016C106.997 25.7071 106.49 25.1538 106.132 24.4414C105.778 23.725 105.601 22.8859 105.601 21.924C105.601 20.9742 105.778 20.1371 106.132 19.4126C106.49 18.6882 106.989 18.1227 107.629 17.7163C108.273 17.3098 109.026 17.1065 109.887 17.1065C110.41 17.1065 110.917 17.1931 111.408 17.3661C111.899 17.5392 112.34 17.8108 112.73 18.1811C113.121 18.5514 113.428 19.0323 113.654 19.6239C113.879 20.2115 113.992 20.9259 113.992 21.767V22.407H106.621V21.0547H112.223C112.223 20.5798 112.126 20.1592 111.933 19.793C111.74 19.4227 111.468 19.1309 111.118 18.9176C110.772 18.7043 110.366 18.5977 109.899 18.5977C109.392 18.5977 108.949 18.7224 108.571 18.9719C108.196 19.2174 107.907 19.5394 107.701 19.9379C107.5 20.3323 107.4 20.7609 107.4 21.2237V22.2802C107.4 22.9 107.508 23.4272 107.726 23.8619C107.947 24.2965 108.255 24.6285 108.649 24.8579C109.044 25.0833 109.504 25.196 110.032 25.196C110.374 25.196 110.686 25.1477 110.967 25.0511C111.249 24.9505 111.493 24.8016 111.698 24.6044C111.903 24.4072 112.06 24.1637 112.169 23.8739L113.877 24.1818C113.74 24.6849 113.495 25.1256 113.141 25.5039C112.791 25.8782 112.35 26.17 111.819 26.3793C111.291 26.5845 110.69 26.6871 110.014 26.6871ZM124.907 17.2273V18.6761H119.667V17.2273H124.907ZM121.103 26.5V16.1527C121.103 15.5732 121.23 15.0922 121.484 14.7099C121.737 14.3235 122.073 14.0357 122.492 13.8466C122.91 13.6534 123.365 13.5568 123.856 13.5568C124.218 13.5568 124.528 13.587 124.786 13.6474C125.043 13.7037 125.235 13.756 125.359 13.8043L124.937 15.2653C124.852 15.2411 124.744 15.2129 124.611 15.1808C124.478 15.1445 124.317 15.1264 124.128 15.1264C123.689 15.1264 123.375 15.2351 123.186 15.4524C123.001 15.6697 122.908 15.9837 122.908 16.3942V26.5H121.103ZM130.31 26.6871C129.44 26.6871 128.682 26.4879 128.034 26.0895C127.386 25.691 126.883 25.1336 126.525 24.4173C126.166 23.7009 125.987 22.8638 125.987 21.9059C125.987 20.944 126.166 20.1029 126.525 19.3825C126.883 18.662 127.386 18.1026 128.034 17.7042C128.682 17.3058 129.44 17.1065 130.31 17.1065C131.179 17.1065 131.938 17.3058 132.586 17.7042C133.234 18.1026 133.737 18.662 134.095 19.3825C134.453 20.1029 134.632 20.944 134.632 21.9059C134.632 22.8638 134.453 23.7009 134.095 24.4173C133.737 25.1336 133.234 25.691 132.586 26.0895C131.938 26.4879 131.179 26.6871 130.31 26.6871ZM130.316 25.1719C130.879 25.1719 131.346 25.023 131.716 24.7251C132.087 24.4273 132.36 24.0309 132.537 23.5359C132.718 23.0408 132.809 22.4955 132.809 21.8999C132.809 21.3082 132.718 20.7649 132.537 20.2699C132.36 19.7708 132.087 19.3704 131.716 19.0685C131.346 18.7667 130.879 18.6158 130.316 18.6158C129.748 18.6158 129.277 18.7667 128.903 19.0685C128.533 19.3704 128.257 19.7708 128.076 20.2699C127.899 20.7649 127.81 21.3082 127.81 21.8999C127.81 22.4955 127.899 23.0408 128.076 23.5359C128.257 24.0309 128.533 24.4273 128.903 24.7251C129.277 25.023 129.748 25.1719 130.316 25.1719ZM136.647 26.5V17.2273H138.392V18.7003H138.488C138.657 18.2012 138.955 17.8088 139.382 17.5231C139.812 17.2333 140.299 17.0884 140.843 17.0884C140.955 17.0884 141.088 17.0924 141.241 17.1005C141.398 17.1085 141.521 17.1186 141.609 17.1307V18.8572C141.537 18.8371 141.408 18.815 141.223 18.7908C141.038 18.7627 140.853 18.7486 140.668 18.7486C140.241 18.7486 139.861 18.8391 139.527 19.0202C139.197 19.1973 138.935 19.4448 138.742 19.7628C138.549 20.0767 138.452 20.4349 138.452 20.8374V26.5H136.647Z" fill="#E8E8E8"/>
<path d="M146.936 26.5V14.1364H155.375V16.5632H149.924V19.0987H154.838V21.5316H149.924V26.5H146.936ZM159.832 14.1364V26.5H156.88V14.1364H159.832ZM164.325 26.657C163.733 26.657 163.208 26.5584 162.749 26.3611C162.295 26.1599 161.934 25.8581 161.669 25.4556C161.407 25.0491 161.276 24.54 161.276 23.9283C161.276 23.4131 161.367 22.9785 161.548 22.6243C161.729 22.2701 161.979 21.9824 162.297 21.761C162.615 21.5397 162.981 21.3726 163.395 21.2599C163.81 21.1432 164.253 21.0647 164.723 21.0245C165.251 20.9762 165.675 20.9259 165.997 20.8736C166.319 20.8172 166.553 20.7388 166.698 20.6381C166.846 20.5335 166.921 20.3866 166.921 20.1974V20.1673C166.921 19.8574 166.814 19.6179 166.601 19.4489C166.388 19.2798 166.1 19.1953 165.738 19.1953C165.347 19.1953 165.033 19.2798 164.796 19.4489C164.558 19.6179 164.408 19.8513 164.343 20.1491L161.621 20.0526C161.701 19.4891 161.908 18.986 162.242 18.5433C162.58 18.0966 163.043 17.7464 163.631 17.4929C164.222 17.2353 164.933 17.1065 165.762 17.1065C166.353 17.1065 166.899 17.177 167.398 17.3178C167.897 17.4547 168.332 17.6559 168.702 17.9215C169.072 18.1831 169.358 18.5051 169.559 18.8874C169.764 19.2698 169.867 19.7064 169.867 20.1974V26.5H167.09V25.2081H167.018C166.853 25.522 166.641 25.7876 166.384 26.005C166.13 26.2223 165.83 26.3853 165.484 26.494C165.142 26.6026 164.756 26.657 164.325 26.657ZM165.237 24.7251C165.555 24.7251 165.84 24.6607 166.094 24.532C166.351 24.4032 166.557 24.2261 166.71 24.0007C166.863 23.7713 166.939 23.5057 166.939 23.2038V22.3224C166.855 22.3667 166.752 22.407 166.631 22.4432C166.514 22.4794 166.386 22.5136 166.245 22.5458C166.104 22.578 165.959 22.6062 165.81 22.6303C165.661 22.6545 165.518 22.6766 165.382 22.6967C165.104 22.741 164.866 22.8094 164.669 22.902C164.476 22.9946 164.327 23.1153 164.222 23.2642C164.122 23.4091 164.072 23.5821 164.072 23.7834C164.072 24.0892 164.18 24.3227 164.397 24.4837C164.619 24.6446 164.899 24.7251 165.237 24.7251ZM176.906 17.2273V19.4006H171.056V17.2273H176.906ZM172.282 15.0057H175.234V23.5842C175.234 23.7653 175.262 23.9122 175.318 24.0249C175.379 24.1335 175.465 24.212 175.578 24.2603C175.691 24.3046 175.825 24.3267 175.982 24.3267C176.095 24.3267 176.214 24.3166 176.339 24.2965C176.467 24.2724 176.564 24.2522 176.628 24.2361L177.075 26.3672C176.934 26.4074 176.735 26.4577 176.477 26.5181C176.224 26.5785 175.92 26.6167 175.566 26.6328C174.874 26.665 174.28 26.5845 173.785 26.3913C173.294 26.1941 172.918 25.8883 172.656 25.4737C172.398 25.0592 172.274 24.538 172.282 23.9102V15.0057ZM178.412 29.9773V17.2273H181.334V18.815H181.425C181.545 18.5333 181.716 18.2616 181.938 18C182.163 17.7384 182.449 17.5251 182.795 17.3601C183.145 17.191 183.564 17.1065 184.051 17.1065C184.695 17.1065 185.296 17.2756 185.856 17.6136C186.419 17.9517 186.874 18.4729 187.22 19.1772C187.566 19.8815 187.739 20.779 187.739 21.8697C187.739 22.9201 187.572 23.7995 187.238 24.5078C186.908 25.2161 186.461 25.7474 185.898 26.1016C185.339 26.4557 184.717 26.6328 184.033 26.6328C183.566 26.6328 183.161 26.5563 182.819 26.4034C182.477 26.2505 182.189 26.0492 181.956 25.7997C181.727 25.5502 181.549 25.2825 181.425 24.9968H181.364V29.9773H178.412ZM181.304 21.8636C181.304 22.3627 181.37 22.7973 181.503 23.1676C181.64 23.5379 181.835 23.8256 182.089 24.0309C182.346 24.2321 182.654 24.3327 183.012 24.3327C183.375 24.3327 183.682 24.2321 183.936 24.0309C184.19 23.8256 184.381 23.5379 184.51 23.1676C184.642 22.7973 184.709 22.3627 184.709 21.8636C184.709 21.3646 184.642 20.9319 184.51 20.5657C184.381 20.1995 184.19 19.9157 183.936 19.7145C183.686 19.5133 183.379 19.4126 183.012 19.4126C182.65 19.4126 182.342 19.5112 182.089 19.7084C181.835 19.9057 181.64 20.1874 181.503 20.5536C181.37 20.9199 181.304 21.3565 181.304 21.8636ZM191.9 26.657C191.309 26.657 190.783 26.5584 190.325 26.3611C189.87 26.1599 189.51 25.8581 189.244 25.4556C188.982 25.0491 188.852 24.54 188.852 23.9283C188.852 23.4131 188.942 22.9785 189.123 22.6243C189.304 22.2701 189.554 21.9824 189.872 21.761C190.19 21.5397 190.556 21.3726 190.971 21.2599C191.385 21.1432 191.828 21.0647 192.299 21.0245C192.826 20.9762 193.251 20.9259 193.572 20.8736C193.894 20.8172 194.128 20.7388 194.273 20.6381C194.422 20.5335 194.496 20.3866 194.496 20.1974V20.1673C194.496 19.8574 194.389 19.6179 194.176 19.4489C193.963 19.2798 193.675 19.1953 193.313 19.1953C192.922 19.1953 192.609 19.2798 192.371 19.4489C192.134 19.6179 191.983 19.8513 191.918 20.1491L189.196 20.0526C189.276 19.4891 189.483 18.986 189.818 18.5433C190.156 18.0966 190.618 17.7464 191.206 17.4929C191.798 17.2353 192.508 17.1065 193.337 17.1065C193.929 17.1065 194.474 17.177 194.973 17.3178C195.472 17.4547 195.907 17.6559 196.277 17.9215C196.647 18.1831 196.933 18.5051 197.134 18.8874C197.34 19.2698 197.442 19.7064 197.442 20.1974V26.5H194.665V25.2081H194.593C194.428 25.522 194.216 25.7876 193.959 26.005C193.705 26.2223 193.405 26.3853 193.059 26.494C192.717 26.6026 192.331 26.657 191.9 26.657ZM192.812 24.7251C193.13 24.7251 193.416 24.6607 193.669 24.532C193.927 24.4032 194.132 24.2261 194.285 24.0007C194.438 23.7713 194.514 23.5057 194.514 23.2038V22.3224C194.43 22.3667 194.327 22.407 194.206 22.4432C194.09 22.4794 193.961 22.5136 193.82 22.5458C193.679 22.578 193.534 22.6062 193.385 22.6303C193.236 22.6545 193.094 22.6766 192.957 22.6967C192.679 22.741 192.442 22.8094 192.244 22.902C192.051 22.9946 191.902 23.1153 191.798 23.2642C191.697 23.4091 191.647 23.5821 191.647 23.7834C191.647 24.0892 191.755 24.3227 191.973 24.4837C192.194 24.6446 192.474 24.7251 192.812 24.7251ZM201.909 24.0671L201.922 20.5476H202.332L204.94 17.2273H208.284L204.409 21.9844H203.63L201.909 24.0671ZM199.247 26.5V14.1364H202.199V26.5H199.247ZM205.006 26.5L202.58 22.6484L204.523 20.5536L208.417 26.5H205.006Z" fill="white"/>
</g>
</g>
<rect x="1.07143" y="1.07143" width="214.857" height="37.8571" rx="6.92857" stroke="black" stroke-opacity="0.15" stroke-width="2.14286"/>
<defs>
<filter id="filter0_d_1_56" x="2.28571" y="-0.414282" width="39.4286" height="40.8285" filterUnits="userSpaceOnUse" color-interpolation-filters="sRGB">
<feFlood flood-opacity="0" result="BackgroundImageFix"/>
<feColorMatrix in="SourceAlpha" type="matrix" values="0 0 0 0 0 0 0 0 0 0 0 0 0 0 0 0 0 0 127 0" result="hardAlpha"/>
<feOffset/>
<feGaussianBlur stdDeviation="2.85714"/>
<feComposite in2="hardAlpha" operator="out"/>
<feColorMatrix type="matrix" values="0 0 0 0 0 0 0 0 0 0 0 0 0 0 0 0 0 0 0.25 0"/>
<feBlend mode="normal" in2="BackgroundImageFix" result="effect1_dropShadow_1_56"/>
<feBlend mode="normal" in="SourceGraphic" in2="effect1_dropShadow_1_56" result="shape"/>
</filter>
<filter id="filter1_d_1_56" x="36.2857" y="3.78571" width="178.429" height="32.4286" filterUnits="userSpaceOnUse" color-interpolation-filters="sRGB">
<feFlood flood-opacity="0" result="BackgroundImageFix"/>
<feColorMatrix in="SourceAlpha" type="matrix" values="0 0 0 0 0 0 0 0 0 0 0 0 0 0 0 0 0 0 127 0" result="hardAlpha"/>
<feOffset/>
<feGaussianBlur stdDeviation="2.85714"/>
<feComposite in2="hardAlpha" operator="out"/>
<feColorMatrix type="matrix" values="0 0 0 0 0 0 0 0 0 0 0 0 0 0 0 0 0 0 0.25 0"/>
<feBlend mode="normal" in2="BackgroundImageFix" result="effect1_dropShadow_1_56"/>
<feBlend mode="normal" in="SourceGraphic" in2="effect1_dropShadow_1_56" result="shape"/>
</filter>
<linearGradient id="paint0_linear_1_56" x1="108.5" y1="0" x2="108.5" y2="40" gradientUnits="userSpaceOnUse">
<stop stop-color="#4A90D9"/>
<stop offset="1" stop-color="#24486D"/>
</linearGradient>
<clipPath id="clip0_1_56">
<rect width="217" height="40" rx="8" fill="white"/>
</clipPath>
<clipPath id="clip1_1_56">
<rect width="26.6" height="29.3999" fill="white" transform="translate(8.7 5.3)"/>
</clipPath>
</defs>
</svg>
