<svg width="217" height="40" viewBox="0 0 217 40" fill="none" xmlns="http://www.w3.org/2000/svg">
<rect width="217" height="40" rx="8" fill="url(#paint0_linear_1_56)"/>
<rect x="1.07143" y="1.07143" width="214.857" height="37.8571" rx="6.92857" stroke="white" stroke-opacity="0.15" stroke-width="2.14286"/>
<g filter="url(#filter0_d_1_56)">
<g clip-path="url(#clip0_1_56)">
<path d="M14.4456 18.9906C18.0055 18.9906 20.8913 16.0829 20.8913 12.4961C20.8913 8.90933 18.0055 6.00166 14.4456 6.00166C10.8858 6.00166 7.99999 8.90933 7.99999 12.4961C7.99999 16.0829 10.8858 18.9906 14.4456 18.9906Z" fill="white"/>
<path d="M17.121 21.2195H11.6648C9.94287 21.2195 8.54698 22.626 8.54698 24.3609V29.8586C8.54698 31.5935 9.94287 33 11.6648 33H17.121C18.843 33 20.2389 31.5935 20.2389 29.8586V24.3609C20.2389 22.626 18.843 21.2195 17.121 21.2195Z" fill="white"/>
<path d="M35.0691 10.8665L33.8946 10.1832L27.1356 6.25132C26.8526 6.08669 26.5316 6.00001 26.2048 6C25.878 6 25.557 6.08666 25.274 6.25129C24.991 6.41592 24.756 6.6527 24.5926 6.93785C24.4292 7.22299 24.3432 7.54645 24.3432 7.87571L24.3433 17.1059C24.3433 17.4351 24.4294 17.7586 24.5927 18.0437C24.7561 18.3288 24.9911 18.5656 25.2741 18.7302C25.5571 18.8949 25.8781 18.9815 26.2049 18.9815C26.5317 18.9815 26.8527 18.8949 27.1357 18.7302L35.0692 14.1153C35.3522 13.9507 35.5872 13.7139 35.7506 13.4288C35.914 13.1436 36 12.8202 36 12.4909C36 12.1616 35.914 11.8382 35.7506 11.553C35.5872 11.2679 35.3521 11.0311 35.0691 10.8665Z" fill="white"/>
<path d="M34.6065 27.1844C34.6065 27.8157 34.1021 28.3239 33.4756 28.3239H24.4281C23.8016 28.3239 23.2972 27.8157 23.2972 27.1844C23.2972 26.5531 23.8016 26.0449 24.4281 26.0449H33.4756C34.1021 26.0449 34.6065 26.5531 34.6065 27.1844ZM28.9518 21.4869C29.5784 21.4869 30.0828 21.9951 30.0828 22.6264V31.7424C30.0828 32.3737 29.5784 32.8819 28.9518 32.8819C28.3253 32.8819 27.8209 32.3737 27.8209 31.7424V22.6264C27.8209 21.9951 28.3253 21.4869 28.9518 21.4869Z" fill="white"/>
</g>
</g>
<g filter="url(#filter1_d_1_56)">
<path d="M44.4027 26.5H42.4226L46.8718 14.1364H49.027L53.4762 26.5H51.4961L48.0007 16.3821H47.9041L44.4027 26.5ZM44.7347 21.6584H51.158V23.228H44.7347V21.6584ZM61.8871 17.2273L58.5246 26.5H56.5928L53.2242 17.2273H55.162L57.5104 24.3629H57.607L59.9493 17.2273H61.8871ZM66.0164 26.7053C65.4288 26.7053 64.8976 26.5966 64.4227 26.3793C63.9478 26.1579 63.5715 25.8379 63.2938 25.4194C63.0201 25.0008 62.8832 24.4877 62.8832 23.88C62.8832 23.3568 62.9839 22.9261 63.1851 22.5881C63.3863 22.25 63.658 21.9824 64.0001 21.7852C64.3422 21.5879 64.7245 21.439 65.1471 21.3384C65.5697 21.2378 66.0003 21.1613 66.439 21.109C66.9944 21.0446 67.4451 20.9923 67.7913 20.9521C68.1374 20.9078 68.3889 20.8374 68.5459 20.7408C68.7028 20.6442 68.7813 20.4872 68.7813 20.2699V20.2276C68.7813 19.7004 68.6324 19.2919 68.3346 19.0021C68.0408 18.7124 67.6021 18.5675 67.0185 18.5675C66.4108 18.5675 65.9319 18.7023 65.5818 18.9719C65.2356 19.2376 64.9962 19.5334 64.8634 19.8594L63.167 19.473C63.3682 18.9096 63.662 18.4548 64.0484 18.1087C64.4388 17.7585 64.8875 17.505 65.3946 17.348C65.9017 17.187 66.435 17.1065 66.9944 17.1065C67.3647 17.1065 67.7571 17.1508 68.1716 17.2393C68.5902 17.3239 68.9805 17.4808 69.3428 17.7102C69.709 17.9396 70.0088 18.2676 70.2423 18.6942C70.4757 19.1168 70.5924 19.6662 70.5924 20.3423V26.5H68.8296V25.2322H68.7572C68.6405 25.4657 68.4654 25.6951 68.232 25.9204C67.9985 26.1458 67.6987 26.333 67.3325 26.4819C66.9662 26.6308 66.5275 26.7053 66.0164 26.7053ZM66.4088 25.2564C66.9079 25.2564 67.3345 25.1578 67.6886 24.9606C68.0468 24.7634 68.3185 24.5058 68.5036 24.1879C68.6928 23.8659 68.7874 23.5218 68.7874 23.1555V21.9602C68.723 22.0246 68.5982 22.085 68.4131 22.1413C68.232 22.1937 68.0247 22.2399 67.7913 22.2802C67.5578 22.3164 67.3304 22.3506 67.1091 22.3828C66.8877 22.411 66.7026 22.4351 66.5537 22.4553C66.2036 22.4995 65.8836 22.574 65.5938 22.6786C65.3081 22.7833 65.0787 22.9342 64.9056 23.1314C64.7366 23.3246 64.6521 23.5821 64.6521 23.9041C64.6521 24.3508 64.8171 24.6889 65.1471 24.9183C65.4771 25.1437 65.8977 25.2564 66.4088 25.2564ZM72.9966 26.5V17.2273H74.8017V26.5H72.9966ZM73.9082 15.7965C73.5943 15.7965 73.3246 15.6919 73.0992 15.4826C72.8779 15.2693 72.7672 15.0157 72.7672 14.7219C72.7672 14.4241 72.8779 14.1706 73.0992 13.9613C73.3246 13.748 73.5943 13.6413 73.9082 13.6413C74.2221 13.6413 74.4897 13.748 74.7111 13.9613C74.9365 14.1706 75.0492 14.4241 75.0492 14.7219C75.0492 15.0157 74.9365 15.2693 74.7111 15.4826C74.4897 15.6919 74.2221 15.7965 73.9082 15.7965ZM79.035 14.1364V26.5H77.23V14.1364H79.035ZM84.1619 26.7053C83.5743 26.7053 83.0431 26.5966 82.5682 26.3793C82.0933 26.1579 81.717 25.8379 81.4393 25.4194C81.1656 25.0008 81.0287 24.4877 81.0287 23.88C81.0287 23.3568 81.1294 22.9261 81.3306 22.5881C81.5318 22.25 81.8035 21.9824 82.1456 21.7852C82.4877 21.5879 82.87 21.439 83.2926 21.3384C83.7152 21.2378 84.1458 21.1613 84.5845 21.109C85.1399 21.0446 85.5907 20.9923 85.9368 20.9521C86.2829 20.9078 86.5344 20.8374 86.6914 20.7408C86.8483 20.6442 86.9268 20.4872 86.9268 20.2699V20.2276C86.9268 19.7004 86.7779 19.2919 86.4801 19.0021C86.1863 18.7124 85.7476 18.5675 85.164 18.5675C84.5563 18.5675 84.0774 18.7023 83.7273 18.9719C83.3811 19.2376 83.1417 19.5334 83.0089 19.8594L81.3125 19.473C81.5137 18.9096 81.8075 18.4548 82.1939 18.1087C82.5843 17.7585 83.033 17.505 83.5401 17.348C84.0472 17.187 84.5805 17.1065 85.1399 17.1065C85.5102 17.1065 85.9026 17.1508 86.3171 17.2393C86.7357 17.3239 87.126 17.4808 87.4883 17.7102C87.8545 17.9396 88.1543 18.2676 88.3878 18.6942C88.6212 19.1168 88.7379 19.6662 88.7379 20.3423V26.5H86.9751V25.2322H86.9027C86.786 25.4657 86.6109 25.6951 86.3775 25.9204C86.144 26.1458 85.8442 26.333 85.478 26.4819C85.1117 26.6308 84.673 26.7053 84.1619 26.7053ZM84.5543 25.2564C85.0534 25.2564 85.48 25.1578 85.8341 24.9606C86.1923 24.7634 86.464 24.5058 86.6491 24.1879C86.8383 23.8659 86.9329 23.5218 86.9329 23.1555V21.9602C86.8685 22.0246 86.7437 22.085 86.5586 22.1413C86.3775 22.1937 86.1702 22.2399 85.9368 22.2802C85.7033 22.3164 85.476 22.3506 85.2546 22.3828C85.0332 22.411 84.8481 22.4351 84.6992 22.4553C84.3491 22.4995 84.0291 22.574 83.7393 22.6786C83.4536 22.7833 83.2242 22.9342 83.0511 23.1314C82.8821 23.3246 82.7976 23.5821 82.7976 23.9041C82.7976 24.3508 82.9626 24.6889 83.2926 24.9183C83.6226 25.1437 84.0432 25.2564 84.5543 25.2564ZM91.287 26.5V14.1364H93.092V18.7305H93.2007C93.3053 18.5373 93.4563 18.3139 93.6535 18.0604C93.8507 17.8068 94.1244 17.5855 94.4745 17.3963C94.8246 17.2031 95.2875 17.1065 95.863 17.1065C96.6116 17.1065 97.2797 17.2957 97.8673 17.674C98.4548 18.0523 98.9157 18.5977 99.2497 19.31C99.5878 20.0224 99.7568 20.8796 99.7568 21.8817C99.7568 22.8839 99.5898 23.7431 99.2557 24.4595C98.9217 25.1719 98.4629 25.7212 97.8793 26.1076C97.2958 26.4899 96.6297 26.6811 95.8811 26.6811C95.3177 26.6811 94.8568 26.5865 94.4986 26.3974C94.1445 26.2082 93.8668 25.9869 93.6655 25.7333C93.4643 25.4798 93.3094 25.2544 93.2007 25.0572H93.0498V26.5H91.287ZM93.0558 21.8636C93.0558 22.5156 93.1504 23.0871 93.3396 23.5781C93.5287 24.0691 93.8024 24.4535 94.1606 24.7312C94.5188 25.0048 94.9575 25.1417 95.4766 25.1417C96.0159 25.1417 96.4667 24.9988 96.8289 24.7131C97.1911 24.4233 97.4648 24.0309 97.6499 23.5359C97.8391 23.0408 97.9337 22.4834 97.9337 21.8636C97.9337 21.2519 97.8411 20.7025 97.656 20.2156C97.4749 19.7286 97.2012 19.3442 96.8349 19.0625C96.4727 18.7808 96.02 18.6399 95.4766 18.6399C94.9534 18.6399 94.5107 18.7747 94.1485 19.0444C93.7903 19.314 93.5187 19.6903 93.3335 20.1733C93.1484 20.6562 93.0558 21.2197 93.0558 21.8636ZM103.589 14.1364V26.5H101.784V14.1364H103.589ZM110.014 26.6871C109.1 26.6871 108.313 26.4919 107.653 26.1016C106.997 25.7071 106.49 25.1538 106.132 24.4414C105.778 23.725 105.601 22.8859 105.601 21.924C105.601 20.9742 105.778 20.1371 106.132 19.4126C106.49 18.6882 106.989 18.1227 107.629 17.7163C108.273 17.3098 109.026 17.1065 109.887 17.1065C110.41 17.1065 110.917 17.1931 111.408 17.3661C111.899 17.5392 112.34 17.8108 112.73 18.1811C113.121 18.5514 113.428 19.0323 113.654 19.6239C113.879 20.2115 113.992 20.9259 113.992 21.767V22.407H106.621V21.0547H112.223C112.223 20.5798 112.126 20.1592 111.933 19.793C111.74 19.4227 111.468 19.1309 111.118 18.9176C110.772 18.7043 110.366 18.5977 109.899 18.5977C109.392 18.5977 108.949 18.7224 108.571 18.9719C108.196 19.2174 107.907 19.5394 107.701 19.9379C107.5 20.3323 107.4 20.7609 107.4 21.2237V22.2802C107.4 22.9 107.508 23.4272 107.726 23.8619C107.947 24.2965 108.255 24.6285 108.649 24.8579C109.044 25.0833 109.504 25.196 110.032 25.196C110.374 25.196 110.686 25.1477 110.967 25.0511C111.249 24.9505 111.493 24.8016 111.698 24.6044C111.903 24.4072 112.06 24.1637 112.169 23.8739L113.877 24.1818C113.74 24.6849 113.495 25.1256 113.141 25.5039C112.791 25.8782 112.35 26.17 111.819 26.3793C111.291 26.5845 110.69 26.6871 110.014 26.6871ZM124.4 26.6871C123.53 26.6871 122.772 26.4879 122.124 26.0895C121.476 25.691 120.973 25.1336 120.614 24.4173C120.256 23.7009 120.077 22.8638 120.077 21.9059C120.077 20.944 120.256 20.1029 120.614 19.3825C120.973 18.662 121.476 18.1026 122.124 17.7042C122.772 17.3058 123.53 17.1065 124.4 17.1065C125.269 17.1065 126.028 17.3058 126.675 17.7042C127.323 18.1026 127.827 18.662 128.185 19.3825C128.543 20.1029 128.722 20.944 128.722 21.9059C128.722 22.8638 128.543 23.7009 128.185 24.4173C127.827 25.1336 127.323 25.691 126.675 26.0895C126.028 26.4879 125.269 26.6871 124.4 26.6871ZM124.406 25.1719C124.969 25.1719 125.436 25.023 125.806 24.7251C126.176 24.4273 126.45 24.0309 126.627 23.5359C126.808 23.0408 126.899 22.4955 126.899 21.8999C126.899 21.3082 126.808 20.7649 126.627 20.2699C126.45 19.7708 126.176 19.3704 125.806 19.0685C125.436 18.7667 124.969 18.6158 124.406 18.6158C123.838 18.6158 123.367 18.7667 122.993 19.0685C122.623 19.3704 122.347 19.7708 122.166 20.2699C121.989 20.7649 121.9 21.3082 121.9 21.8999C121.9 22.4955 121.989 23.0408 122.166 23.5359C122.347 24.0309 122.623 24.4273 122.993 24.7251C123.367 25.023 123.838 25.1719 124.406 25.1719ZM132.542 20.9943V26.5H130.737V17.2273H132.469V18.7365H132.584C132.797 18.2455 133.131 17.8511 133.586 17.5533C134.045 17.2554 134.623 17.1065 135.319 17.1065C135.951 17.1065 136.504 17.2393 136.979 17.505C137.454 17.7666 137.822 18.157 138.084 18.6761C138.345 19.1953 138.476 19.8372 138.476 20.6019V26.5H136.671V20.8192C136.671 20.1471 136.496 19.6219 136.146 19.2436C135.796 18.8613 135.315 18.6701 134.703 18.6701C134.285 18.6701 133.912 18.7607 133.586 18.9418C133.264 19.1229 133.009 19.3885 132.82 19.7386C132.634 20.0848 132.542 20.5033 132.542 20.9943Z" fill="white"/>
<path d="M144.936 26.5V14.1364H153.375V16.5632H147.924V19.0987H152.838V21.5316H147.924V26.5H144.936ZM157.832 14.1364V26.5H154.88V14.1364H157.832ZM162.325 26.657C161.733 26.657 161.208 26.5584 160.749 26.3611C160.295 26.1599 159.934 25.8581 159.669 25.4556C159.407 25.0491 159.276 24.54 159.276 23.9283C159.276 23.4131 159.367 22.9785 159.548 22.6243C159.729 22.2701 159.979 21.9824 160.297 21.761C160.615 21.5397 160.981 21.3726 161.395 21.2599C161.81 21.1432 162.253 21.0647 162.724 21.0245C163.251 20.9762 163.675 20.9259 163.997 20.8736C164.319 20.8172 164.553 20.7388 164.698 20.6381C164.846 20.5335 164.921 20.3866 164.921 20.1974V20.1673C164.921 19.8574 164.814 19.6179 164.601 19.4489C164.388 19.2798 164.1 19.1953 163.738 19.1953C163.347 19.1953 163.033 19.2798 162.796 19.4489C162.558 19.6179 162.408 19.8513 162.343 20.1491L159.621 20.0526C159.701 19.4891 159.908 18.986 160.242 18.5433C160.58 18.0966 161.043 17.7464 161.631 17.4929C162.222 17.2353 162.933 17.1065 163.762 17.1065C164.353 17.1065 164.899 17.177 165.398 17.3178C165.897 17.4547 166.332 17.6559 166.702 17.9215C167.072 18.1831 167.358 18.5051 167.559 18.8874C167.764 19.2698 167.867 19.7064 167.867 20.1974V26.5H165.09V25.2081H165.018C164.853 25.522 164.641 25.7876 164.384 26.005C164.13 26.2223 163.83 26.3853 163.484 26.494C163.142 26.6026 162.756 26.657 162.325 26.657ZM163.237 24.7251C163.555 24.7251 163.84 24.6607 164.094 24.532C164.351 24.4032 164.557 24.2261 164.71 24.0007C164.863 23.7713 164.939 23.5057 164.939 23.2038V22.3224C164.855 22.3667 164.752 22.407 164.631 22.4432C164.514 22.4794 164.386 22.5136 164.245 22.5458C164.104 22.578 163.959 22.6062 163.81 22.6303C163.661 22.6545 163.518 22.6766 163.382 22.6967C163.104 22.741 162.866 22.8094 162.669 22.902C162.476 22.9946 162.327 23.1153 162.222 23.2642C162.122 23.4091 162.072 23.5821 162.072 23.7834C162.072 24.0892 162.18 24.3227 162.398 24.4837C162.619 24.6446 162.899 24.7251 163.237 24.7251ZM174.906 17.2273V19.4006H169.056V17.2273H174.906ZM170.282 15.0057H173.234V23.5842C173.234 23.7653 173.262 23.9122 173.318 24.0249C173.379 24.1335 173.465 24.212 173.578 24.2603C173.691 24.3046 173.825 24.3267 173.982 24.3267C174.095 24.3267 174.214 24.3166 174.339 24.2965C174.467 24.2724 174.564 24.2522 174.628 24.2361L175.075 26.3672C174.934 26.4074 174.735 26.4577 174.477 26.5181C174.224 26.5785 173.92 26.6167 173.566 26.6328C172.874 26.665 172.28 26.5845 171.785 26.3913C171.294 26.1941 170.918 25.8883 170.656 25.4737C170.398 25.0592 170.274 24.538 170.282 23.9102V15.0057ZM179.564 21.2116V26.5H176.611V14.1364H179.467V18.9297H179.57C179.779 18.3582 180.121 17.9115 180.596 17.5895C181.075 17.2675 181.66 17.1065 182.353 17.1065C183.005 17.1065 183.572 17.2514 184.055 17.5412C184.538 17.8269 184.912 18.2314 185.178 18.7546C185.448 19.2778 185.58 19.8896 185.576 20.5898V26.5H182.624V21.1694C182.628 20.6542 182.499 20.2518 182.238 19.962C181.976 19.6722 181.608 19.5273 181.133 19.5273C180.823 19.5273 180.55 19.5958 180.312 19.7326C180.079 19.8654 179.896 20.0566 179.763 20.3061C179.634 20.5556 179.568 20.8575 179.564 21.2116ZM193.402 22.4975V17.2273H196.348V26.5H193.534V24.7734H193.438C193.233 25.3409 192.883 25.7917 192.387 26.1257C191.896 26.4557 191.303 26.6207 190.607 26.6207C189.975 26.6207 189.419 26.4758 188.94 26.1861C188.461 25.8963 188.089 25.4918 187.824 24.9727C187.558 24.4495 187.423 23.8377 187.419 23.1374V17.2273H190.371V22.5579C190.375 23.061 190.508 23.4574 190.77 23.7472C191.031 24.0369 191.387 24.1818 191.838 24.1818C192.132 24.1818 192.396 24.1174 192.629 23.9886C192.866 23.8558 193.054 23.6646 193.19 23.4151C193.331 23.1616 193.402 22.8557 193.402 22.4975ZM198.227 26.5V14.1364H201.179V18.815H201.239C201.36 18.5333 201.531 18.2616 201.752 18C201.978 17.7384 202.263 17.5251 202.61 17.3601C202.96 17.191 203.378 17.1065 203.865 17.1065C204.509 17.1065 205.111 17.2756 205.67 17.6136C206.234 17.9517 206.688 18.4729 207.035 19.1772C207.381 19.8815 207.554 20.779 207.554 21.8697C207.554 22.9201 207.387 23.7995 207.053 24.5078C206.723 25.2161 206.276 25.7474 205.712 26.1016C205.153 26.4557 204.531 26.6328 203.847 26.6328C203.38 26.6328 202.976 26.5563 202.634 26.4034C202.292 26.2505 202.004 26.0492 201.77 25.7997C201.541 25.5502 201.364 25.2825 201.239 24.9968H201.149V26.5H198.227ZM201.118 21.8636C201.118 22.3627 201.185 22.7973 201.318 23.1676C201.454 23.5379 201.65 23.8256 201.903 24.0309C202.161 24.2321 202.469 24.3327 202.827 24.3327C203.189 24.3327 203.497 24.2321 203.75 24.0309C204.004 23.8256 204.195 23.5379 204.324 23.1676C204.457 22.7973 204.523 22.3627 204.523 21.8636C204.523 21.3646 204.457 20.9319 204.324 20.5657C204.195 20.1995 204.004 19.9157 203.75 19.7145C203.501 19.5133 203.193 19.4126 202.827 19.4126C202.465 19.4126 202.157 19.5112 201.903 19.7084C201.65 19.9057 201.454 20.1874 201.318 20.5536C201.185 20.9199 201.118 21.3565 201.118 21.8636Z" fill="#F7F7F7"/>
</g>
<defs>
<filter id="filter0_d_1_56" x="2.28571" y="0.285715" width="39.4286" height="39.4286" filterUnits="userSpaceOnUse" color-interpolation-filters="sRGB">
<feFlood flood-opacity="0" result="BackgroundImageFix"/>
<feColorMatrix in="SourceAlpha" type="matrix" values="0 0 0 0 0 0 0 0 0 0 0 0 0 0 0 0 0 0 127 0" result="hardAlpha"/>
<feOffset/>
<feGaussianBlur stdDeviation="2.85714"/>
<feComposite in2="hardAlpha" operator="out"/>
<feColorMatrix type="matrix" values="0 0 0 0 0 0 0 0 0 0 0 0 0 0 0 0 0 0 0.25 0"/>
<feBlend mode="normal" in2="BackgroundImageFix" result="effect1_dropShadow_1_56"/>
<feBlend mode="normal" in="SourceGraphic" in2="effect1_dropShadow_1_56" result="shape"/>
</filter>
<filter id="filter1_d_1_56" x="36.2857" y="3.78571" width="178.429" height="32.4286" filterUnits="userSpaceOnUse" color-interpolation-filters="sRGB">
<feFlood flood-opacity="0" result="BackgroundImageFix"/>
<feColorMatrix in="SourceAlpha" type="matrix" values="0 0 0 0 0 0 0 0 0 0 0 0 0 0 0 0 0 0 127 0" result="hardAlpha"/>
<feOffset/>
<feGaussianBlur stdDeviation="2.85714"/>
<feComposite in2="hardAlpha" operator="out"/>
<feColorMatrix type="matrix" values="0 0 0 0 0 0 0 0 0 0 0 0 0 0 0 0 0 0 0.25 0"/>
<feBlend mode="normal" in2="BackgroundImageFix" result="effect1_dropShadow_1_56"/>
<feBlend mode="normal" in="SourceGraphic" in2="effect1_dropShadow_1_56" result="shape"/>
</filter>
<linearGradient id="paint0_linear_1_56" x1="108.5" y1="0" x2="108.5" y2="40" gradientUnits="userSpaceOnUse">
<stop stop-color="#4A90D9"/>
<stop offset="1" stop-color="#24486D"/>
</linearGradient>
<clipPath id="clip0_1_56">
<rect width="28" height="27" fill="white" transform="translate(8 6)"/>
</clipPath>
</defs>
</svg>
