<svg width="217" height="40" viewBox="0 0 217 40" fill="none" xmlns="http://www.w3.org/2000/svg">
<g clip-path="url(#clip0_1_56)">
<rect width="217" height="40" rx="8" fill="url(#paint0_linear_1_56)"/>
<g filter="url(#filter0_d_1_56)">
<g clip-path="url(#clip1_1_56)">
<path d="M31.1 5.3H12.9V34.7H31.1V5.3Z" fill="#E95420"/>
<path d="M17.0614 26.0432C18.1019 26.0432 18.9454 25.1777 18.9454 24.1101C18.9454 23.0425 18.1019 22.1771 17.0614 22.1771C16.0208 22.1771 15.1773 23.0425 15.1773 24.1101C15.1773 25.1777 16.0208 26.0432 17.0614 26.0432Z" fill="white"/>
<path d="M24.9085 21.8044C25.949 21.8044 26.7925 20.939 26.7925 19.8714C26.7925 18.8038 25.949 17.9383 24.9085 17.9383C23.8679 17.9383 23.0244 18.8038 23.0244 19.8714C23.0244 20.939 23.8679 21.8044 24.9085 21.8044Z" fill="white"/>
<path d="M21.3109 29.0861C19.9533 28.7877 18.8193 27.8983 18.1818 26.6371C17.6796 26.8715 17.1144 26.9428 16.5707 26.8399C17.3422 28.784 18.9784 30.1959 20.9871 30.6377C21.4276 30.7347 21.8768 30.7817 22.3252 30.7788C21.9792 30.3121 21.7865 29.749 21.7736 29.1625C21.6182 29.1449 21.4634 29.1191 21.3116 29.0853L21.3109 29.0861Z" fill="white"/>
<path d="M24.4844 31.0294C25.5249 31.0294 26.3684 30.164 26.3684 29.0964C26.3684 28.0288 25.5249 27.1633 24.4844 27.1633C23.4438 27.1633 22.6003 28.0288 22.6003 29.0964C22.6003 30.164 23.4438 31.0294 24.4844 31.0294Z" fill="white"/>
<path d="M27.1063 28.3864C27.6922 27.6286 28.1049 26.7326 28.3033 25.7808C28.65 24.1204 28.3262 22.3785 27.415 20.9658C27.198 21.4906 26.8297 21.9338 26.3555 22.2388C26.8641 23.2222 27.0189 24.3571 26.7911 25.4486C26.6793 25.9829 26.4823 26.4864 26.2051 26.9465C26.6485 27.3199 26.9616 27.8219 27.107 28.3871L27.1063 28.3864Z" fill="white"/>
<path d="M16.916 21.3377C16.964 21.3348 17.0119 21.334 17.0592 21.334C17.2498 21.334 17.4396 21.3546 17.628 21.3965C17.9353 21.4641 18.224 21.5832 18.4884 21.7522C19.3366 20.5005 20.7055 19.7494 22.1884 19.7214C22.1963 19.5752 22.2156 19.4296 22.245 19.2863C22.3317 18.8725 22.5079 18.4852 22.7601 18.1537C20.3903 17.9611 18.0879 19.2158 16.9152 21.3384L16.916 21.3377Z" fill="white"/>
</g>
</g>
<g filter="url(#filter1_d_1_56)">
<path d="M44.4027 26.5H42.4226L46.8718 14.1364H49.027L53.4762 26.5H51.4961L48.0007 16.3821H47.9041L44.4027 26.5ZM44.7347 21.6584H51.158V23.228H44.7347V21.6584ZM61.8871 17.2273L58.5246 26.5H56.5928L53.2242 17.2273H55.162L57.5104 24.3629H57.607L59.9493 17.2273H61.8871ZM66.0164 26.7053C65.4288 26.7053 64.8976 26.5966 64.4227 26.3793C63.9478 26.1579 63.5715 25.8379 63.2938 25.4194C63.0201 25.0008 62.8832 24.4877 62.8832 23.88C62.8832 23.3568 62.9839 22.9261 63.1851 22.5881C63.3863 22.25 63.658 21.9824 64.0001 21.7852C64.3422 21.5879 64.7245 21.439 65.1471 21.3384C65.5697 21.2378 66.0003 21.1613 66.439 21.109C66.9944 21.0446 67.4451 20.9923 67.7913 20.9521C68.1374 20.9078 68.3889 20.8374 68.5459 20.7408C68.7028 20.6442 68.7813 20.4872 68.7813 20.2699V20.2276C68.7813 19.7004 68.6324 19.2919 68.3346 19.0021C68.0408 18.7124 67.6021 18.5675 67.0185 18.5675C66.4108 18.5675 65.9319 18.7023 65.5818 18.9719C65.2356 19.2376 64.9962 19.5334 64.8634 19.8594L63.167 19.473C63.3682 18.9096 63.662 18.4548 64.0484 18.1087C64.4388 17.7585 64.8875 17.505 65.3946 17.348C65.9017 17.187 66.435 17.1065 66.9944 17.1065C67.3647 17.1065 67.7571 17.1508 68.1716 17.2393C68.5902 17.3239 68.9805 17.4808 69.3428 17.7102C69.709 17.9396 70.0088 18.2676 70.2423 18.6942C70.4757 19.1168 70.5924 19.6662 70.5924 20.3423V26.5H68.8296V25.2322H68.7572C68.6405 25.4657 68.4654 25.6951 68.232 25.9204C67.9985 26.1458 67.6987 26.333 67.3325 26.4819C66.9662 26.6308 66.5275 26.7053 66.0164 26.7053ZM66.4088 25.2564C66.9079 25.2564 67.3345 25.1578 67.6886 24.9606C68.0468 24.7634 68.3185 24.5058 68.5036 24.1879C68.6928 23.8659 68.7874 23.5218 68.7874 23.1555V21.9602C68.723 22.0246 68.5982 22.085 68.4131 22.1413C68.232 22.1937 68.0247 22.2399 67.7913 22.2802C67.5578 22.3164 67.3304 22.3506 67.1091 22.3828C66.8877 22.411 66.7026 22.4351 66.5537 22.4553C66.2036 22.4995 65.8836 22.574 65.5938 22.6786C65.3081 22.7833 65.0787 22.9342 64.9056 23.1314C64.7366 23.3246 64.6521 23.5821 64.6521 23.9041C64.6521 24.3508 64.8171 24.6889 65.1471 24.9183C65.4771 25.1437 65.8977 25.2564 66.4088 25.2564ZM72.9966 26.5V17.2273H74.8017V26.5H72.9966ZM73.9082 15.7965C73.5943 15.7965 73.3246 15.6919 73.0992 15.4826C72.8779 15.2693 72.7672 15.0157 72.7672 14.7219C72.7672 14.4241 72.8779 14.1706 73.0992 13.9613C73.3246 13.748 73.5943 13.6413 73.9082 13.6413C74.2221 13.6413 74.4897 13.748 74.7111 13.9613C74.9365 14.1706 75.0492 14.4241 75.0492 14.7219C75.0492 15.0157 74.9365 15.2693 74.7111 15.4826C74.4897 15.6919 74.2221 15.7965 73.9082 15.7965ZM79.035 14.1364V26.5H77.23V14.1364H79.035ZM84.1619 26.7053C83.5743 26.7053 83.0431 26.5966 82.5682 26.3793C82.0933 26.1579 81.717 25.8379 81.4393 25.4194C81.1656 25.0008 81.0287 24.4877 81.0287 23.88C81.0287 23.3568 81.1294 22.9261 81.3306 22.5881C81.5318 22.25 81.8035 21.9824 82.1456 21.7852C82.4877 21.5879 82.87 21.439 83.2926 21.3384C83.7152 21.2378 84.1458 21.1613 84.5845 21.109C85.1399 21.0446 85.5907 20.9923 85.9368 20.9521C86.2829 20.9078 86.5344 20.8374 86.6914 20.7408C86.8483 20.6442 86.9268 20.4872 86.9268 20.2699V20.2276C86.9268 19.7004 86.7779 19.2919 86.4801 19.0021C86.1863 18.7124 85.7476 18.5675 85.164 18.5675C84.5563 18.5675 84.0774 18.7023 83.7273 18.9719C83.3811 19.2376 83.1417 19.5334 83.0089 19.8594L81.3125 19.473C81.5137 18.9096 81.8075 18.4548 82.1939 18.1087C82.5843 17.7585 83.033 17.505 83.5401 17.348C84.0472 17.187 84.5805 17.1065 85.1399 17.1065C85.5102 17.1065 85.9026 17.1508 86.3171 17.2393C86.7357 17.3239 87.126 17.4808 87.4883 17.7102C87.8545 17.9396 88.1543 18.2676 88.3878 18.6942C88.6212 19.1168 88.7379 19.6662 88.7379 20.3423V26.5H86.9751V25.2322H86.9027C86.786 25.4657 86.6109 25.6951 86.3775 25.9204C86.144 26.1458 85.8442 26.333 85.478 26.4819C85.1117 26.6308 84.673 26.7053 84.1619 26.7053ZM84.5543 25.2564C85.0534 25.2564 85.48 25.1578 85.8341 24.9606C86.1923 24.7634 86.464 24.5058 86.6491 24.1879C86.8383 23.8659 86.9329 23.5218 86.9329 23.1555V21.9602C86.8685 22.0246 86.7437 22.085 86.5586 22.1413C86.3775 22.1937 86.1702 22.2399 85.9368 22.2802C85.7033 22.3164 85.476 22.3506 85.2546 22.3828C85.0332 22.411 84.8481 22.4351 84.6992 22.4553C84.3491 22.4995 84.0291 22.574 83.7393 22.6786C83.4536 22.7833 83.2242 22.9342 83.0511 23.1314C82.8821 23.3246 82.7976 23.5821 82.7976 23.9041C82.7976 24.3508 82.9626 24.6889 83.2926 24.9183C83.6226 25.1437 84.0432 25.2564 84.5543 25.2564ZM91.287 26.5V14.1364H93.092V18.7305H93.2007C93.3053 18.5373 93.4563 18.3139 93.6535 18.0604C93.8507 17.8068 94.1244 17.5855 94.4745 17.3963C94.8246 17.2031 95.2875 17.1065 95.863 17.1065C96.6116 17.1065 97.2797 17.2957 97.8673 17.674C98.4548 18.0523 98.9157 18.5977 99.2497 19.31C99.5878 20.0224 99.7568 20.8796 99.7568 21.8817C99.7568 22.8839 99.5898 23.7431 99.2557 24.4595C98.9217 25.1719 98.4629 25.7212 97.8793 26.1076C97.2958 26.4899 96.6297 26.6811 95.8811 26.6811C95.3177 26.6811 94.8568 26.5865 94.4986 26.3974C94.1445 26.2082 93.8668 25.9869 93.6655 25.7333C93.4643 25.4798 93.3094 25.2544 93.2007 25.0572H93.0498V26.5H91.287ZM93.0558 21.8636C93.0558 22.5156 93.1504 23.0871 93.3396 23.5781C93.5287 24.0691 93.8024 24.4535 94.1606 24.7312C94.5188 25.0048 94.9575 25.1417 95.4766 25.1417C96.0159 25.1417 96.4667 24.9988 96.8289 24.7131C97.1911 24.4233 97.4648 24.0309 97.6499 23.5359C97.8391 23.0408 97.9337 22.4834 97.9337 21.8636C97.9337 21.2519 97.8411 20.7025 97.656 20.2156C97.4749 19.7286 97.2012 19.3442 96.8349 19.0625C96.4727 18.7808 96.02 18.6399 95.4766 18.6399C94.9534 18.6399 94.5107 18.7747 94.1485 19.0444C93.7903 19.314 93.5187 19.6903 93.3335 20.1733C93.1484 20.6562 93.0558 21.2197 93.0558 21.8636ZM103.589 14.1364V26.5H101.784V14.1364H103.589ZM110.014 26.6871C109.1 26.6871 108.313 26.4919 107.653 26.1016C106.997 25.7071 106.49 25.1538 106.132 24.4414C105.778 23.725 105.601 22.8859 105.601 21.924C105.601 20.9742 105.778 20.1371 106.132 19.4126C106.49 18.6882 106.989 18.1227 107.629 17.7163C108.273 17.3098 109.026 17.1065 109.887 17.1065C110.41 17.1065 110.917 17.1931 111.408 17.3661C111.899 17.5392 112.34 17.8108 112.73 18.1811C113.121 18.5514 113.428 19.0323 113.654 19.6239C113.879 20.2115 113.992 20.9259 113.992 21.767V22.407H106.621V21.0547H112.223C112.223 20.5798 112.126 20.1592 111.933 19.793C111.74 19.4227 111.468 19.1309 111.118 18.9176C110.772 18.7043 110.366 18.5977 109.899 18.5977C109.392 18.5977 108.949 18.7224 108.571 18.9719C108.196 19.2174 107.907 19.5394 107.701 19.9379C107.5 20.3323 107.4 20.7609 107.4 21.2237V22.2802C107.4 22.9 107.508 23.4272 107.726 23.8619C107.947 24.2965 108.255 24.6285 108.649 24.8579C109.044 25.0833 109.504 25.196 110.032 25.196C110.374 25.196 110.686 25.1477 110.967 25.0511C111.249 24.9505 111.493 24.8016 111.698 24.6044C111.903 24.4072 112.06 24.1637 112.169 23.8739L113.877 24.1818C113.74 24.6849 113.495 25.1256 113.141 25.5039C112.791 25.8782 112.35 26.17 111.819 26.3793C111.291 26.5845 110.69 26.6871 110.014 26.6871ZM124.907 17.2273V18.6761H119.667V17.2273H124.907ZM121.103 26.5V16.1527C121.103 15.5732 121.23 15.0922 121.484 14.7099C121.737 14.3235 122.073 14.0357 122.492 13.8466C122.91 13.6534 123.365 13.5568 123.856 13.5568C124.218 13.5568 124.528 13.587 124.786 13.6474C125.043 13.7037 125.235 13.756 125.359 13.8043L124.937 15.2653C124.852 15.2411 124.744 15.2129 124.611 15.1808C124.478 15.1445 124.317 15.1264 124.128 15.1264C123.689 15.1264 123.375 15.2351 123.186 15.4524C123.001 15.6697 122.908 15.9837 122.908 16.3942V26.5H121.103ZM130.31 26.6871C129.44 26.6871 128.682 26.4879 128.034 26.0895C127.386 25.691 126.883 25.1336 126.525 24.4173C126.166 23.7009 125.987 22.8638 125.987 21.9059C125.987 20.944 126.166 20.1029 126.525 19.3825C126.883 18.662 127.386 18.1026 128.034 17.7042C128.682 17.3058 129.44 17.1065 130.31 17.1065C131.179 17.1065 131.938 17.3058 132.586 17.7042C133.234 18.1026 133.737 18.662 134.095 19.3825C134.453 20.1029 134.632 20.944 134.632 21.9059C134.632 22.8638 134.453 23.7009 134.095 24.4173C133.737 25.1336 133.234 25.691 132.586 26.0895C131.938 26.4879 131.179 26.6871 130.31 26.6871ZM130.316 25.1719C130.879 25.1719 131.346 25.023 131.716 24.7251C132.087 24.4273 132.36 24.0309 132.537 23.5359C132.718 23.0408 132.809 22.4955 132.809 21.8999C132.809 21.3082 132.718 20.7649 132.537 20.2699C132.36 19.7708 132.087 19.3704 131.716 19.0685C131.346 18.7667 130.879 18.6158 130.316 18.6158C129.748 18.6158 129.277 18.7667 128.903 19.0685C128.533 19.3704 128.257 19.7708 128.076 20.2699C127.899 20.7649 127.81 21.3082 127.81 21.8999C127.81 22.4955 127.899 23.0408 128.076 23.5359C128.257 24.0309 128.533 24.4273 128.903 24.7251C129.277 25.023 129.748 25.1719 130.316 25.1719ZM136.647 26.5V17.2273H138.392V18.7003H138.488C138.657 18.2012 138.955 17.8088 139.382 17.5231C139.812 17.2333 140.299 17.0884 140.843 17.0884C140.955 17.0884 141.088 17.0924 141.241 17.1005C141.398 17.1085 141.521 17.1186 141.609 17.1307V18.8572C141.537 18.8371 141.408 18.815 141.223 18.7908C141.038 18.7627 140.853 18.7486 140.668 18.7486C140.241 18.7486 139.861 18.8391 139.527 19.0202C139.197 19.1973 138.935 19.4448 138.742 19.7628C138.549 20.0767 138.452 20.4349 138.452 20.8374V26.5H136.647Z" fill="#E8E8E8"/>
<path d="M154.415 14.1364H157.398V22.1111C157.398 23.0328 157.178 23.8357 156.74 24.5199C156.301 25.2 155.689 25.7273 154.904 26.1016C154.12 26.4718 153.208 26.657 152.17 26.657C151.119 26.657 150.202 26.4718 149.417 26.1016C148.632 25.7273 148.022 25.2 147.588 24.5199C147.153 23.8357 146.936 23.0328 146.936 22.1111V14.1364H149.924V21.8516C149.924 22.2782 150.017 22.6585 150.202 22.9925C150.391 23.3266 150.654 23.5882 150.992 23.7773C151.331 23.9665 151.723 24.0611 152.17 24.0611C152.616 24.0611 153.007 23.9665 153.341 23.7773C153.679 23.5882 153.943 23.3266 154.132 22.9925C154.321 22.6585 154.415 22.2782 154.415 21.8516V14.1364ZM159.271 26.5V14.1364H162.223V18.815H162.283C162.404 18.5333 162.575 18.2616 162.796 18C163.022 17.7384 163.307 17.5251 163.653 17.3601C164.004 17.191 164.422 17.1065 164.909 17.1065C165.553 17.1065 166.155 17.2756 166.714 17.6136C167.278 17.9517 167.732 18.4729 168.079 19.1772C168.425 19.8815 168.598 20.779 168.598 21.8697C168.598 22.9201 168.431 23.7995 168.097 24.5078C167.767 25.2161 167.32 25.7474 166.756 26.1016C166.197 26.4557 165.575 26.6328 164.891 26.6328C164.424 26.6328 164.02 26.5563 163.678 26.4034C163.336 26.2505 163.048 26.0492 162.814 25.7997C162.585 25.5502 162.408 25.2825 162.283 24.9968H162.193V26.5H159.271ZM162.162 21.8636C162.162 22.3627 162.229 22.7973 162.362 23.1676C162.498 23.5379 162.694 23.8256 162.947 24.0309C163.205 24.2321 163.513 24.3327 163.871 24.3327C164.233 24.3327 164.541 24.2321 164.794 24.0309C165.048 23.8256 165.239 23.5379 165.368 23.1676C165.501 22.7973 165.567 22.3627 165.567 21.8636C165.567 21.3646 165.501 20.9319 165.368 20.5657C165.239 20.1995 165.048 19.9157 164.794 19.7145C164.545 19.5133 164.237 19.4126 163.871 19.4126C163.509 19.4126 163.201 19.5112 162.947 19.7084C162.694 19.9057 162.498 20.1874 162.362 20.5536C162.229 20.9199 162.162 21.3565 162.162 21.8636ZM176.127 22.4975V17.2273H179.073V26.5H176.26V24.7734H176.163C175.958 25.3409 175.608 25.7917 175.113 26.1257C174.622 26.4557 174.028 26.6207 173.332 26.6207C172.7 26.6207 172.145 26.4758 171.666 26.1861C171.187 25.8963 170.815 25.4918 170.549 24.9727C170.284 24.4495 170.149 23.8377 170.145 23.1374V17.2273H173.097V22.5579C173.101 23.061 173.234 23.4574 173.495 23.7472C173.757 24.0369 174.113 24.1818 174.564 24.1818C174.857 24.1818 175.121 24.1174 175.355 23.9886C175.592 23.8558 175.779 23.6646 175.916 23.4151C176.057 23.1616 176.127 22.8557 176.127 22.4975ZM183.904 21.2116V26.5H180.952V17.2273H183.759V18.9297H183.862C184.067 18.3622 184.417 17.9175 184.912 17.5955C185.408 17.2695 185.997 17.1065 186.681 17.1065C187.333 17.1065 187.899 17.2534 188.378 17.5472C188.861 17.837 189.235 18.2435 189.501 18.7667C189.77 19.2859 189.903 19.8936 189.899 20.5898V26.5H186.947V21.1694C186.951 20.6542 186.82 20.2518 186.555 19.962C186.293 19.6722 185.929 19.5273 185.462 19.5273C185.152 19.5273 184.878 19.5958 184.641 19.7326C184.407 19.8654 184.226 20.0566 184.098 20.3061C183.973 20.5556 183.908 20.8575 183.904 21.2116ZM196.961 17.2273V19.4006H191.111V17.2273H196.961ZM192.336 15.0057H195.288V23.5842C195.288 23.7653 195.317 23.9122 195.373 24.0249C195.433 24.1335 195.52 24.212 195.633 24.2603C195.745 24.3046 195.88 24.3267 196.037 24.3267C196.15 24.3267 196.268 24.3166 196.393 24.2965C196.522 24.2724 196.619 24.2522 196.683 24.2361L197.13 26.3672C196.989 26.4074 196.79 26.4577 196.532 26.5181C196.279 26.5785 195.975 26.6167 195.621 26.6328C194.928 26.665 194.335 26.5845 193.84 26.3913C193.349 26.1941 192.972 25.8883 192.711 25.4737C192.453 25.0592 192.328 24.538 192.336 23.9102V15.0057ZM204.45 22.4975V17.2273H207.396V26.5H204.582V24.7734H204.486C204.28 25.3409 203.93 25.7917 203.435 26.1257C202.944 26.4557 202.351 26.6207 201.654 26.6207C201.023 26.6207 200.467 26.4758 199.988 26.1861C199.509 25.8963 199.137 25.4918 198.871 24.9727C198.606 24.4495 198.471 23.8377 198.467 23.1374V17.2273H201.419V22.5579C201.423 23.061 201.556 23.4574 201.817 23.7472C202.079 24.0369 202.435 24.1818 202.886 24.1818C203.18 24.1818 203.443 24.1174 203.677 23.9886C203.914 23.8558 204.101 23.6646 204.238 23.4151C204.379 23.1616 204.45 22.8557 204.45 22.4975Z" fill="#F22F21"/>
</g>
</g>
<rect x="1.07143" y="1.07143" width="214.857" height="37.8571" rx="6.92857" stroke="white" stroke-opacity="0.15" stroke-width="2.14286"/>
<defs>
<filter id="filter0_d_1_56" x="2.28571" y="-0.414282" width="39.4286" height="40.8286" filterUnits="userSpaceOnUse" color-interpolation-filters="sRGB">
<feFlood flood-opacity="0" result="BackgroundImageFix"/>
<feColorMatrix in="SourceAlpha" type="matrix" values="0 0 0 0 0 0 0 0 0 0 0 0 0 0 0 0 0 0 127 0" result="hardAlpha"/>
<feOffset/>
<feGaussianBlur stdDeviation="2.85714"/>
<feComposite in2="hardAlpha" operator="out"/>
<feColorMatrix type="matrix" values="0 0 0 0 0 0 0 0 0 0 0 0 0 0 0 0 0 0 0.25 0"/>
<feBlend mode="normal" in2="BackgroundImageFix" result="effect1_dropShadow_1_56"/>
<feBlend mode="normal" in="SourceGraphic" in2="effect1_dropShadow_1_56" result="shape"/>
</filter>
<filter id="filter1_d_1_56" x="36.2857" y="3.78571" width="178.429" height="32.4286" filterUnits="userSpaceOnUse" color-interpolation-filters="sRGB">
<feFlood flood-opacity="0" result="BackgroundImageFix"/>
<feColorMatrix in="SourceAlpha" type="matrix" values="0 0 0 0 0 0 0 0 0 0 0 0 0 0 0 0 0 0 127 0" result="hardAlpha"/>
<feOffset/>
<feGaussianBlur stdDeviation="2.85714"/>
<feComposite in2="hardAlpha" operator="out"/>
<feColorMatrix type="matrix" values="0 0 0 0 0 0 0 0 0 0 0 0 0 0 0 0 0 0 0.25 0"/>
<feBlend mode="normal" in2="BackgroundImageFix" result="effect1_dropShadow_1_56"/>
<feBlend mode="normal" in="SourceGraphic" in2="effect1_dropShadow_1_56" result="shape"/>
</filter>
<linearGradient id="paint0_linear_1_56" x1="108.5" y1="0" x2="108.5" y2="40" gradientUnits="userSpaceOnUse">
<stop stop-color="#300E0C"/>
<stop offset="1" stop-color="#200908"/>
</linearGradient>
<clipPath id="clip0_1_56">
<rect width="217" height="40" rx="8" fill="white"/>
</clipPath>
<clipPath id="clip1_1_56">
<rect width="18.2" height="29.4" fill="white" transform="translate(12.9 5.3)"/>
</clipPath>
</defs>
</svg>
