<svg width="165" height="58" viewBox="0 0 165 58" fill="none" xmlns="http://www.w3.org/2000/svg">
<rect width="165" height="58" rx="8" fill="url(#paint0_linear_1_50)"/>
<rect x="1.05" y="1.05" width="162.9" height="55.9" rx="6.95" stroke="white" stroke-opacity="0.15" stroke-width="2.1"/>
<g clip-path="url(#clip0_1_50)">
<path d="M47.9309 19.2554L47.9309 38.7446L31 48.4892V29L47.9309 19.2554Z" fill="white"/>
<path d="M31 29V9.51084L14.0691 19.2554L31 29Z" fill="white"/>
<path d="M14.8264 16.438C13.0753 17.4458 12 19.3025 12 21.3181V36.6821C12 38.6977 13.0753 40.5544 14.8264 41.5622L28.1736 49.2442C29.9247 50.2521 32.0753 50.2521 33.8264 49.2442L47.1736 41.5622C48.9247 40.5544 50 38.6977 50 36.6821V21.3181C50 19.3025 48.9247 17.4458 47.1736 16.438L33.8264 8.75598C32.0753 7.74815 29.9247 7.74815 28.1736 8.75598L14.8264 16.438ZM31.7573 12.3285L45.1045 20.0105C45.571 20.279 45.8618 20.7811 45.8618 21.3181V36.6821C45.8618 37.2191 45.571 37.7212 45.1045 37.9897L31.7573 45.6717C31.2908 45.9402 30.7092 45.9402 30.2426 45.6717L16.8954 37.9897C16.4289 37.7212 16.1381 37.2191 16.1381 36.6821V21.3181C16.1381 20.7811 16.4289 20.279 16.8954 20.0105L30.2426 12.3285C30.7092 12.06 31.2908 12.06 31.7573 12.3285Z" fill="white"/>
</g>
<g filter="url(#filter0_d_1_50)">
<path d="M60.2614 25.5H58.3977L62.5852 13.8636H64.6136L68.8011 25.5H66.9375L63.6477 15.9773H63.5568L60.2614 25.5ZM60.5739 20.9432H66.6193V22.4205H60.5739V20.9432ZM76.7173 16.7727L73.5525 25.5H71.7344L68.5639 16.7727H70.3878L72.598 23.4886H72.6889L74.8935 16.7727H76.7173ZM80.6037 25.6932C80.0506 25.6932 79.5506 25.5909 79.1037 25.3864C78.6567 25.178 78.3025 24.8769 78.0412 24.483C77.7836 24.089 77.6548 23.6061 77.6548 23.0341C77.6548 22.5417 77.7495 22.1364 77.9389 21.8182C78.1283 21.5 78.384 21.2481 78.706 21.0625C79.0279 20.8769 79.3878 20.7367 79.7855 20.642C80.1832 20.5473 80.5885 20.4754 81.0014 20.4261C81.5241 20.3655 81.9484 20.3163 82.2741 20.2784C82.5999 20.2367 82.8366 20.1705 82.9844 20.0795C83.1321 19.9886 83.206 19.8409 83.206 19.6364V19.5966C83.206 19.1004 83.0658 18.7159 82.7855 18.4432C82.509 18.1705 82.0961 18.0341 81.5469 18.0341C80.9749 18.0341 80.5241 18.161 80.1946 18.4148C79.8688 18.6648 79.6435 18.9432 79.5185 19.25L77.9219 18.8864C78.1113 18.3561 78.3878 17.928 78.7514 17.6023C79.1188 17.2727 79.5412 17.0341 80.0185 16.8864C80.4957 16.7348 80.9976 16.6591 81.5241 16.6591C81.8726 16.6591 82.2419 16.7008 82.6321 16.7841C83.026 16.8636 83.3935 17.0114 83.7344 17.2273C84.0791 17.4432 84.3613 17.7519 84.581 18.1534C84.8006 18.5511 84.9105 19.0682 84.9105 19.7045V25.5H83.2514V24.3068H83.1832C83.0734 24.5265 82.9086 24.7424 82.6889 24.9545C82.4692 25.1667 82.187 25.3428 81.8423 25.483C81.4976 25.6231 81.0847 25.6932 80.6037 25.6932ZM80.973 24.3295C81.4427 24.3295 81.8442 24.2367 82.1775 24.0511C82.5147 23.8655 82.7703 23.6231 82.9446 23.3239C83.1226 23.0208 83.2116 22.697 83.2116 22.3523V21.2273C83.151 21.2879 83.0336 21.3447 82.8594 21.3977C82.6889 21.447 82.4938 21.4905 82.2741 21.5284C82.0544 21.5625 81.8404 21.5947 81.6321 21.625C81.4238 21.6515 81.2495 21.6742 81.1094 21.6932C80.7798 21.7348 80.4787 21.8049 80.206 21.9034C79.937 22.0019 79.7211 22.1439 79.5582 22.3295C79.3991 22.5114 79.3196 22.7538 79.3196 23.0568C79.3196 23.4773 79.4749 23.7955 79.7855 24.0114C80.0961 24.2235 80.4919 24.3295 80.973 24.3295ZM87.1733 25.5V16.7727H88.8721V25.5H87.1733ZM88.0312 15.4261C87.7358 15.4261 87.482 15.3277 87.2699 15.1307C87.0615 14.9299 86.9574 14.6913 86.9574 14.4148C86.9574 14.1345 87.0615 13.8958 87.2699 13.6989C87.482 13.4981 87.7358 13.3977 88.0312 13.3977C88.3267 13.3977 88.5786 13.4981 88.7869 13.6989C88.999 13.8958 89.1051 14.1345 89.1051 14.4148C89.1051 14.6913 88.999 14.9299 88.7869 15.1307C88.5786 15.3277 88.3267 15.4261 88.0312 15.4261ZM92.8565 13.8636V25.5H91.1577V13.8636H92.8565ZM97.6818 25.6932C97.1288 25.6932 96.6288 25.5909 96.1818 25.3864C95.7348 25.178 95.3807 24.8769 95.1193 24.483C94.8617 24.089 94.7329 23.6061 94.7329 23.0341C94.7329 22.5417 94.8276 22.1364 95.017 21.8182C95.2064 21.5 95.4621 21.2481 95.7841 21.0625C96.106 20.8769 96.4659 20.7367 96.8636 20.642C97.2613 20.5473 97.6666 20.4754 98.0795 20.4261C98.6023 20.3655 99.0265 20.3163 99.3523 20.2784C99.678 20.2367 99.9148 20.1705 100.062 20.0795C100.21 19.9886 100.284 19.8409 100.284 19.6364V19.5966C100.284 19.1004 100.144 18.7159 99.8636 18.4432C99.5871 18.1705 99.1742 18.0341 98.625 18.0341C98.053 18.0341 97.6023 18.161 97.2727 18.4148C96.947 18.6648 96.7216 18.9432 96.5966 19.25L95 18.8864C95.1894 18.3561 95.4659 17.928 95.8295 17.6023C96.197 17.2727 96.6193 17.0341 97.0966 16.8864C97.5738 16.7348 98.0757 16.6591 98.6023 16.6591C98.9507 16.6591 99.3201 16.7008 99.7102 16.7841C100.104 16.8636 100.472 17.0114 100.812 17.2273C101.157 17.4432 101.439 17.7519 101.659 18.1534C101.879 18.5511 101.989 19.0682 101.989 19.7045V25.5H100.33V24.3068H100.261C100.151 24.5265 99.9867 24.7424 99.767 24.9545C99.5473 25.1667 99.2651 25.3428 98.9204 25.483C98.5757 25.6231 98.1629 25.6932 97.6818 25.6932ZM98.0511 24.3295C98.5208 24.3295 98.9223 24.2367 99.2557 24.0511C99.5928 23.8655 99.8485 23.6231 100.023 23.3239C100.201 23.0208 100.29 22.697 100.29 22.3523V21.2273C100.229 21.2879 100.112 21.3447 99.9375 21.3977C99.767 21.447 99.5719 21.4905 99.3523 21.5284C99.1326 21.5625 98.9185 21.5947 98.7102 21.625C98.5019 21.6515 98.3276 21.6742 98.1875 21.6932C97.8579 21.7348 97.5568 21.8049 97.2841 21.9034C97.0151 22.0019 96.7992 22.1439 96.6363 22.3295C96.4773 22.5114 96.3977 22.7538 96.3977 23.0568C96.3977 23.4773 96.553 23.7955 96.8636 24.0114C97.1742 24.2235 97.5701 24.3295 98.0511 24.3295ZM104.388 25.5V13.8636H106.087V18.1875H106.189C106.287 18.0057 106.429 17.7955 106.615 17.5568C106.801 17.3182 107.058 17.1098 107.388 16.9318C107.717 16.75 108.153 16.6591 108.695 16.6591C109.399 16.6591 110.028 16.8371 110.581 17.1932C111.134 17.5492 111.568 18.0625 111.882 18.733C112.2 19.4034 112.359 20.2102 112.359 21.1534C112.359 22.0966 112.202 22.9053 111.888 23.5795C111.573 24.25 111.142 24.767 110.592 25.1307C110.043 25.4905 109.416 25.6705 108.712 25.6705C108.181 25.6705 107.748 25.5814 107.41 25.4034C107.077 25.2254 106.816 25.017 106.626 24.7784C106.437 24.5398 106.291 24.3277 106.189 24.142H106.047V25.5H104.388ZM106.053 21.1364C106.053 21.75 106.142 22.2879 106.32 22.75C106.498 23.2121 106.755 23.5739 107.092 23.8352C107.429 24.0928 107.842 24.2216 108.331 24.2216C108.839 24.2216 109.263 24.0871 109.604 23.8182C109.945 23.5455 110.202 23.1761 110.376 22.7102C110.554 22.2443 110.643 21.7197 110.643 21.1364C110.643 20.5606 110.556 20.0436 110.382 19.5852C110.212 19.1269 109.954 18.7652 109.609 18.5C109.268 18.2348 108.842 18.1023 108.331 18.1023C107.839 18.1023 107.422 18.2292 107.081 18.483C106.744 18.7367 106.488 19.0909 106.314 19.5455C106.14 20 106.053 20.5303 106.053 21.1364ZM115.966 13.8636V25.5H114.267V13.8636H115.966ZM122.013 25.6761C121.153 25.6761 120.412 25.4924 119.791 25.125C119.174 24.7538 118.696 24.233 118.359 23.5625C118.026 22.8883 117.859 22.0985 117.859 21.1932C117.859 20.2992 118.026 19.5114 118.359 18.8295C118.696 18.1477 119.166 17.6155 119.768 17.233C120.375 16.8504 121.083 16.6591 121.893 16.6591C122.386 16.6591 122.863 16.7405 123.325 16.9034C123.787 17.0663 124.202 17.322 124.57 17.6705C124.937 18.0189 125.227 18.4716 125.439 19.0284C125.651 19.5814 125.757 20.2538 125.757 21.0455V21.6477H118.82V20.375H124.092C124.092 19.928 124.001 19.5322 123.82 19.1875C123.638 18.839 123.382 18.5644 123.053 18.3636C122.727 18.1629 122.344 18.0625 121.905 18.0625C121.428 18.0625 121.011 18.1799 120.655 18.4148C120.303 18.6458 120.03 18.9489 119.837 19.3239C119.647 19.6951 119.553 20.0985 119.553 20.5341V21.5284C119.553 22.1117 119.655 22.608 119.859 23.017C120.068 23.4261 120.357 23.7386 120.729 23.9545C121.1 24.1667 121.534 24.2727 122.03 24.2727C122.352 24.2727 122.645 24.2273 122.91 24.1364C123.176 24.0417 123.405 23.9015 123.598 23.7159C123.791 23.5303 123.939 23.3011 124.041 23.0284L125.649 23.3182C125.52 23.7917 125.289 24.2064 124.956 24.5625C124.626 24.9148 124.212 25.1894 123.712 25.3864C123.215 25.5795 122.649 25.6761 122.013 25.6761ZM136.03 16.7727V18.1364H131.098V16.7727H136.03ZM132.45 25.5V15.7614C132.45 15.2159 132.57 14.7633 132.808 14.4034C133.047 14.0398 133.363 13.7689 133.757 13.5909C134.151 13.4091 134.579 13.3182 135.041 13.3182C135.382 13.3182 135.674 13.3466 135.916 13.4034C136.159 13.4564 136.339 13.5057 136.456 13.5511L136.058 14.9261C135.979 14.9034 135.876 14.8769 135.751 14.8466C135.626 14.8125 135.475 14.7955 135.297 14.7955C134.884 14.7955 134.589 14.8977 134.41 15.1023C134.236 15.3068 134.149 15.6023 134.149 15.9886V25.5H132.45ZM141.115 25.6761C140.297 25.6761 139.583 25.4886 138.973 25.1136C138.363 24.7386 137.89 24.214 137.553 23.5398C137.215 22.8655 137.047 22.0777 137.047 21.1761C137.047 20.2708 137.215 19.4792 137.553 18.8011C137.89 18.1231 138.363 17.5966 138.973 17.2216C139.583 16.8466 140.297 16.6591 141.115 16.6591C141.933 16.6591 142.647 16.8466 143.257 17.2216C143.867 17.5966 144.34 18.1231 144.678 18.8011C145.015 19.4792 145.183 20.2708 145.183 21.1761C145.183 22.0777 145.015 22.8655 144.678 23.5398C144.34 24.214 143.867 24.7386 143.257 25.1136C142.647 25.4886 141.933 25.6761 141.115 25.6761ZM141.121 24.25C141.651 24.25 142.09 24.1098 142.439 23.8295C142.787 23.5492 143.045 23.1761 143.212 22.7102C143.382 22.2443 143.467 21.7311 143.467 21.1705C143.467 20.6136 143.382 20.1023 143.212 19.6364C143.045 19.1667 142.787 18.7898 142.439 18.5057C142.09 18.2216 141.651 18.0795 141.121 18.0795C140.587 18.0795 140.143 18.2216 139.791 18.5057C139.443 18.7898 139.183 19.1667 139.013 19.6364C138.846 20.1023 138.763 20.6136 138.763 21.1705C138.763 21.7311 138.846 22.2443 139.013 22.7102C139.183 23.1761 139.443 23.5492 139.791 23.8295C140.143 24.1098 140.587 24.25 141.121 24.25ZM147.08 25.5V16.7727H148.722V18.1591H148.812C148.972 17.6894 149.252 17.3201 149.653 17.0511C150.059 16.7784 150.517 16.642 151.028 16.642C151.134 16.642 151.259 16.6458 151.403 16.6534C151.551 16.661 151.667 16.6705 151.75 16.6818V18.3068C151.682 18.2879 151.561 18.267 151.386 18.2443C151.212 18.2178 151.038 18.2045 150.864 18.2045C150.462 18.2045 150.104 18.2898 149.79 18.4602C149.479 18.6269 149.233 18.8598 149.051 19.1591C148.869 19.4545 148.778 19.7917 148.778 20.1705V25.5H147.08Z" fill="white"/>
<path d="M58.9357 44.5V32.1364H67.3753V34.5632H61.924V37.0987H66.8381V39.5316H61.924V44.5H58.9357ZM71.8321 32.1364V44.5H68.88V32.1364H71.8321ZM76.3251 44.657C75.7335 44.657 75.2083 44.5584 74.7495 44.3611C74.2947 44.1599 73.9345 43.8581 73.6688 43.4556C73.4072 43.0491 73.2764 42.54 73.2764 41.9283C73.2764 41.4131 73.367 40.9785 73.5481 40.6243C73.7292 40.2701 73.9787 39.9824 74.2967 39.761C74.6146 39.5396 74.9809 39.3726 75.3954 39.2599C75.8099 39.1432 76.2527 39.0647 76.7235 39.0245C77.2508 38.9762 77.6754 38.9259 77.9973 38.8736C78.3193 38.8172 78.5527 38.7388 78.6976 38.6381C78.8465 38.5335 78.921 38.3866 78.921 38.1974V38.1673C78.921 37.8574 78.8143 37.6179 78.601 37.4489C78.3877 37.2798 78.1 37.1953 77.7377 37.1953C77.3473 37.1953 77.0334 37.2798 76.796 37.4489C76.5585 37.6179 76.4076 37.8513 76.3432 38.1491L73.6205 38.0526C73.701 37.4891 73.9083 36.986 74.2424 36.5433C74.5804 36.0966 75.0433 35.7464 75.6308 35.4929C76.2225 35.2353 76.9328 35.1065 77.7619 35.1065C78.3535 35.1065 78.8988 35.177 79.3979 35.3178C79.8969 35.4547 80.3316 35.6559 80.7019 35.9215C81.0721 36.1831 81.3579 36.5051 81.5591 36.8874C81.7644 37.2698 81.867 37.7064 81.867 38.1974V44.5H79.09V43.2081H79.0176C78.8526 43.522 78.6413 43.7876 78.3837 44.005C78.1301 44.2223 77.8303 44.3853 77.4842 44.494C77.1421 44.6026 76.7557 44.657 76.3251 44.657ZM77.2367 42.7251C77.5546 42.7251 77.8404 42.6607 78.0939 42.532C78.3515 42.4032 78.5567 42.2261 78.7097 42.0007C78.8626 41.7713 78.9391 41.5057 78.9391 41.2038V40.3224C78.8546 40.3667 78.7519 40.407 78.6312 40.4432C78.5145 40.4794 78.3857 40.5136 78.2448 40.5458C78.104 40.578 77.9591 40.6062 77.8102 40.6303C77.6613 40.6545 77.5184 40.6766 77.3816 40.6967C77.1039 40.741 76.8664 40.8094 76.6692 40.902C76.476 40.9945 76.3271 41.1153 76.2225 41.2642C76.1219 41.4091 76.0715 41.5821 76.0715 41.7834C76.0715 42.0892 76.1802 42.3227 76.3975 42.4837C76.6189 42.6446 76.8986 42.7251 77.2367 42.7251ZM88.9061 35.2273V37.4006H83.0563V35.2273H88.9061ZM84.2818 33.0057H87.2338V41.5842C87.2338 41.7653 87.262 41.9122 87.3183 42.0249C87.3787 42.1335 87.4652 42.212 87.5779 42.2603C87.6906 42.3046 87.8254 42.3267 87.9824 42.3267C88.0951 42.3267 88.2138 42.3166 88.3386 42.2965C88.4674 42.2724 88.564 42.2522 88.6284 42.2361L89.0751 44.3672C88.9342 44.4074 88.735 44.4577 88.4774 44.5181C88.2239 44.5785 87.92 44.6167 87.5659 44.6328C86.8736 44.665 86.28 44.5845 85.785 44.3913C85.294 44.1941 84.9177 43.8883 84.6561 43.4737C84.3985 43.0592 84.2737 42.538 84.2818 41.9102V33.0057ZM90.4123 47.9773V35.2273H93.3341V36.815H93.4247C93.5454 36.5333 93.7165 36.2616 93.9378 36C94.1632 35.7384 94.449 35.5251 94.7951 35.3601C95.1452 35.191 95.5638 35.1065 96.0508 35.1065C96.6947 35.1065 97.2964 35.2756 97.8558 35.6136C98.4193 35.9517 98.874 36.4729 99.2202 37.1772C99.5663 37.8815 99.7393 38.779 99.7393 39.8697C99.7393 40.9201 99.5723 41.7995 99.2383 42.5078C98.9082 43.2161 98.4615 43.7474 97.8981 44.1016C97.3386 44.4557 96.7168 44.6328 96.0327 44.6328C95.5658 44.6328 95.1613 44.5563 94.8192 44.4034C94.4771 44.2505 94.1894 44.0492 93.9559 43.7997C93.7265 43.5502 93.5495 43.2825 93.4247 42.9968H93.3643V47.9773H90.4123ZM93.304 39.8636C93.304 40.3627 93.3704 40.7973 93.5032 41.1676C93.64 41.5379 93.8352 41.8256 94.0888 42.0309C94.3463 42.2321 94.6542 42.3327 95.0124 42.3327C95.3746 42.3327 95.6825 42.2321 95.9361 42.0309C96.1896 41.8256 96.3808 41.5379 96.5096 41.1676C96.6424 40.7973 96.7088 40.3627 96.7088 39.8636C96.7088 39.3646 96.6424 38.9319 96.5096 38.5657C96.3808 38.1995 96.1896 37.9157 95.9361 37.7145C95.6865 37.5133 95.3787 37.4126 95.0124 37.4126C94.6502 37.4126 94.3423 37.5112 94.0888 37.7084C93.8352 37.9057 93.64 38.1874 93.5032 38.5536C93.3704 38.9199 93.304 39.3565 93.304 39.8636ZM103.9 44.657C103.309 44.657 102.783 44.5584 102.325 44.3611C101.87 44.1599 101.51 43.8581 101.244 43.4556C100.982 43.0491 100.852 42.54 100.852 41.9283C100.852 41.4131 100.942 40.9785 101.123 40.6243C101.304 40.2701 101.554 39.9824 101.872 39.761C102.19 39.5396 102.556 39.3726 102.971 39.2599C103.385 39.1432 103.828 39.0647 104.299 39.0245C104.826 38.9762 105.251 38.9259 105.573 38.8736C105.894 38.8172 106.128 38.7388 106.273 38.6381C106.422 38.5335 106.496 38.3866 106.496 38.1974V38.1673C106.496 37.8574 106.39 37.6179 106.176 37.4489C105.963 37.2798 105.675 37.1953 105.313 37.1953C104.923 37.1953 104.609 37.2798 104.371 37.4489C104.134 37.6179 103.983 37.8513 103.918 38.1491L101.196 38.0526C101.276 37.4891 101.483 36.986 101.818 36.5433C102.156 36.0966 102.618 35.7464 103.206 35.4929C103.798 35.2353 104.508 35.1065 105.337 35.1065C105.929 35.1065 106.474 35.177 106.973 35.3178C107.472 35.4547 107.907 35.6559 108.277 35.9215C108.647 36.1831 108.933 36.5051 109.134 36.8874C109.34 37.2698 109.442 37.7064 109.442 38.1974V44.5H106.665V43.2081H106.593C106.428 43.522 106.216 43.7876 105.959 44.005C105.705 44.2223 105.405 44.3853 105.059 44.494C104.717 44.6026 104.331 44.657 103.9 44.657ZM104.812 42.7251C105.13 42.7251 105.416 42.6607 105.669 42.532C105.927 42.4032 106.132 42.2261 106.285 42.0007C106.438 41.7713 106.514 41.5057 106.514 41.2038V40.3224C106.43 40.3667 106.327 40.407 106.206 40.4432C106.09 40.4794 105.961 40.5136 105.82 40.5458C105.679 40.578 105.534 40.6062 105.385 40.6303C105.236 40.6545 105.094 40.6766 104.957 40.6967C104.679 40.741 104.442 40.8094 104.244 40.902C104.051 40.9945 103.902 41.1153 103.798 41.2642C103.697 41.4091 103.647 41.5821 103.647 41.7834C103.647 42.0892 103.755 42.3227 103.973 42.4837C104.194 42.6446 104.474 42.7251 104.812 42.7251ZM113.91 42.0671L113.922 38.5476H114.332L116.94 35.2273H120.285L116.409 39.9844H115.63L113.91 42.0671ZM111.247 44.5V32.1364H114.199V44.5H111.247ZM117.006 44.5L114.58 40.6484L116.524 38.5536L120.417 44.5H117.006Z" fill="#F7F7F7"/>
</g>
<defs>
<filter id="filter0_d_1_50" x="52.4" y="4.9" width="106.2" height="48.6773" filterUnits="userSpaceOnUse" color-interpolation-filters="sRGB">
<feFlood flood-opacity="0" result="BackgroundImageFix"/>
<feColorMatrix in="SourceAlpha" type="matrix" values="0 0 0 0 0 0 0 0 0 0 0 0 0 0 0 0 0 0 127 0" result="hardAlpha"/>
<feOffset/>
<feGaussianBlur stdDeviation="2.8"/>
<feComposite in2="hardAlpha" operator="out"/>
<feColorMatrix type="matrix" values="0 0 0 0 0 0 0 0 0 0 0 0 0 0 0 0 0 0 0.25 0"/>
<feBlend mode="normal" in2="BackgroundImageFix" result="effect1_dropShadow_1_50"/>
<feBlend mode="normal" in="SourceGraphic" in2="effect1_dropShadow_1_50" result="shape"/>
</filter>
<linearGradient id="paint0_linear_1_50" x1="82.5" y1="0" x2="82.5" y2="58" gradientUnits="userSpaceOnUse">
<stop stop-color="#4A90D9"/>
<stop offset="1" stop-color="#24486D"/>
</linearGradient>
<clipPath id="clip0_1_50">
<rect width="38" height="42" fill="white" transform="translate(12 8)"/>
</clipPath>
</defs>
</svg>
