<svg width="167" height="56" viewBox="0 0 167 56" fill="none" xmlns="http://www.w3.org/2000/svg">
<rect width="167" height="56" rx="8" fill="url(#paint0_linear_1_50)"/>
<rect x="1.05" y="1.05" width="164.9" height="53.9" rx="6.95" stroke="black" stroke-opacity="0.15" stroke-width="2.1"/>
<g filter="url(#filter0_d_1_50)">
<g clip-path="url(#clip0_1_50)">
<mask id="mask0_1_50" style="mask-type:luminance" maskUnits="userSpaceOnUse" x="13" y="6" width="38" height="43">
<path d="M51 6.99989H13V48.9999H51V6.99989Z" fill="white"/>
</mask>
<g mask="url(#mask0_1_50)">
<path d="M48.9309 18.2553V37.7445L32 47.4891V27.9999L48.9309 18.2553Z" fill="white"/>
<path d="M32 27.9999V8.51073L15.0691 18.2553L32 27.9999Z" fill="white"/>
<path d="M15.8264 15.4379C14.0753 16.4457 13 18.3024 13 20.318V35.682C13 37.6976 14.0753 39.5543 15.8264 40.5621L29.1736 48.2441C30.9247 49.252 33.0753 49.252 34.8264 48.2441L48.1736 40.5621C49.9247 39.5543 51 37.6976 51 35.682V20.318C51 18.3024 49.9247 16.4457 48.1736 15.4379L34.8264 7.75587C33.0753 6.74804 30.9247 6.74804 29.1736 7.75587L15.8264 15.4379ZM32.7573 11.3284L46.1045 19.0104C46.571 19.2789 46.8618 19.781 46.8618 20.318V35.682C46.8618 36.219 46.571 36.7211 46.1045 36.9896L32.7573 44.6716C32.2908 44.9401 31.7092 44.9401 31.2426 44.6716L17.8954 36.9896C17.4289 36.7211 17.1381 36.219 17.1381 35.682V20.318C17.1381 19.781 17.4289 19.2789 17.8954 19.0104L31.2426 11.3284C31.7092 11.0599 32.2908 11.0599 32.7573 11.3284Z" fill="white"/>
</g>
</g>
</g>
<g filter="url(#filter1_d_1_50)">
<path d="M62.2613 24.5H60.3977L64.5852 12.8636H66.6136L70.8011 24.5H68.9375L65.6477 14.9773H65.5568L62.2613 24.5ZM62.5738 19.9432H68.6193V21.4204H62.5738V19.9432ZM78.7173 15.7727L75.5525 24.5H73.7344L70.5639 15.7727H72.3878L74.598 22.4886H74.6889L76.8934 15.7727H78.7173ZM82.6037 24.6932C82.0506 24.6932 81.5506 24.5909 81.1037 24.3864C80.6567 24.178 80.3025 23.8769 80.0412 23.4829C79.7836 23.089 79.6548 22.6061 79.6548 22.0341C79.6548 21.5417 79.7495 21.1364 79.9389 20.8182C80.1283 20.5 80.384 20.2481 80.7059 20.0625C81.0279 19.8769 81.3878 19.7367 81.7855 19.642C82.1832 19.5473 82.5885 19.4754 83.0014 19.4261C83.5241 19.3655 83.9484 19.3163 84.2741 19.2784C84.5999 19.2367 84.8366 19.1704 84.9844 19.0795C85.1321 18.9886 85.2059 18.8409 85.2059 18.6364V18.5966C85.2059 18.1004 85.0658 17.7159 84.7855 17.4432C84.509 17.1704 84.0961 17.0341 83.5469 17.0341C82.9749 17.0341 82.5241 17.161 82.1946 17.4148C81.8688 17.6648 81.6434 17.9432 81.5184 18.25L79.9219 17.8864C80.1112 17.3561 80.3878 16.928 80.7514 16.6023C81.1188 16.2727 81.5412 16.0341 82.0184 15.8864C82.4957 15.7348 82.9976 15.6591 83.5241 15.6591C83.8726 15.6591 84.2419 15.7008 84.6321 15.7841C85.026 15.8636 85.3934 16.0114 85.7344 16.2273C86.079 16.4432 86.3612 16.7519 86.5809 17.1534C86.8006 17.5511 86.9105 18.0682 86.9105 18.7045V24.5H85.2514V23.3068H85.1832C85.0734 23.5265 84.9086 23.7424 84.6889 23.9545C84.4692 24.1667 84.187 24.3428 83.8423 24.4829C83.4976 24.6231 83.0847 24.6932 82.6037 24.6932ZM82.973 23.3295C83.4427 23.3295 83.8442 23.2367 84.1775 23.0511C84.5147 22.8655 84.7703 22.6231 84.9446 22.3239C85.1226 22.0208 85.2116 21.697 85.2116 21.3523V20.2273C85.151 20.2879 85.0336 20.3447 84.8594 20.3977C84.6889 20.447 84.4938 20.4905 84.2741 20.5284C84.0544 20.5625 83.8404 20.5947 83.6321 20.625C83.4237 20.6515 83.2495 20.6742 83.1094 20.6932C82.7798 20.7348 82.4787 20.8049 82.2059 20.9034C81.937 21.0019 81.7211 21.1439 81.5582 21.3295C81.3991 21.5114 81.3196 21.7538 81.3196 22.0568C81.3196 22.4773 81.4749 22.7954 81.7855 23.0114C82.0961 23.2235 82.4919 23.3295 82.973 23.3295ZM89.1733 24.5V15.7727H90.8721V24.5H89.1733ZM90.0312 14.4261C89.7358 14.4261 89.482 14.3276 89.2699 14.1307C89.0615 13.9299 88.9574 13.6913 88.9574 13.4148C88.9574 13.1345 89.0615 12.8958 89.2699 12.6989C89.482 12.4981 89.7358 12.3977 90.0312 12.3977C90.3267 12.3977 90.5786 12.4981 90.7869 12.6989C90.999 12.8958 91.1051 13.1345 91.1051 13.4148C91.1051 13.6913 90.999 13.9299 90.7869 14.1307C90.5786 14.3276 90.3267 14.4261 90.0312 14.4261ZM94.8565 12.8636V24.5H93.1576V12.8636H94.8565ZM99.6818 24.6932C99.1288 24.6932 98.6288 24.5909 98.1818 24.3864C97.7348 24.178 97.3807 23.8769 97.1193 23.4829C96.8617 23.089 96.7329 22.6061 96.7329 22.0341C96.7329 21.5417 96.8276 21.1364 97.017 20.8182C97.2064 20.5 97.4621 20.2481 97.7841 20.0625C98.106 19.8769 98.4659 19.7367 98.8636 19.642C99.2613 19.5473 99.6666 19.4754 100.08 19.4261C100.602 19.3655 101.026 19.3163 101.352 19.2784C101.678 19.2367 101.915 19.1704 102.062 19.0795C102.21 18.9886 102.284 18.8409 102.284 18.6364V18.5966C102.284 18.1004 102.144 17.7159 101.864 17.4432C101.587 17.1704 101.174 17.0341 100.625 17.0341C100.053 17.0341 99.6022 17.161 99.2727 17.4148C98.9469 17.6648 98.7216 17.9432 98.5966 18.25L97 17.8864C97.1894 17.3561 97.4659 16.928 97.8295 16.6023C98.1969 16.2727 98.6193 16.0341 99.0966 15.8864C99.5738 15.7348 100.076 15.6591 100.602 15.6591C100.951 15.6591 101.32 15.7008 101.71 15.7841C102.104 15.8636 102.472 16.0114 102.812 16.2273C103.157 16.4432 103.439 16.7519 103.659 17.1534C103.879 17.5511 103.989 18.0682 103.989 18.7045V24.5H102.33V23.3068H102.261C102.151 23.5265 101.987 23.7424 101.767 23.9545C101.547 24.1667 101.265 24.3428 100.92 24.4829C100.576 24.6231 100.163 24.6932 99.6818 24.6932ZM100.051 23.3295C100.521 23.3295 100.922 23.2367 101.256 23.0511C101.593 22.8655 101.848 22.6231 102.023 22.3239C102.201 22.0208 102.29 21.697 102.29 21.3523V20.2273C102.229 20.2879 102.112 20.3447 101.937 20.3977C101.767 20.447 101.572 20.4905 101.352 20.5284C101.133 20.5625 100.919 20.5947 100.71 20.625C100.502 20.6515 100.328 20.6742 100.187 20.6932C99.8579 20.7348 99.5568 20.8049 99.2841 20.9034C99.0151 21.0019 98.7992 21.1439 98.6363 21.3295C98.4772 21.5114 98.3977 21.7538 98.3977 22.0568C98.3977 22.4773 98.553 22.7954 98.8636 23.0114C99.1742 23.2235 99.57 23.3295 100.051 23.3295ZM106.388 24.5V12.8636H108.087V17.1875H108.189C108.287 17.0057 108.429 16.7954 108.615 16.5568C108.801 16.3182 109.058 16.1098 109.388 15.9318C109.717 15.75 110.153 15.6591 110.695 15.6591C111.399 15.6591 112.028 15.8371 112.581 16.1932C113.134 16.5492 113.568 17.0625 113.882 17.7329C114.2 18.4034 114.359 19.2102 114.359 20.1534C114.359 21.0966 114.202 21.9053 113.888 22.5795C113.573 23.25 113.142 23.767 112.592 24.1307C112.043 24.4905 111.416 24.6704 110.712 24.6704C110.181 24.6704 109.748 24.5814 109.41 24.4034C109.077 24.2254 108.816 24.017 108.626 23.7784C108.437 23.5398 108.291 23.3276 108.189 23.142H108.047V24.5H106.388ZM108.053 20.1364C108.053 20.75 108.142 21.2879 108.32 21.75C108.498 22.2121 108.755 22.5739 109.092 22.8352C109.429 23.0928 109.842 23.2216 110.331 23.2216C110.839 23.2216 111.263 23.0871 111.604 22.8182C111.945 22.5454 112.202 22.1761 112.376 21.7102C112.554 21.2443 112.643 20.7197 112.643 20.1364C112.643 19.5606 112.556 19.0436 112.382 18.5852C112.212 18.1269 111.954 17.7651 111.609 17.5C111.268 17.2348 110.842 17.1023 110.331 17.1023C109.839 17.1023 109.422 17.2292 109.081 17.4829C108.744 17.7367 108.488 18.0909 108.314 18.5454C108.14 19 108.053 19.5303 108.053 20.1364ZM117.966 12.8636V24.5H116.267V12.8636H117.966ZM124.013 24.6761C123.153 24.6761 122.412 24.4924 121.791 24.125C121.174 23.7538 120.696 23.2329 120.359 22.5625C120.026 21.8883 119.859 21.0985 119.859 20.1932C119.859 19.2992 120.026 18.5114 120.359 17.8295C120.696 17.1477 121.166 16.6155 121.768 16.2329C122.374 15.8504 123.083 15.6591 123.893 15.6591C124.386 15.6591 124.863 15.7405 125.325 15.9034C125.787 16.0663 126.202 16.322 126.57 16.6704C126.937 17.0189 127.227 17.4716 127.439 18.0284C127.651 18.5814 127.757 19.2538 127.757 20.0454V20.6477H120.82V19.375H126.092C126.092 18.928 126.001 18.5322 125.82 18.1875C125.638 17.839 125.382 17.5644 125.053 17.3636C124.727 17.1629 124.344 17.0625 123.905 17.0625C123.428 17.0625 123.011 17.1799 122.655 17.4148C122.303 17.6458 122.03 17.9489 121.837 18.3239C121.647 18.6951 121.553 19.0985 121.553 19.5341V20.5284C121.553 21.1117 121.655 21.6079 121.859 22.017C122.068 22.4261 122.357 22.7386 122.729 22.9545C123.1 23.1667 123.534 23.2727 124.03 23.2727C124.352 23.2727 124.645 23.2273 124.91 23.1364C125.176 23.0417 125.405 22.9015 125.598 22.7159C125.791 22.5303 125.939 22.3011 126.041 22.0284L127.649 22.3182C127.52 22.7917 127.289 23.2064 126.956 23.5625C126.626 23.9148 126.212 24.1894 125.712 24.3864C125.215 24.5795 124.649 24.6761 124.013 24.6761ZM138.03 15.7727V17.1364H133.098V15.7727H138.03ZM134.45 24.5V14.7614C134.45 14.2159 134.57 13.7633 134.808 13.4034C135.047 13.0398 135.363 12.7689 135.757 12.5909C136.151 12.4091 136.579 12.3182 137.041 12.3182C137.382 12.3182 137.674 12.3466 137.916 12.4034C138.159 12.4564 138.339 12.5057 138.456 12.5511L138.058 13.9261C137.979 13.9034 137.876 13.8769 137.751 13.8466C137.626 13.8125 137.475 13.7954 137.297 13.7954C136.884 13.7954 136.589 13.8977 136.41 14.1023C136.236 14.3068 136.149 14.6023 136.149 14.9886V24.5H134.45ZM143.115 24.6761C142.297 24.6761 141.583 24.4886 140.973 24.1136C140.363 23.7386 139.89 23.214 139.553 22.5398C139.215 21.8655 139.047 21.0776 139.047 20.1761C139.047 19.2708 139.215 18.4792 139.553 17.8011C139.89 17.1231 140.363 16.5966 140.973 16.2216C141.583 15.8466 142.297 15.6591 143.115 15.6591C143.933 15.6591 144.647 15.8466 145.257 16.2216C145.867 16.5966 146.34 17.1231 146.678 17.8011C147.015 18.4792 147.183 19.2708 147.183 20.1761C147.183 21.0776 147.015 21.8655 146.678 22.5398C146.34 23.214 145.867 23.7386 145.257 24.1136C144.647 24.4886 143.933 24.6761 143.115 24.6761ZM143.121 23.25C143.651 23.25 144.09 23.1098 144.439 22.8295C144.787 22.5492 145.045 22.1761 145.212 21.7102C145.382 21.2443 145.467 20.7311 145.467 20.1704C145.467 19.6136 145.382 19.1023 145.212 18.6364C145.045 18.1667 144.787 17.7898 144.439 17.5057C144.09 17.2216 143.651 17.0795 143.121 17.0795C142.587 17.0795 142.143 17.2216 141.791 17.5057C141.443 17.7898 141.183 18.1667 141.013 18.6364C140.846 19.1023 140.763 19.6136 140.763 20.1704C140.763 20.7311 140.846 21.2443 141.013 21.7102C141.183 22.1761 141.443 22.5492 141.791 22.8295C142.143 23.1098 142.587 23.25 143.121 23.25ZM149.08 24.5V15.7727H150.722V17.1591H150.812C150.972 16.6894 151.252 16.3201 151.653 16.0511C152.059 15.7784 152.517 15.642 153.028 15.642C153.134 15.642 153.259 15.6458 153.403 15.6534C153.551 15.661 153.667 15.6704 153.75 15.6818V17.3068C153.682 17.2879 153.561 17.267 153.386 17.2443C153.212 17.2178 153.038 17.2045 152.864 17.2045C152.462 17.2045 152.104 17.2898 151.79 17.4602C151.479 17.6269 151.233 17.8598 151.051 18.1591C150.869 18.4545 150.778 18.7917 150.778 19.1704V24.5H149.08Z" fill="#E8E8E8"/>
<path d="M60.9357 43.5V31.1364H69.3753V33.5632H63.924V36.0987H68.8381V38.5316H63.924V43.5H60.9357ZM73.8321 31.1364V43.5H70.88V31.1364H73.8321ZM78.3251 43.6569C77.7335 43.6569 77.2083 43.5583 76.7494 43.3611C76.2947 43.1599 75.9345 42.8581 75.6688 42.4556C75.4072 42.0491 75.2764 41.54 75.2764 40.9283C75.2764 40.4131 75.367 39.9784 75.5481 39.6243C75.7292 39.2701 75.9787 38.9824 76.2967 38.761C76.6146 38.5396 76.9809 38.3726 77.3954 38.2599C77.8099 38.1432 78.2526 38.0647 78.7235 38.0245C79.2507 37.9762 79.6753 37.9259 79.9973 37.8736C80.3193 37.8172 80.5527 37.7387 80.6976 37.6381C80.8465 37.5335 80.921 37.3866 80.921 37.1974V37.1672C80.921 36.8574 80.8143 36.6179 80.601 36.4489C80.3877 36.2798 80.0999 36.1953 79.7377 36.1953C79.3473 36.1953 79.0334 36.2798 78.796 36.4489C78.5585 36.6179 78.4076 36.8513 78.3432 37.1491L75.6205 37.0525C75.701 36.4891 75.9083 35.986 76.2423 35.5433C76.5804 35.0966 77.0432 34.7464 77.6308 34.4929C78.2225 34.2353 78.9328 34.1065 79.7619 34.1065C80.3535 34.1065 80.8988 34.177 81.3979 34.3178C81.8969 34.4547 82.3316 34.6559 82.7019 34.9215C83.0721 35.1831 83.3579 35.5051 83.5591 35.8874C83.7644 36.2698 83.867 36.7064 83.867 37.1974V43.5H81.09V42.2081H81.0176C80.8525 42.522 80.6413 42.7876 80.3837 43.005C80.1301 43.2223 79.8303 43.3853 79.4842 43.494C79.1421 43.6026 78.7557 43.6569 78.3251 43.6569ZM79.2367 41.7251C79.5546 41.7251 79.8404 41.6607 80.0939 41.5319C80.3515 41.4032 80.5567 41.2261 80.7097 41.0007C80.8626 40.7713 80.9391 40.5057 80.9391 40.2038V39.3224C80.8546 39.3667 80.7519 39.4069 80.6312 39.4432C80.5145 39.4794 80.3857 39.5136 80.2448 39.5458C80.104 39.578 79.9591 39.6062 79.8102 39.6303C79.6613 39.6545 79.5184 39.6766 79.3815 39.6967C79.1038 39.741 78.8664 39.8094 78.6692 39.902C78.476 39.9945 78.3271 40.1153 78.2225 40.2642C78.1218 40.4091 78.0715 40.5821 78.0715 40.7834C78.0715 41.0892 78.1802 41.3227 78.3975 41.4837C78.6189 41.6446 78.8986 41.7251 79.2367 41.7251ZM90.906 34.2273V36.4006H85.0563V34.2273H90.906ZM86.2818 32.0057H89.2338V40.5842C89.2338 40.7653 89.262 40.9122 89.3183 41.0248C89.3787 41.1335 89.4652 41.212 89.5779 41.2603C89.6906 41.3046 89.8254 41.3267 89.9824 41.3267C90.0951 41.3267 90.2138 41.3166 90.3386 41.2965C90.4674 41.2724 90.564 41.2522 90.6283 41.2361L91.0751 43.3672C90.9342 43.4074 90.735 43.4577 90.4774 43.5181C90.2239 43.5785 89.92 43.6167 89.5658 43.6328C88.8736 43.665 88.28 43.5845 87.785 43.3913C87.294 43.1941 86.9176 42.8882 86.656 42.4737C86.3985 42.0592 86.2737 41.538 86.2818 40.9101V32.0057ZM92.4123 46.9773V34.2273H95.3341V35.815H95.4247C95.5454 35.5333 95.7165 35.2616 95.9378 35C96.1632 34.7384 96.449 34.5251 96.7951 34.3601C97.1452 34.191 97.5638 34.1065 98.0508 34.1065C98.6947 34.1065 99.2964 34.2756 99.8558 34.6136C100.419 34.9517 100.874 35.4729 101.22 36.1772C101.566 36.8815 101.739 37.779 101.739 38.8697C101.739 39.9201 101.572 40.7995 101.238 41.5078C100.908 42.2161 100.462 42.7474 99.8981 43.1016C99.3386 43.4557 98.7168 43.6328 98.0326 43.6328C97.5658 43.6328 97.1613 43.5563 96.8192 43.4034C96.4771 43.2505 96.1894 43.0492 95.9559 42.7997C95.7265 42.5502 95.5495 42.2825 95.4247 41.9968H95.3643V46.9773H92.4123ZM95.304 38.8636C95.304 39.3627 95.3704 39.7973 95.5032 40.1676C95.64 40.5379 95.8352 40.8256 96.0888 41.0309C96.3463 41.2321 96.6542 41.3327 97.0124 41.3327C97.3746 41.3327 97.6825 41.2321 97.9361 41.0309C98.1896 40.8256 98.3808 40.5379 98.5096 40.1676C98.6424 39.7973 98.7088 39.3627 98.7088 38.8636C98.7088 38.3646 98.6424 37.9319 98.5096 37.5657C98.3808 37.1994 98.1896 36.9157 97.9361 36.7145C97.6865 36.5132 97.3786 36.4126 97.0124 36.4126C96.6502 36.4126 96.3423 36.5112 96.0888 36.7084C95.8352 36.9056 95.64 37.1874 95.5032 37.5536C95.3704 37.9199 95.304 38.3565 95.304 38.8636ZM105.9 43.6569C105.309 43.6569 104.783 43.5583 104.325 43.3611C103.87 43.1599 103.51 42.8581 103.244 42.4556C102.982 42.0491 102.852 41.54 102.852 40.9283C102.852 40.4131 102.942 39.9784 103.123 39.6243C103.304 39.2701 103.554 38.9824 103.872 38.761C104.19 38.5396 104.556 38.3726 104.971 38.2599C105.385 38.1432 105.828 38.0647 106.299 38.0245C106.826 37.9762 107.251 37.9259 107.573 37.8736C107.894 37.8172 108.128 37.7387 108.273 37.6381C108.422 37.5335 108.496 37.3866 108.496 37.1974V37.1672C108.496 36.8574 108.39 36.6179 108.176 36.4489C107.963 36.2798 107.675 36.1953 107.313 36.1953C106.923 36.1953 106.609 36.2798 106.371 36.4489C106.134 36.6179 105.983 36.8513 105.918 37.1491L103.196 37.0525C103.276 36.4891 103.483 35.986 103.818 35.5433C104.156 35.0966 104.618 34.7464 105.206 34.4929C105.798 34.2353 106.508 34.1065 107.337 34.1065C107.929 34.1065 108.474 34.177 108.973 34.3178C109.472 34.4547 109.907 34.6559 110.277 34.9215C110.647 35.1831 110.933 35.5051 111.134 35.8874C111.34 36.2698 111.442 36.7064 111.442 37.1974V43.5H108.665V42.2081H108.593C108.428 42.522 108.216 42.7876 107.959 43.005C107.705 43.2223 107.405 43.3853 107.059 43.494C106.717 43.6026 106.331 43.6569 105.9 43.6569ZM106.812 41.7251C107.13 41.7251 107.416 41.6607 107.669 41.5319C107.927 41.4032 108.132 41.2261 108.285 41.0007C108.438 40.7713 108.514 40.5057 108.514 40.2038V39.3224C108.43 39.3667 108.327 39.4069 108.206 39.4432C108.09 39.4794 107.961 39.5136 107.82 39.5458C107.679 39.578 107.534 39.6062 107.385 39.6303C107.236 39.6545 107.094 39.6766 106.957 39.6967C106.679 39.741 106.442 39.8094 106.244 39.902C106.051 39.9945 105.902 40.1153 105.798 40.2642C105.697 40.4091 105.647 40.5821 105.647 40.7834C105.647 41.0892 105.755 41.3227 105.973 41.4837C106.194 41.6446 106.474 41.7251 106.812 41.7251ZM115.91 41.0671L115.922 37.5476H116.332L118.94 34.2273H122.285L118.409 38.9844H117.63L115.91 41.0671ZM113.247 43.5V31.1364H116.199V43.5H113.247ZM119.006 43.5L116.58 39.6484L118.523 37.5536L122.417 43.5H119.006Z" fill="white"/>
</g>
<defs>
<filter id="filter0_d_1_50" x="6.28571" y="1.28571" width="51.4286" height="53.4285" filterUnits="userSpaceOnUse" color-interpolation-filters="sRGB">
<feFlood flood-opacity="0" result="BackgroundImageFix"/>
<feColorMatrix in="SourceAlpha" type="matrix" values="0 0 0 0 0 0 0 0 0 0 0 0 0 0 0 0 0 0 127 0" result="hardAlpha"/>
<feOffset/>
<feGaussianBlur stdDeviation="2.85714"/>
<feComposite in2="hardAlpha" operator="out"/>
<feColorMatrix type="matrix" values="0 0 0 0 0 0 0 0 0 0 0 0 0 0 0 0 0 0 0.25 0"/>
<feBlend mode="normal" in2="BackgroundImageFix" result="effect1_dropShadow_1_50"/>
<feBlend mode="normal" in="SourceGraphic" in2="effect1_dropShadow_1_50" result="shape"/>
</filter>
<filter id="filter1_d_1_50" x="54.4" y="3.9" width="106.2" height="48.6773" filterUnits="userSpaceOnUse" color-interpolation-filters="sRGB">
<feFlood flood-opacity="0" result="BackgroundImageFix"/>
<feColorMatrix in="SourceAlpha" type="matrix" values="0 0 0 0 0 0 0 0 0 0 0 0 0 0 0 0 0 0 127 0" result="hardAlpha"/>
<feOffset/>
<feGaussianBlur stdDeviation="2.8"/>
<feComposite in2="hardAlpha" operator="out"/>
<feColorMatrix type="matrix" values="0 0 0 0 0 0 0 0 0 0 0 0 0 0 0 0 0 0 0.25 0"/>
<feBlend mode="normal" in2="BackgroundImageFix" result="effect1_dropShadow_1_50"/>
<feBlend mode="normal" in="SourceGraphic" in2="effect1_dropShadow_1_50" result="shape"/>
</filter>
<linearGradient id="paint0_linear_1_50" x1="83.5" y1="0" x2="83.5" y2="56" gradientUnits="userSpaceOnUse">
<stop stop-color="#4A90D9"/>
<stop offset="1" stop-color="#24486D"/>
</linearGradient>
<clipPath id="clip0_1_50">
<rect width="38" height="41.9999" fill="white" transform="translate(13 7)"/>
</clipPath>
</defs>
</svg>
