<svg width="164" height="56" viewBox="0 0 164 56" fill="none" xmlns="http://www.w3.org/2000/svg">
<rect width="164" height="56" rx="8" fill="url(#paint0_linear_1_50)"/>
<rect x="1.05" y="1.05" width="161.9" height="53.9" rx="6.95" stroke="white" stroke-opacity="0.15" stroke-width="2.1"/>
<g filter="url(#filter0_d_1_50)">
<g clip-path="url(#clip0_1_50)">
<path d="M21.208 27.2831C26.2935 27.2831 30.4161 23.1908 30.4161 18.1427C30.4161 13.0946 26.2935 9.00233 21.208 9.00233C16.1226 9.00233 12 13.0946 12 18.1427C12 23.1908 16.1226 27.2831 21.208 27.2831Z" fill="white"/>
<path d="M25.0301 30.4201H17.2354C14.7755 30.4201 12.7814 32.3995 12.7814 34.8413V42.5787C12.7814 45.0205 14.7755 47 17.2354 47H25.0301C27.49 47 29.4841 45.0205 29.4841 42.5787V34.8413C29.4841 32.3995 27.49 30.4201 25.0301 30.4201Z" fill="white"/>
<path d="M50.6702 15.8491L48.9923 14.8875L39.3366 9.35371C38.9323 9.122 38.4737 9.00001 38.0069 9C37.54 8.99999 37.0814 9.12196 36.6771 9.35366C36.2729 9.58536 35.9371 9.91862 35.7037 10.3199C35.4703 10.7212 35.3474 11.1765 35.3474 11.6399L35.3476 24.6305C35.3476 25.0939 35.4705 25.5491 35.7039 25.9504C35.9373 26.3517 36.273 26.6849 36.6773 26.9166C37.0816 27.1483 37.5402 27.2703 38.007 27.2703C38.4738 27.2703 38.9324 27.1483 39.3367 26.9166L50.6703 20.4215C51.0746 20.1898 51.4103 19.8566 51.6437 19.4553C51.8771 19.054 52 18.5987 52 18.1353C52 17.6719 51.8771 17.2167 51.6437 16.8154C51.4103 16.4141 51.0745 16.0808 50.6702 15.8491Z" fill="white"/>
<path d="M50.0093 38.8151C50.0093 39.7036 49.2887 40.4188 48.3937 40.4188H35.4687C34.5737 40.4188 33.8531 39.7036 33.8531 38.8151C33.8531 37.9266 34.5737 37.2113 35.4687 37.2113H48.3937C49.2887 37.2113 50.0093 37.9266 50.0093 38.8151ZM41.9312 30.7964C42.8262 30.7964 43.5468 31.5116 43.5468 32.4001V45.2301C43.5468 46.1185 42.8263 46.8338 41.9312 46.8338C41.0362 46.8338 40.3156 46.1185 40.3156 45.2301V32.4001C40.3156 31.5116 41.0362 30.7964 41.9312 30.7964Z" fill="white"/>
</g>
</g>
<g filter="url(#filter1_d_1_50)">
<path d="M62.2613 24.5H60.3977L64.5852 12.8636H66.6136L70.8011 24.5H68.9375L65.6477 14.9773H65.5568L62.2613 24.5ZM62.5738 19.9432H68.6193V21.4204H62.5738V19.9432ZM78.7173 15.7727L75.5525 24.5H73.7344L70.5639 15.7727H72.3878L74.598 22.4886H74.6889L76.8934 15.7727H78.7173ZM82.6037 24.6932C82.0506 24.6932 81.5506 24.5909 81.1037 24.3864C80.6567 24.178 80.3025 23.8769 80.0412 23.4829C79.7836 23.089 79.6548 22.6061 79.6548 22.0341C79.6548 21.5417 79.7495 21.1364 79.9389 20.8182C80.1283 20.5 80.384 20.2481 80.7059 20.0625C81.0279 19.8769 81.3878 19.7367 81.7855 19.642C82.1832 19.5473 82.5885 19.4754 83.0014 19.4261C83.5241 19.3655 83.9484 19.3163 84.2741 19.2784C84.5999 19.2367 84.8366 19.1704 84.9844 19.0795C85.1321 18.9886 85.2059 18.8409 85.2059 18.6364V18.5966C85.2059 18.1004 85.0658 17.7159 84.7855 17.4432C84.509 17.1704 84.0961 17.0341 83.5469 17.0341C82.9749 17.0341 82.5241 17.161 82.1946 17.4148C81.8688 17.6648 81.6434 17.9432 81.5184 18.25L79.9219 17.8864C80.1112 17.3561 80.3878 16.928 80.7514 16.6023C81.1188 16.2727 81.5412 16.0341 82.0184 15.8864C82.4957 15.7348 82.9976 15.6591 83.5241 15.6591C83.8726 15.6591 84.2419 15.7008 84.6321 15.7841C85.026 15.8636 85.3934 16.0114 85.7344 16.2273C86.079 16.4432 86.3612 16.7519 86.5809 17.1534C86.8006 17.5511 86.9105 18.0682 86.9105 18.7045V24.5H85.2514V23.3068H85.1832C85.0734 23.5265 84.9086 23.7424 84.6889 23.9545C84.4692 24.1667 84.187 24.3428 83.8423 24.4829C83.4976 24.6231 83.0847 24.6932 82.6037 24.6932ZM82.973 23.3295C83.4427 23.3295 83.8442 23.2367 84.1775 23.0511C84.5147 22.8655 84.7703 22.6231 84.9446 22.3239C85.1226 22.0208 85.2116 21.697 85.2116 21.3523V20.2273C85.151 20.2879 85.0336 20.3447 84.8594 20.3977C84.6889 20.447 84.4938 20.4905 84.2741 20.5284C84.0544 20.5625 83.8404 20.5947 83.6321 20.625C83.4237 20.6515 83.2495 20.6742 83.1094 20.6932C82.7798 20.7348 82.4787 20.8049 82.2059 20.9034C81.937 21.0019 81.7211 21.1439 81.5582 21.3295C81.3991 21.5114 81.3196 21.7538 81.3196 22.0568C81.3196 22.4773 81.4749 22.7954 81.7855 23.0114C82.0961 23.2235 82.4919 23.3295 82.973 23.3295ZM89.1733 24.5V15.7727H90.8721V24.5H89.1733ZM90.0312 14.4261C89.7358 14.4261 89.482 14.3276 89.2699 14.1307C89.0615 13.9299 88.9574 13.6913 88.9574 13.4148C88.9574 13.1345 89.0615 12.8958 89.2699 12.6989C89.482 12.4981 89.7358 12.3977 90.0312 12.3977C90.3267 12.3977 90.5786 12.4981 90.7869 12.6989C90.999 12.8958 91.1051 13.1345 91.1051 13.4148C91.1051 13.6913 90.999 13.9299 90.7869 14.1307C90.5786 14.3276 90.3267 14.4261 90.0312 14.4261ZM94.8565 12.8636V24.5H93.1576V12.8636H94.8565ZM99.6818 24.6932C99.1288 24.6932 98.6288 24.5909 98.1818 24.3864C97.7348 24.178 97.3807 23.8769 97.1193 23.4829C96.8617 23.089 96.7329 22.6061 96.7329 22.0341C96.7329 21.5417 96.8276 21.1364 97.017 20.8182C97.2064 20.5 97.4621 20.2481 97.7841 20.0625C98.106 19.8769 98.4659 19.7367 98.8636 19.642C99.2613 19.5473 99.6666 19.4754 100.08 19.4261C100.602 19.3655 101.026 19.3163 101.352 19.2784C101.678 19.2367 101.915 19.1704 102.062 19.0795C102.21 18.9886 102.284 18.8409 102.284 18.6364V18.5966C102.284 18.1004 102.144 17.7159 101.864 17.4432C101.587 17.1704 101.174 17.0341 100.625 17.0341C100.053 17.0341 99.6022 17.161 99.2727 17.4148C98.9469 17.6648 98.7216 17.9432 98.5966 18.25L97 17.8864C97.1894 17.3561 97.4659 16.928 97.8295 16.6023C98.1969 16.2727 98.6193 16.0341 99.0966 15.8864C99.5738 15.7348 100.076 15.6591 100.602 15.6591C100.951 15.6591 101.32 15.7008 101.71 15.7841C102.104 15.8636 102.472 16.0114 102.812 16.2273C103.157 16.4432 103.439 16.7519 103.659 17.1534C103.879 17.5511 103.989 18.0682 103.989 18.7045V24.5H102.33V23.3068H102.261C102.151 23.5265 101.987 23.7424 101.767 23.9545C101.547 24.1667 101.265 24.3428 100.92 24.4829C100.576 24.6231 100.163 24.6932 99.6818 24.6932ZM100.051 23.3295C100.521 23.3295 100.922 23.2367 101.256 23.0511C101.593 22.8655 101.848 22.6231 102.023 22.3239C102.201 22.0208 102.29 21.697 102.29 21.3523V20.2273C102.229 20.2879 102.112 20.3447 101.937 20.3977C101.767 20.447 101.572 20.4905 101.352 20.5284C101.133 20.5625 100.919 20.5947 100.71 20.625C100.502 20.6515 100.328 20.6742 100.187 20.6932C99.8579 20.7348 99.5568 20.8049 99.2841 20.9034C99.0151 21.0019 98.7992 21.1439 98.6363 21.3295C98.4772 21.5114 98.3977 21.7538 98.3977 22.0568C98.3977 22.4773 98.553 22.7954 98.8636 23.0114C99.1742 23.2235 99.57 23.3295 100.051 23.3295ZM106.388 24.5V12.8636H108.087V17.1875H108.189C108.287 17.0057 108.429 16.7954 108.615 16.5568C108.801 16.3182 109.058 16.1098 109.388 15.9318C109.717 15.75 110.153 15.6591 110.695 15.6591C111.399 15.6591 112.028 15.8371 112.581 16.1932C113.134 16.5492 113.568 17.0625 113.882 17.7329C114.2 18.4034 114.359 19.2102 114.359 20.1534C114.359 21.0966 114.202 21.9053 113.888 22.5795C113.573 23.25 113.142 23.767 112.592 24.1307C112.043 24.4905 111.416 24.6704 110.712 24.6704C110.181 24.6704 109.748 24.5814 109.41 24.4034C109.077 24.2254 108.816 24.017 108.626 23.7784C108.437 23.5398 108.291 23.3276 108.189 23.142H108.047V24.5H106.388ZM108.053 20.1364C108.053 20.75 108.142 21.2879 108.32 21.75C108.498 22.2121 108.755 22.5739 109.092 22.8352C109.429 23.0928 109.842 23.2216 110.331 23.2216C110.839 23.2216 111.263 23.0871 111.604 22.8182C111.945 22.5454 112.202 22.1761 112.376 21.7102C112.554 21.2443 112.643 20.7197 112.643 20.1364C112.643 19.5606 112.556 19.0436 112.382 18.5852C112.212 18.1269 111.954 17.7651 111.609 17.5C111.268 17.2348 110.842 17.1023 110.331 17.1023C109.839 17.1023 109.422 17.2292 109.081 17.4829C108.744 17.7367 108.488 18.0909 108.314 18.5454C108.14 19 108.053 19.5303 108.053 20.1364ZM117.966 12.8636V24.5H116.267V12.8636H117.966ZM124.013 24.6761C123.153 24.6761 122.412 24.4924 121.791 24.125C121.174 23.7538 120.696 23.2329 120.359 22.5625C120.026 21.8883 119.859 21.0985 119.859 20.1932C119.859 19.2992 120.026 18.5114 120.359 17.8295C120.696 17.1477 121.166 16.6155 121.768 16.2329C122.374 15.8504 123.083 15.6591 123.893 15.6591C124.386 15.6591 124.863 15.7405 125.325 15.9034C125.787 16.0663 126.202 16.322 126.57 16.6704C126.937 17.0189 127.227 17.4716 127.439 18.0284C127.651 18.5814 127.757 19.2538 127.757 20.0454V20.6477H120.82V19.375H126.092C126.092 18.928 126.001 18.5322 125.82 18.1875C125.638 17.839 125.382 17.5644 125.053 17.3636C124.727 17.1629 124.344 17.0625 123.905 17.0625C123.428 17.0625 123.011 17.1799 122.655 17.4148C122.303 17.6458 122.03 17.9489 121.837 18.3239C121.647 18.6951 121.553 19.0985 121.553 19.5341V20.5284C121.553 21.1117 121.655 21.6079 121.859 22.017C122.068 22.4261 122.357 22.7386 122.729 22.9545C123.1 23.1667 123.534 23.2727 124.03 23.2727C124.352 23.2727 124.645 23.2273 124.91 23.1364C125.176 23.0417 125.405 22.9015 125.598 22.7159C125.791 22.5303 125.939 22.3011 126.041 22.0284L127.649 22.3182C127.52 22.7917 127.289 23.2064 126.956 23.5625C126.626 23.9148 126.212 24.1894 125.712 24.3864C125.215 24.5795 124.649 24.6761 124.013 24.6761ZM137.553 24.6761C136.734 24.6761 136.02 24.4886 135.41 24.1136C134.801 23.7386 134.327 23.214 133.99 22.5398C133.653 21.8655 133.484 21.0776 133.484 20.1761C133.484 19.2708 133.653 18.4792 133.99 17.8011C134.327 17.1231 134.801 16.5966 135.41 16.2216C136.02 15.8466 136.734 15.6591 137.553 15.6591C138.371 15.6591 139.085 15.8466 139.695 16.2216C140.304 16.5966 140.778 17.1231 141.115 17.8011C141.452 18.4792 141.621 19.2708 141.621 20.1761C141.621 21.0776 141.452 21.8655 141.115 22.5398C140.778 23.214 140.304 23.7386 139.695 24.1136C139.085 24.4886 138.371 24.6761 137.553 24.6761ZM137.558 23.25C138.089 23.25 138.528 23.1098 138.876 22.8295C139.225 22.5492 139.482 22.1761 139.649 21.7102C139.82 21.2443 139.905 20.7311 139.905 20.1704C139.905 19.6136 139.82 19.1023 139.649 18.6364C139.482 18.1667 139.225 17.7898 138.876 17.5057C138.528 17.2216 138.089 17.0795 137.558 17.0795C137.024 17.0795 136.581 17.2216 136.229 17.5057C135.88 17.7898 135.621 18.1667 135.45 18.6364C135.284 19.1023 135.2 19.6136 135.2 20.1704C135.2 20.7311 135.284 21.2443 135.45 21.7102C135.621 22.1761 135.88 22.5492 136.229 22.8295C136.581 23.1098 137.024 23.25 137.558 23.25ZM145.216 19.3182V24.5H143.517V15.7727H145.148V17.1932H145.256C145.456 16.7311 145.771 16.3598 146.199 16.0795C146.631 15.7992 147.174 15.6591 147.83 15.6591C148.424 15.6591 148.945 15.7841 149.392 16.0341C149.839 16.2803 150.186 16.6477 150.432 17.1364C150.678 17.625 150.801 18.2292 150.801 18.9489V24.5H149.102V19.1534C149.102 18.5208 148.937 18.0265 148.608 17.6704C148.278 17.3106 147.826 17.1307 147.25 17.1307C146.856 17.1307 146.506 17.2159 146.199 17.3864C145.896 17.5568 145.655 17.8068 145.477 18.1364C145.303 18.4621 145.216 18.8561 145.216 19.3182Z" fill="white"/>
<path d="M60.9357 43.5V31.1364H69.3753V33.5632H63.924V36.0987H68.8381V38.5316H63.924V43.5H60.9357ZM73.8321 31.1364V43.5H70.88V31.1364H73.8321ZM78.3251 43.6569C77.7335 43.6569 77.2083 43.5583 76.7494 43.3611C76.2947 43.1599 75.9345 42.8581 75.6688 42.4556C75.4072 42.0491 75.2764 41.54 75.2764 40.9283C75.2764 40.4131 75.367 39.9784 75.5481 39.6243C75.7292 39.2701 75.9787 38.9824 76.2967 38.761C76.6146 38.5396 76.9809 38.3726 77.3954 38.2599C77.8099 38.1432 78.2526 38.0647 78.7235 38.0245C79.2507 37.9762 79.6753 37.9259 79.9973 37.8736C80.3193 37.8172 80.5527 37.7387 80.6976 37.6381C80.8465 37.5335 80.921 37.3866 80.921 37.1974V37.1672C80.921 36.8574 80.8143 36.6179 80.601 36.4489C80.3877 36.2798 80.0999 36.1953 79.7377 36.1953C79.3473 36.1953 79.0334 36.2798 78.796 36.4489C78.5585 36.6179 78.4076 36.8513 78.3432 37.1491L75.6205 37.0525C75.701 36.4891 75.9083 35.986 76.2423 35.5433C76.5804 35.0966 77.0432 34.7464 77.6308 34.4929C78.2225 34.2353 78.9328 34.1065 79.7619 34.1065C80.3535 34.1065 80.8988 34.177 81.3979 34.3178C81.8969 34.4547 82.3316 34.6559 82.7019 34.9215C83.0721 35.1831 83.3579 35.5051 83.5591 35.8874C83.7644 36.2698 83.867 36.7064 83.867 37.1974V43.5H81.09V42.2081H81.0176C80.8525 42.522 80.6413 42.7876 80.3837 43.005C80.1301 43.2223 79.8303 43.3853 79.4842 43.494C79.1421 43.6026 78.7557 43.6569 78.3251 43.6569ZM79.2367 41.7251C79.5546 41.7251 79.8404 41.6607 80.0939 41.5319C80.3515 41.4032 80.5567 41.2261 80.7097 41.0007C80.8626 40.7713 80.9391 40.5057 80.9391 40.2038V39.3224C80.8546 39.3667 80.7519 39.4069 80.6312 39.4432C80.5145 39.4794 80.3857 39.5136 80.2448 39.5458C80.104 39.578 79.9591 39.6062 79.8102 39.6303C79.6613 39.6545 79.5184 39.6766 79.3815 39.6967C79.1038 39.741 78.8664 39.8094 78.6692 39.902C78.476 39.9945 78.3271 40.1153 78.2225 40.2642C78.1218 40.4091 78.0715 40.5821 78.0715 40.7834C78.0715 41.0892 78.1802 41.3227 78.3975 41.4837C78.6189 41.6446 78.8986 41.7251 79.2367 41.7251ZM90.906 34.2273V36.4006H85.0563V34.2273H90.906ZM86.2818 32.0057H89.2338V40.5842C89.2338 40.7653 89.262 40.9122 89.3183 41.0248C89.3787 41.1335 89.4652 41.212 89.5779 41.2603C89.6906 41.3046 89.8254 41.3267 89.9824 41.3267C90.0951 41.3267 90.2138 41.3166 90.3386 41.2965C90.4674 41.2724 90.564 41.2522 90.6283 41.2361L91.0751 43.3672C90.9342 43.4074 90.735 43.4577 90.4774 43.5181C90.2239 43.5785 89.92 43.6167 89.5658 43.6328C88.8736 43.665 88.28 43.5845 87.785 43.3913C87.294 43.1941 86.9176 42.8882 86.656 42.4737C86.3985 42.0592 86.2737 41.538 86.2818 40.9101V32.0057ZM95.5635 38.2116V43.5H92.6115V31.1364H95.4669V35.9297H95.5696C95.7789 35.3582 96.1209 34.9114 96.5959 34.5895C97.0748 34.2675 97.6604 34.1065 98.3526 34.1065C99.0046 34.1065 99.5721 34.2514 100.055 34.5412C100.538 34.8269 100.912 35.2314 101.178 35.7546C101.448 36.2778 101.58 36.8895 101.576 37.5898V43.5H98.6243V38.1694C98.6283 37.6542 98.4995 37.2518 98.2379 36.962C97.9763 36.6722 97.608 36.5273 97.1331 36.5273C96.8232 36.5273 96.5496 36.5958 96.3121 36.7326C96.0787 36.8654 95.8956 37.0566 95.7628 37.3061C95.634 37.5556 95.5676 37.8575 95.5635 38.2116ZM109.402 39.4975V34.2273H112.348V43.5H109.535V41.7734H109.438C109.233 42.3409 108.883 42.7917 108.387 43.1257C107.896 43.4557 107.303 43.6207 106.607 43.6207C105.975 43.6207 105.419 43.4758 104.94 43.1861C104.461 42.8963 104.089 42.4918 103.824 41.9726C103.558 41.4494 103.423 40.8377 103.419 40.1374V34.2273H106.371V39.5579C106.375 40.061 106.508 40.4574 106.77 40.7471C107.031 41.0369 107.387 41.1818 107.838 41.1818C108.132 41.1818 108.396 41.1174 108.629 40.9886C108.866 40.8558 109.054 40.6646 109.19 40.4151C109.331 40.1616 109.402 39.8557 109.402 39.4975ZM114.227 43.5V31.1364H117.179V35.815H117.239C117.36 35.5333 117.531 35.2616 117.752 35C117.978 34.7384 118.263 34.5251 118.61 34.3601C118.96 34.191 119.378 34.1065 119.865 34.1065C120.509 34.1065 121.111 34.2756 121.67 34.6136C122.234 34.9517 122.688 35.4729 123.035 36.1772C123.381 36.8815 123.554 37.779 123.554 38.8697C123.554 39.9201 123.387 40.7995 123.053 41.5078C122.723 42.2161 122.276 42.7474 121.713 43.1016C121.153 43.4557 120.531 43.6328 119.847 43.6328C119.38 43.6328 118.976 43.5563 118.634 43.4034C118.292 43.2505 118.004 43.0492 117.77 42.7997C117.541 42.5502 117.364 42.2825 117.239 41.9968H117.149V43.5H114.227ZM117.118 38.8636C117.118 39.3627 117.185 39.7973 117.318 40.1676C117.454 40.5379 117.65 40.8256 117.903 41.0309C118.161 41.2321 118.469 41.3327 118.827 41.3327C119.189 41.3327 119.497 41.2321 119.75 41.0309C120.004 40.8256 120.195 40.5379 120.324 40.1676C120.457 39.7973 120.523 39.3627 120.523 38.8636C120.523 38.3646 120.457 37.9319 120.324 37.5657C120.195 37.1994 120.004 36.9157 119.75 36.7145C119.501 36.5132 119.193 36.4126 118.827 36.4126C118.465 36.4126 118.157 36.5112 117.903 36.7084C117.65 36.9056 117.454 37.1874 117.318 37.5536C117.185 37.9199 117.118 38.3565 117.118 38.8636Z" fill="#F7F7F7"/>
</g>
<defs>
<filter id="filter0_d_1_50" x="6.28571" y="2.28571" width="51.4286" height="51.4286" filterUnits="userSpaceOnUse" color-interpolation-filters="sRGB">
<feFlood flood-opacity="0" result="BackgroundImageFix"/>
<feColorMatrix in="SourceAlpha" type="matrix" values="0 0 0 0 0 0 0 0 0 0 0 0 0 0 0 0 0 0 127 0" result="hardAlpha"/>
<feOffset/>
<feGaussianBlur stdDeviation="2.85714"/>
<feComposite in2="hardAlpha" operator="out"/>
<feColorMatrix type="matrix" values="0 0 0 0 0 0 0 0 0 0 0 0 0 0 0 0 0 0 0.25 0"/>
<feBlend mode="normal" in2="BackgroundImageFix" result="effect1_dropShadow_1_50"/>
<feBlend mode="normal" in="SourceGraphic" in2="effect1_dropShadow_1_50" result="shape"/>
</filter>
<filter id="filter1_d_1_50" x="54.4" y="3.9" width="103.2" height="48.2" filterUnits="userSpaceOnUse" color-interpolation-filters="sRGB">
<feFlood flood-opacity="0" result="BackgroundImageFix"/>
<feColorMatrix in="SourceAlpha" type="matrix" values="0 0 0 0 0 0 0 0 0 0 0 0 0 0 0 0 0 0 127 0" result="hardAlpha"/>
<feOffset/>
<feGaussianBlur stdDeviation="2.8"/>
<feComposite in2="hardAlpha" operator="out"/>
<feColorMatrix type="matrix" values="0 0 0 0 0 0 0 0 0 0 0 0 0 0 0 0 0 0 0.25 0"/>
<feBlend mode="normal" in2="BackgroundImageFix" result="effect1_dropShadow_1_50"/>
<feBlend mode="normal" in="SourceGraphic" in2="effect1_dropShadow_1_50" result="shape"/>
</filter>
<linearGradient id="paint0_linear_1_50" x1="82" y1="0" x2="82" y2="56" gradientUnits="userSpaceOnUse">
<stop stop-color="#4A90D9"/>
<stop offset="1" stop-color="#24486D"/>
</linearGradient>
<clipPath id="clip0_1_50">
<rect width="40" height="38" fill="white" transform="translate(12 9)"/>
</clipPath>
</defs>
</svg>
