<svg width="167" height="56" viewBox="0 0 167 56" fill="none" xmlns="http://www.w3.org/2000/svg">
<rect width="167" height="56" rx="8" fill="url(#paint0_linear_1_50)"/>
<rect x="1.05" y="1.05" width="164.9" height="53.9" rx="6.95" stroke="white" stroke-opacity="0.15" stroke-width="2.1"/>
<g filter="url(#filter0_d_1_50)">
<g clip-path="url(#clip0_1_50)">
<path d="M45 7H19V49H45V7Z" fill="#E95420"/>
<path d="M24.9448 36.6331C26.4313 36.6331 27.6363 35.3967 27.6363 33.8716C27.6363 32.3465 26.4313 31.1101 24.9448 31.1101C23.4583 31.1101 22.2533 32.3465 22.2533 33.8716C22.2533 35.3967 23.4583 36.6331 24.9448 36.6331Z" fill="white"/>
<path d="M36.1549 30.5777C37.6414 30.5777 38.8464 29.3414 38.8464 27.8162C38.8464 26.2911 37.6414 25.0547 36.1549 25.0547C34.6685 25.0547 33.4634 26.2911 33.4634 27.8162C33.4634 29.3414 34.6685 30.5777 36.1549 30.5777Z" fill="white"/>
<path d="M31.0155 40.9801C29.0762 40.5538 27.4562 39.2833 26.5454 37.4815C25.828 37.8164 25.0205 37.9183 24.2438 37.7713C25.346 40.5485 27.6834 42.5656 30.5529 43.1967C31.1823 43.3353 31.824 43.4024 32.4646 43.3982C31.9703 42.7315 31.695 41.9272 31.6766 41.0893C31.4545 41.0641 31.2335 41.0273 31.0165 40.979L31.0155 40.9801Z" fill="white"/>
<path d="M35.5491 43.7563C37.0355 43.7563 38.2406 42.5199 38.2406 40.9948C38.2406 39.4697 37.0355 38.2333 35.5491 38.2333C34.0626 38.2333 32.8576 39.4697 32.8576 40.9948C32.8576 42.5199 34.0626 43.7563 35.5491 43.7563Z" fill="white"/>
<path d="M39.2947 39.9805C40.1318 38.8979 40.7212 37.618 41.0047 36.2582C41.5 33.8863 41.0375 31.3978 39.7357 29.3797C39.4256 30.1294 38.8996 30.7625 38.2222 31.1983C38.9488 32.6032 39.1698 34.2244 38.8444 35.7836C38.6847 36.547 38.4033 37.2662 38.0072 37.9235C38.6407 38.4569 39.0879 39.1741 39.2957 39.9815L39.2947 39.9805Z" fill="white"/>
<path d="M24.7371 29.911C24.8056 29.9068 24.8742 29.9057 24.9417 29.9057C25.214 29.9057 25.4852 29.9351 25.7543 29.995C26.1933 30.0916 26.6058 30.2617 26.9834 30.5032C28.1951 28.715 30.1508 27.6419 32.2691 27.602C32.2804 27.3931 32.308 27.1852 32.35 26.9804C32.4738 26.3893 32.7256 25.8359 33.0858 25.3624C29.7005 25.0873 26.4113 26.8796 24.736 29.912L24.7371 29.911Z" fill="white"/>
</g>
</g>
<g filter="url(#filter1_d_1_50)">
<path d="M62.2613 24.5H60.3977L64.5852 12.8636H66.6136L70.8011 24.5H68.9375L65.6477 14.9773H65.5568L62.2613 24.5ZM62.5738 19.9432H68.6193V21.4204H62.5738V19.9432ZM78.7173 15.7727L75.5525 24.5H73.7344L70.5639 15.7727H72.3878L74.598 22.4886H74.6889L76.8934 15.7727H78.7173ZM82.6037 24.6932C82.0506 24.6932 81.5506 24.5909 81.1037 24.3864C80.6567 24.178 80.3025 23.8769 80.0412 23.4829C79.7836 23.089 79.6548 22.6061 79.6548 22.0341C79.6548 21.5417 79.7495 21.1364 79.9389 20.8182C80.1283 20.5 80.384 20.2481 80.7059 20.0625C81.0279 19.8769 81.3878 19.7367 81.7855 19.642C82.1832 19.5473 82.5885 19.4754 83.0014 19.4261C83.5241 19.3655 83.9484 19.3163 84.2741 19.2784C84.5999 19.2367 84.8366 19.1704 84.9844 19.0795C85.1321 18.9886 85.2059 18.8409 85.2059 18.6364V18.5966C85.2059 18.1004 85.0658 17.7159 84.7855 17.4432C84.509 17.1704 84.0961 17.0341 83.5469 17.0341C82.9749 17.0341 82.5241 17.161 82.1946 17.4148C81.8688 17.6648 81.6434 17.9432 81.5184 18.25L79.9219 17.8864C80.1112 17.3561 80.3878 16.928 80.7514 16.6023C81.1188 16.2727 81.5412 16.0341 82.0184 15.8864C82.4957 15.7348 82.9976 15.6591 83.5241 15.6591C83.8726 15.6591 84.2419 15.7008 84.6321 15.7841C85.026 15.8636 85.3934 16.0114 85.7344 16.2273C86.079 16.4432 86.3612 16.7519 86.5809 17.1534C86.8006 17.5511 86.9105 18.0682 86.9105 18.7045V24.5H85.2514V23.3068H85.1832C85.0734 23.5265 84.9086 23.7424 84.6889 23.9545C84.4692 24.1667 84.187 24.3428 83.8423 24.4829C83.4976 24.6231 83.0847 24.6932 82.6037 24.6932ZM82.973 23.3295C83.4427 23.3295 83.8442 23.2367 84.1775 23.0511C84.5147 22.8655 84.7703 22.6231 84.9446 22.3239C85.1226 22.0208 85.2116 21.697 85.2116 21.3523V20.2273C85.151 20.2879 85.0336 20.3447 84.8594 20.3977C84.6889 20.447 84.4938 20.4905 84.2741 20.5284C84.0544 20.5625 83.8404 20.5947 83.6321 20.625C83.4237 20.6515 83.2495 20.6742 83.1094 20.6932C82.7798 20.7348 82.4787 20.8049 82.2059 20.9034C81.937 21.0019 81.7211 21.1439 81.5582 21.3295C81.3991 21.5114 81.3196 21.7538 81.3196 22.0568C81.3196 22.4773 81.4749 22.7954 81.7855 23.0114C82.0961 23.2235 82.4919 23.3295 82.973 23.3295ZM89.1733 24.5V15.7727H90.8721V24.5H89.1733ZM90.0312 14.4261C89.7358 14.4261 89.482 14.3276 89.2699 14.1307C89.0615 13.9299 88.9574 13.6913 88.9574 13.4148C88.9574 13.1345 89.0615 12.8958 89.2699 12.6989C89.482 12.4981 89.7358 12.3977 90.0312 12.3977C90.3267 12.3977 90.5786 12.4981 90.7869 12.6989C90.999 12.8958 91.1051 13.1345 91.1051 13.4148C91.1051 13.6913 90.999 13.9299 90.7869 14.1307C90.5786 14.3276 90.3267 14.4261 90.0312 14.4261ZM94.8565 12.8636V24.5H93.1576V12.8636H94.8565ZM99.6818 24.6932C99.1288 24.6932 98.6288 24.5909 98.1818 24.3864C97.7348 24.178 97.3807 23.8769 97.1193 23.4829C96.8617 23.089 96.7329 22.6061 96.7329 22.0341C96.7329 21.5417 96.8276 21.1364 97.017 20.8182C97.2064 20.5 97.4621 20.2481 97.7841 20.0625C98.106 19.8769 98.4659 19.7367 98.8636 19.642C99.2613 19.5473 99.6666 19.4754 100.08 19.4261C100.602 19.3655 101.026 19.3163 101.352 19.2784C101.678 19.2367 101.915 19.1704 102.062 19.0795C102.21 18.9886 102.284 18.8409 102.284 18.6364V18.5966C102.284 18.1004 102.144 17.7159 101.864 17.4432C101.587 17.1704 101.174 17.0341 100.625 17.0341C100.053 17.0341 99.6022 17.161 99.2727 17.4148C98.9469 17.6648 98.7216 17.9432 98.5966 18.25L97 17.8864C97.1894 17.3561 97.4659 16.928 97.8295 16.6023C98.1969 16.2727 98.6193 16.0341 99.0966 15.8864C99.5738 15.7348 100.076 15.6591 100.602 15.6591C100.951 15.6591 101.32 15.7008 101.71 15.7841C102.104 15.8636 102.472 16.0114 102.812 16.2273C103.157 16.4432 103.439 16.7519 103.659 17.1534C103.879 17.5511 103.989 18.0682 103.989 18.7045V24.5H102.33V23.3068H102.261C102.151 23.5265 101.987 23.7424 101.767 23.9545C101.547 24.1667 101.265 24.3428 100.92 24.4829C100.576 24.6231 100.163 24.6932 99.6818 24.6932ZM100.051 23.3295C100.521 23.3295 100.922 23.2367 101.256 23.0511C101.593 22.8655 101.848 22.6231 102.023 22.3239C102.201 22.0208 102.29 21.697 102.29 21.3523V20.2273C102.229 20.2879 102.112 20.3447 101.937 20.3977C101.767 20.447 101.572 20.4905 101.352 20.5284C101.133 20.5625 100.919 20.5947 100.71 20.625C100.502 20.6515 100.328 20.6742 100.187 20.6932C99.8579 20.7348 99.5568 20.8049 99.2841 20.9034C99.0151 21.0019 98.7992 21.1439 98.6363 21.3295C98.4772 21.5114 98.3977 21.7538 98.3977 22.0568C98.3977 22.4773 98.553 22.7954 98.8636 23.0114C99.1742 23.2235 99.57 23.3295 100.051 23.3295ZM106.388 24.5V12.8636H108.087V17.1875H108.189C108.287 17.0057 108.429 16.7954 108.615 16.5568C108.801 16.3182 109.058 16.1098 109.388 15.9318C109.717 15.75 110.153 15.6591 110.695 15.6591C111.399 15.6591 112.028 15.8371 112.581 16.1932C113.134 16.5492 113.568 17.0625 113.882 17.7329C114.2 18.4034 114.359 19.2102 114.359 20.1534C114.359 21.0966 114.202 21.9053 113.888 22.5795C113.573 23.25 113.142 23.767 112.592 24.1307C112.043 24.4905 111.416 24.6704 110.712 24.6704C110.181 24.6704 109.748 24.5814 109.41 24.4034C109.077 24.2254 108.816 24.017 108.626 23.7784C108.437 23.5398 108.291 23.3276 108.189 23.142H108.047V24.5H106.388ZM108.053 20.1364C108.053 20.75 108.142 21.2879 108.32 21.75C108.498 22.2121 108.755 22.5739 109.092 22.8352C109.429 23.0928 109.842 23.2216 110.331 23.2216C110.839 23.2216 111.263 23.0871 111.604 22.8182C111.945 22.5454 112.202 22.1761 112.376 21.7102C112.554 21.2443 112.643 20.7197 112.643 20.1364C112.643 19.5606 112.556 19.0436 112.382 18.5852C112.212 18.1269 111.954 17.7651 111.609 17.5C111.268 17.2348 110.842 17.1023 110.331 17.1023C109.839 17.1023 109.422 17.2292 109.081 17.4829C108.744 17.7367 108.488 18.0909 108.314 18.5454C108.14 19 108.053 19.5303 108.053 20.1364ZM117.966 12.8636V24.5H116.267V12.8636H117.966ZM124.013 24.6761C123.153 24.6761 122.412 24.4924 121.791 24.125C121.174 23.7538 120.696 23.2329 120.359 22.5625C120.026 21.8883 119.859 21.0985 119.859 20.1932C119.859 19.2992 120.026 18.5114 120.359 17.8295C120.696 17.1477 121.166 16.6155 121.768 16.2329C122.374 15.8504 123.083 15.6591 123.893 15.6591C124.386 15.6591 124.863 15.7405 125.325 15.9034C125.787 16.0663 126.202 16.322 126.57 16.6704C126.937 17.0189 127.227 17.4716 127.439 18.0284C127.651 18.5814 127.757 19.2538 127.757 20.0454V20.6477H120.82V19.375H126.092C126.092 18.928 126.001 18.5322 125.82 18.1875C125.638 17.839 125.382 17.5644 125.053 17.3636C124.727 17.1629 124.344 17.0625 123.905 17.0625C123.428 17.0625 123.011 17.1799 122.655 17.4148C122.303 17.6458 122.03 17.9489 121.837 18.3239C121.647 18.6951 121.553 19.0985 121.553 19.5341V20.5284C121.553 21.1117 121.655 21.6079 121.859 22.017C122.068 22.4261 122.357 22.7386 122.729 22.9545C123.1 23.1667 123.534 23.2727 124.03 23.2727C124.352 23.2727 124.645 23.2273 124.91 23.1364C125.176 23.0417 125.405 22.9015 125.598 22.7159C125.791 22.5303 125.939 22.3011 126.041 22.0284L127.649 22.3182C127.52 22.7917 127.289 23.2064 126.956 23.5625C126.626 23.9148 126.212 24.1894 125.712 24.3864C125.215 24.5795 124.649 24.6761 124.013 24.6761ZM138.03 15.7727V17.1364H133.098V15.7727H138.03ZM134.45 24.5V14.7614C134.45 14.2159 134.57 13.7633 134.808 13.4034C135.047 13.0398 135.363 12.7689 135.757 12.5909C136.151 12.4091 136.579 12.3182 137.041 12.3182C137.382 12.3182 137.674 12.3466 137.916 12.4034C138.159 12.4564 138.339 12.5057 138.456 12.5511L138.058 13.9261C137.979 13.9034 137.876 13.8769 137.751 13.8466C137.626 13.8125 137.475 13.7954 137.297 13.7954C136.884 13.7954 136.589 13.8977 136.41 14.1023C136.236 14.3068 136.149 14.6023 136.149 14.9886V24.5H134.45ZM143.115 24.6761C142.297 24.6761 141.583 24.4886 140.973 24.1136C140.363 23.7386 139.89 23.214 139.553 22.5398C139.215 21.8655 139.047 21.0776 139.047 20.1761C139.047 19.2708 139.215 18.4792 139.553 17.8011C139.89 17.1231 140.363 16.5966 140.973 16.2216C141.583 15.8466 142.297 15.6591 143.115 15.6591C143.933 15.6591 144.647 15.8466 145.257 16.2216C145.867 16.5966 146.34 17.1231 146.678 17.8011C147.015 18.4792 147.183 19.2708 147.183 20.1761C147.183 21.0776 147.015 21.8655 146.678 22.5398C146.34 23.214 145.867 23.7386 145.257 24.1136C144.647 24.4886 143.933 24.6761 143.115 24.6761ZM143.121 23.25C143.651 23.25 144.09 23.1098 144.439 22.8295C144.787 22.5492 145.045 22.1761 145.212 21.7102C145.382 21.2443 145.467 20.7311 145.467 20.1704C145.467 19.6136 145.382 19.1023 145.212 18.6364C145.045 18.1667 144.787 17.7898 144.439 17.5057C144.09 17.2216 143.651 17.0795 143.121 17.0795C142.587 17.0795 142.143 17.2216 141.791 17.5057C141.443 17.7898 141.183 18.1667 141.013 18.6364C140.846 19.1023 140.763 19.6136 140.763 20.1704C140.763 20.7311 140.846 21.2443 141.013 21.7102C141.183 22.1761 141.443 22.5492 141.791 22.8295C142.143 23.1098 142.587 23.25 143.121 23.25ZM149.08 24.5V15.7727H150.722V17.1591H150.812C150.972 16.6894 151.252 16.3201 151.653 16.0511C152.059 15.7784 152.517 15.642 153.028 15.642C153.134 15.642 153.259 15.6458 153.403 15.6534C153.551 15.661 153.667 15.6704 153.75 15.6818V17.3068C153.682 17.2879 153.561 17.267 153.386 17.2443C153.212 17.2178 153.038 17.2045 152.864 17.2045C152.462 17.2045 152.104 17.2898 151.79 17.4602C151.479 17.6269 151.233 17.8598 151.051 18.1591C150.869 18.4545 150.778 18.7917 150.778 19.1704V24.5H149.08Z" fill="#E8E8E8"/>
<path d="M68.4155 31.1364H71.3977V39.1111C71.3977 40.0328 71.1784 40.8357 70.7397 41.5199C70.301 42.2 69.6893 42.7273 68.9045 43.1016C68.1197 43.4718 67.2081 43.6569 66.1697 43.6569C65.1193 43.6569 64.2017 43.4718 63.4169 43.1016C62.6321 42.7273 62.0224 42.2 61.5877 41.5199C61.153 40.8357 60.9357 40.0328 60.9357 39.1111V31.1364H63.924V38.8516C63.924 39.2782 64.0166 39.6585 64.2017 39.9925C64.3908 40.3266 64.6545 40.5882 64.9925 40.7773C65.3306 40.9665 65.723 41.0611 66.1697 41.0611C66.6165 41.0611 67.0068 40.9665 67.3409 40.7773C67.679 40.5882 67.9426 40.3266 68.1317 39.9925C68.3209 39.6585 68.4155 39.2782 68.4155 38.8516V31.1364ZM73.2707 43.5V31.1364H76.2227V35.815H76.2831C76.4038 35.5333 76.5749 35.2616 76.7962 35C77.0216 34.7384 77.3074 34.5251 77.6535 34.3601C78.0036 34.191 78.4222 34.1065 78.9092 34.1065C79.5531 34.1065 80.1548 34.2756 80.7142 34.6136C81.2776 34.9517 81.7324 35.4729 82.0785 36.1772C82.4247 36.8815 82.5977 37.779 82.5977 38.8697C82.5977 39.9201 82.4307 40.7995 82.0967 41.5078C81.7666 42.2161 81.3199 42.7474 80.7565 43.1016C80.197 43.4557 79.5752 43.6328 78.891 43.6328C78.4242 43.6328 78.0197 43.5563 77.6776 43.4034C77.3355 43.2505 77.0478 43.0492 76.8143 42.7997C76.5849 42.5502 76.4079 42.2825 76.2831 41.9968H76.1925V43.5H73.2707ZM76.1624 38.8636C76.1624 39.3627 76.2288 39.7973 76.3616 40.1676C76.4984 40.5379 76.6936 40.8256 76.9472 41.0309C77.2047 41.2321 77.5126 41.3327 77.8708 41.3327C78.233 41.3327 78.5409 41.2321 78.7945 41.0309C79.048 40.8256 79.2392 40.5379 79.368 40.1676C79.5008 39.7973 79.5672 39.3627 79.5672 38.8636C79.5672 38.3646 79.5008 37.9319 79.368 37.5657C79.2392 37.1994 79.048 36.9157 78.7945 36.7145C78.5449 36.5132 78.237 36.4126 77.8708 36.4126C77.5086 36.4126 77.2007 36.5112 76.9472 36.7084C76.6936 36.9056 76.4984 37.1874 76.3616 37.5536C76.2288 37.9199 76.1624 38.3565 76.1624 38.8636ZM90.1273 39.4975V34.2273H93.0733V43.5H90.2601V41.7734H90.1635C89.9583 42.3409 89.6081 42.7917 89.1131 43.1257C88.6221 43.4557 88.0284 43.6207 87.3322 43.6207C86.7003 43.6207 86.1449 43.4758 85.666 43.1861C85.1871 42.8963 84.8148 42.4918 84.5492 41.9726C84.2835 41.4494 84.1487 40.8377 84.1447 40.1374V34.2273H87.0967V39.5579C87.1008 40.061 87.2336 40.4574 87.4952 40.7471C87.7568 41.0369 88.113 41.1818 88.5637 41.1818C88.8575 41.1818 89.1211 41.1174 89.3546 40.9886C89.592 40.8558 89.7792 40.6646 89.916 40.4151C90.0569 40.1616 90.1273 39.8557 90.1273 39.4975ZM97.9044 38.2116V43.5H94.9523V34.2273H97.7595V35.9297H97.8621C98.0674 35.3622 98.4175 34.9175 98.9125 34.5955C99.4076 34.2695 99.9972 34.1065 100.681 34.1065C101.333 34.1065 101.899 34.2534 102.378 34.5472C102.861 34.837 103.235 35.2435 103.501 35.7667C103.77 36.2859 103.903 36.8936 103.899 37.5898V43.5H100.947V38.1694C100.951 37.6542 100.82 37.2518 100.555 36.962C100.293 36.6722 99.9287 36.5273 99.4619 36.5273C99.152 36.5273 98.8783 36.5958 98.6409 36.7326C98.4074 36.8654 98.2263 37.0566 98.0975 37.3061C97.9728 37.5556 97.9084 37.8575 97.9044 38.2116ZM110.961 34.2273V36.4006H105.111V34.2273H110.961ZM106.336 32.0057H109.288V40.5842C109.288 40.7653 109.317 40.9122 109.373 41.0248C109.433 41.1335 109.52 41.212 109.633 41.2603C109.745 41.3046 109.88 41.3267 110.037 41.3267C110.15 41.3267 110.268 41.3166 110.393 41.2965C110.522 41.2724 110.619 41.2522 110.683 41.2361L111.13 43.3672C110.989 43.4074 110.79 43.4577 110.532 43.5181C110.279 43.5785 109.975 43.6167 109.621 43.6328C108.928 43.665 108.335 43.5845 107.84 43.3913C107.349 43.1941 106.972 42.8882 106.711 42.4737C106.453 42.0592 106.328 41.538 106.336 40.9101V32.0057ZM118.45 39.4975V34.2273H121.396V43.5H118.582V41.7734H118.486C118.281 42.3409 117.93 42.7917 117.435 43.1257C116.944 43.4557 116.351 43.6207 115.654 43.6207C115.023 43.6207 114.467 43.4758 113.988 43.1861C113.509 42.8963 113.137 42.4918 112.871 41.9726C112.606 41.4494 112.471 40.8377 112.467 40.1374V34.2273H115.419V39.5579C115.423 40.061 115.556 40.4574 115.817 40.7471C116.079 41.0369 116.435 41.1818 116.886 41.1818C117.18 41.1818 117.443 41.1174 117.677 40.9886C117.914 40.8558 118.101 40.6646 118.238 40.4151C118.379 40.1616 118.45 39.8557 118.45 39.4975Z" fill="#F22F21"/>
</g>
<defs>
<filter id="filter0_d_1_50" x="6.28571" y="1.28571" width="51.4286" height="53.4286" filterUnits="userSpaceOnUse" color-interpolation-filters="sRGB">
<feFlood flood-opacity="0" result="BackgroundImageFix"/>
<feColorMatrix in="SourceAlpha" type="matrix" values="0 0 0 0 0 0 0 0 0 0 0 0 0 0 0 0 0 0 127 0" result="hardAlpha"/>
<feOffset/>
<feGaussianBlur stdDeviation="2.85714"/>
<feComposite in2="hardAlpha" operator="out"/>
<feColorMatrix type="matrix" values="0 0 0 0 0 0 0 0 0 0 0 0 0 0 0 0 0 0 0.25 0"/>
<feBlend mode="normal" in2="BackgroundImageFix" result="effect1_dropShadow_1_50"/>
<feBlend mode="normal" in="SourceGraphic" in2="effect1_dropShadow_1_50" result="shape"/>
</filter>
<filter id="filter1_d_1_50" x="54.4" y="3.9" width="106.2" height="48.2" filterUnits="userSpaceOnUse" color-interpolation-filters="sRGB">
<feFlood flood-opacity="0" result="BackgroundImageFix"/>
<feColorMatrix in="SourceAlpha" type="matrix" values="0 0 0 0 0 0 0 0 0 0 0 0 0 0 0 0 0 0 127 0" result="hardAlpha"/>
<feOffset/>
<feGaussianBlur stdDeviation="2.8"/>
<feComposite in2="hardAlpha" operator="out"/>
<feColorMatrix type="matrix" values="0 0 0 0 0 0 0 0 0 0 0 0 0 0 0 0 0 0 0.25 0"/>
<feBlend mode="normal" in2="BackgroundImageFix" result="effect1_dropShadow_1_50"/>
<feBlend mode="normal" in="SourceGraphic" in2="effect1_dropShadow_1_50" result="shape"/>
</filter>
<linearGradient id="paint0_linear_1_50" x1="83.5" y1="0" x2="83.5" y2="56" gradientUnits="userSpaceOnUse">
<stop stop-color="#321513"/>
<stop offset="1" stop-color="#210E0C"/>
</linearGradient>
<clipPath id="clip0_1_50">
<rect width="26" height="42" fill="white" transform="translate(19 7)"/>
</clipPath>
</defs>
</svg>
