<svg width="40" height="40" viewBox="0 0 40 40" fill="none" xmlns="http://www.w3.org/2000/svg">
<rect width="40" height="40" rx="8" fill="url(#paint0_linear_1_68)"/>
<rect x="1.05" y="1.05" width="37.9" height="37.9" rx="6.95" stroke="white" stroke-opacity="0.15" stroke-width="2.1"/>
<g clip-path="url(#clip0_1_68)">
<path d="M31.2873 13.5036L31.2873 26.4964L20 32.9928V20L31.2873 13.5036Z" fill="white"/>
<path d="M20 20V7.00723L8.71271 13.5036L20 20Z" fill="white"/>
<path d="M9.21756 11.6253C8.05017 12.2972 7.3333 13.535 7.3333 14.8788V25.1214C7.3333 26.4652 8.05017 27.703 9.21756 28.3749L18.1157 33.4962C19.2831 34.1681 20.7168 34.1681 21.8842 33.4962L30.7824 28.3749C31.9498 27.703 32.6666 26.4652 32.6666 25.1214V14.8788C32.6666 13.535 31.9498 12.2972 30.7824 11.6253L21.8842 6.50402C20.7168 5.83213 19.2831 5.83213 18.1157 6.50402L9.21756 11.6253ZM20.5049 8.88571L29.403 14.007C29.714 14.186 29.9079 14.5208 29.9079 14.8788V25.1214C29.9079 25.4794 29.714 25.8142 29.403 25.9932L20.5049 31.1145C20.1938 31.2935 19.8061 31.2935 19.4951 31.1145L10.5969 25.9932C10.2859 25.8142 10.092 25.4794 10.092 25.1214V14.8788C10.092 14.5208 10.2859 14.186 10.5969 14.007L19.4951 8.88571C19.8061 8.70671 20.1938 8.70671 20.5049 8.88571Z" fill="white"/>
</g>
<defs>
<linearGradient id="paint0_linear_1_68" x1="20" y1="0" x2="20" y2="40" gradientUnits="userSpaceOnUse">
<stop stop-color="#4A90D9"/>
<stop offset="1" stop-color="#24486D"/>
</linearGradient>
<clipPath id="clip0_1_68">
<rect width="25.3333" height="28" fill="white" transform="translate(7.33333 6)"/>
</clipPath>
</defs>
</svg>
