<svg width="40" height="40" viewBox="0 0 40 40" fill="none" xmlns="http://www.w3.org/2000/svg">
<g clip-path="url(#clip0_1_68)">
<rect width="40" height="40" rx="8" fill="url(#paint0_linear_1_68)"/>
<g filter="url(#filter0_d_1_68)">
<g clip-path="url(#clip1_1_68)">
<path d="M12.4456 18.9906C16.0055 18.9906 18.8913 16.0829 18.8913 12.4961C18.8913 8.90933 16.0055 6.00166 12.4456 6.00166C8.88581 6.00166 6 8.90933 6 12.4961C6 16.0829 8.88581 18.9906 12.4456 18.9906Z" fill="white"/>
<path d="M15.121 21.2195H9.66479C7.94287 21.2195 6.54699 22.626 6.54699 24.3609V29.8586C6.54699 31.5935 7.94287 33 9.66479 33H15.121C16.843 33 18.2389 31.5935 18.2389 29.8586V24.3609C18.2389 22.626 16.843 21.2195 15.121 21.2195Z" fill="white"/>
<path d="M33.0691 10.8665L31.8946 10.1832L25.1356 6.25132C24.8526 6.08669 24.5316 6.00001 24.2048 6C23.878 6 23.557 6.08666 23.274 6.25129C22.991 6.41592 22.756 6.6527 22.5926 6.93785C22.4292 7.22299 22.3432 7.54645 22.3432 7.87571L22.3433 17.1059C22.3434 17.4351 22.4294 17.7586 22.5928 18.0437C22.7561 18.3288 22.9911 18.5656 23.2741 18.7302C23.5571 18.8949 23.8781 18.9815 24.2049 18.9815C24.5317 18.9815 24.8527 18.8949 25.1357 18.7302L33.0692 14.1153C33.3522 13.9507 33.5872 13.7139 33.7506 13.4288C33.914 13.1436 34 12.8202 34 12.4909C34 12.1616 33.914 11.8382 33.7506 11.553C33.5872 11.2679 33.3521 11.0311 33.0691 10.8665Z" fill="white"/>
<path d="M32.6065 27.1844C32.6065 27.8157 32.1021 28.3239 31.4756 28.3239H22.4281C21.8016 28.3239 21.2972 27.8157 21.2972 27.1844C21.2972 26.5531 21.8016 26.0449 22.4281 26.0449H31.4756C32.1021 26.0449 32.6065 26.5531 32.6065 27.1844ZM26.9518 21.4869C27.5784 21.4869 28.0828 21.9951 28.0828 22.6264V31.7424C28.0828 32.3737 27.5784 32.8819 26.9518 32.8819C26.3253 32.8819 25.8209 32.3737 25.8209 31.7424V22.6264C25.8209 21.9951 26.3253 21.4869 26.9518 21.4869Z" fill="white"/>
</g>
</g>
</g>
<rect x="1.05" y="1.05" width="37.9" height="37.9" rx="6.95" stroke="white" stroke-opacity="0.15" stroke-width="2.1"/>
<defs>
<filter id="filter0_d_1_68" x="0.285715" y="0.285715" width="39.4286" height="39.4286" filterUnits="userSpaceOnUse" color-interpolation-filters="sRGB">
<feFlood flood-opacity="0" result="BackgroundImageFix"/>
<feColorMatrix in="SourceAlpha" type="matrix" values="0 0 0 0 0 0 0 0 0 0 0 0 0 0 0 0 0 0 127 0" result="hardAlpha"/>
<feOffset/>
<feGaussianBlur stdDeviation="2.85714"/>
<feComposite in2="hardAlpha" operator="out"/>
<feColorMatrix type="matrix" values="0 0 0 0 0 0 0 0 0 0 0 0 0 0 0 0 0 0 0.25 0"/>
<feBlend mode="normal" in2="BackgroundImageFix" result="effect1_dropShadow_1_68"/>
<feBlend mode="normal" in="SourceGraphic" in2="effect1_dropShadow_1_68" result="shape"/>
</filter>
<linearGradient id="paint0_linear_1_68" x1="20" y1="0" x2="20" y2="40" gradientUnits="userSpaceOnUse">
<stop stop-color="#4A90D9"/>
<stop offset="1" stop-color="#24486D"/>
</linearGradient>
<clipPath id="clip0_1_68">
<rect width="40" height="40" rx="8" fill="white"/>
</clipPath>
<clipPath id="clip1_1_68">
<rect width="28" height="27" fill="white" transform="translate(6 6)"/>
</clipPath>
</defs>
</svg>
