<svg width="40" height="40" viewBox="0 0 40 40" fill="none" xmlns="http://www.w3.org/2000/svg">
<rect width="40" height="40" rx="8" fill="url(#paint0_linear_1_68)"/>
<rect x="1.05" y="1.05" width="37.9" height="37.9" rx="6.95" stroke="black" stroke-opacity="0.15" stroke-width="2.1"/>
<g filter="url(#filter0_d_1_68)">
<g clip-path="url(#clip0_1_68)">
<g filter="url(#filter1_d_1_68)">
<mask id="mask0_1_68" style="mask-type:luminance" maskUnits="userSpaceOnUse" x="9" y="9" width="22" height="22">
<path d="M30.8889 9.65556H9.11111V30.3444H30.8889V9.65556Z" fill="white"/>
</mask>
<g mask="url(#mask0_1_68)">
<path d="M14.1244 19.6095C16.8931 19.6095 19.1376 17.3815 19.1376 14.6331C19.1376 11.8847 16.8931 9.65668 14.1244 9.65668C11.3556 9.65668 9.11111 11.8847 9.11111 14.6331C9.11111 17.3815 11.3556 19.6095 14.1244 19.6095Z" fill="white"/>
<path d="M16.2053 21.3176H11.9615C10.6222 21.3176 9.53654 22.3953 9.53654 23.7247V27.9373C9.53654 29.2667 10.6222 30.3444 11.9615 30.3444H16.2053C17.5446 30.3444 18.6302 29.2667 18.6302 27.9373V23.7247C18.6302 22.3953 17.5446 21.3176 16.2053 21.3176Z" fill="white"/>
<path d="M30.1649 13.3845L29.2514 12.861L23.9944 9.84813C23.7742 9.72198 23.5246 9.65556 23.2704 9.65556C23.0162 9.65555 22.7665 9.72196 22.5464 9.8481C22.3264 9.97425 22.1435 10.1557 22.0165 10.3742C21.8894 10.5927 21.8225 10.8405 21.8225 11.0928L21.8226 18.1655C21.8226 18.4178 21.8895 18.6656 22.0166 18.8841C22.1436 19.1026 22.3264 19.284 22.5465 19.4101C22.7666 19.5363 23.0163 19.6027 23.2705 19.6027C23.5246 19.6027 23.7743 19.5363 23.9944 19.4101L30.1649 15.8739C30.385 15.7478 30.5678 15.5664 30.6949 15.3479C30.822 15.1294 30.8889 14.8815 30.8889 14.6292C30.8889 14.3769 30.822 14.1291 30.6949 13.9106C30.5678 13.6921 30.385 13.5107 30.1649 13.3845Z" fill="white"/>
<path d="M29.8051 25.8882C29.8051 26.3719 29.4127 26.7613 28.9254 26.7613H21.8885C21.4012 26.7613 21.0089 26.3719 21.0089 25.8882C21.0089 25.4045 21.4012 25.015 21.8885 25.015H28.9254C29.4127 25.015 29.8051 25.4045 29.8051 25.8882ZM25.407 21.5225C25.8943 21.5225 26.2866 21.9119 26.2866 22.3956V29.3808C26.2866 29.8645 25.8943 30.2539 25.407 30.2539C24.9197 30.2539 24.5274 29.8645 24.5274 29.3808V22.3956C24.5274 21.9119 24.9197 21.5225 25.407 21.5225Z" fill="white"/>
</g>
</g>
</g>
</g>
<defs>
<filter id="filter0_d_1_68" x="2" y="2" width="36" height="36" filterUnits="userSpaceOnUse" color-interpolation-filters="sRGB">
<feFlood flood-opacity="0" result="BackgroundImageFix"/>
<feColorMatrix in="SourceAlpha" type="matrix" values="0 0 0 0 0 0 0 0 0 0 0 0 0 0 0 0 0 0 127 0" result="hardAlpha"/>
<feOffset/>
<feGaussianBlur stdDeviation="2"/>
<feComposite in2="hardAlpha" operator="out"/>
<feColorMatrix type="matrix" values="0 0 0 0 0 0 0 0 0 0 0 0 0 0 0 0 0 0 0.25 0"/>
<feBlend mode="normal" in2="BackgroundImageFix" result="effect1_dropShadow_1_68"/>
<feBlend mode="normal" in="SourceGraphic" in2="effect1_dropShadow_1_68" result="shape"/>
</filter>
<filter id="filter1_d_1_68" x="3.39683" y="3.94128" width="33.2063" height="32.1174" filterUnits="userSpaceOnUse" color-interpolation-filters="sRGB">
<feFlood flood-opacity="0" result="BackgroundImageFix"/>
<feColorMatrix in="SourceAlpha" type="matrix" values="0 0 0 0 0 0 0 0 0 0 0 0 0 0 0 0 0 0 127 0" result="hardAlpha"/>
<feOffset/>
<feGaussianBlur stdDeviation="2.85714"/>
<feComposite in2="hardAlpha" operator="out"/>
<feColorMatrix type="matrix" values="0 0 0 0 0 0 0 0 0 0 0 0 0 0 0 0 0 0 0.25 0"/>
<feBlend mode="normal" in2="BackgroundImageFix" result="effect1_dropShadow_1_68"/>
<feBlend mode="normal" in="SourceGraphic" in2="effect1_dropShadow_1_68" result="shape"/>
</filter>
<linearGradient id="paint0_linear_1_68" x1="20" y1="0" x2="20" y2="40" gradientUnits="userSpaceOnUse">
<stop stop-color="#4A90D9"/>
<stop offset="1" stop-color="#24486D"/>
</linearGradient>
<clipPath id="clip0_1_68">
<rect width="28" height="28" fill="white" transform="translate(6 6)"/>
</clipPath>
</defs>
</svg>
