<svg width="40" height="40" viewBox="0 0 40 40" fill="none" xmlns="http://www.w3.org/2000/svg">
<g clip-path="url(#clip0_1_68)">
<rect width="40" height="40" rx="8" fill="url(#paint0_linear_1_68)"/>
<g filter="url(#filter0_d_1_68)">
<g clip-path="url(#clip1_1_68)">
<mask id="mask0_1_68" style="mask-type:luminance" maskUnits="userSpaceOnUse" x="6" y="5" width="28" height="30">
<path d="M33.3 5.2999H6.7V34.6999H33.3V5.2999Z" fill="white"/>
</mask>
<g mask="url(#mask0_1_68)">
<path d="M31.8516 13.1787V26.8212L20 33.6424V19.9999L31.8516 13.1787Z" fill="white"/>
<path d="M20 19.9999V6.35751L8.14837 13.1787L20 19.9999Z" fill="white"/>
<path d="M8.67848 11.2065C7.45271 11.912 6.7 13.2117 6.7 14.6226V25.3774C6.7 26.7883 7.45271 28.088 8.67848 28.7935L18.0215 34.1709C19.2473 34.8764 20.7527 34.8764 21.9785 34.1709L31.3215 28.7935C32.5473 28.088 33.3 26.7883 33.3 25.3774V14.6226C33.3 13.2117 32.5473 11.912 31.3215 11.2065L21.9785 5.82911C20.7527 5.12363 19.2473 5.12363 18.0215 5.82911L8.67848 11.2065ZM20.5301 8.32988L29.8732 13.7073C30.1997 13.8952 30.4033 14.2467 30.4033 14.6226V25.3774C30.4033 25.7533 30.1997 26.1048 29.8732 26.2927L20.5301 31.6701C20.2036 31.8581 19.7964 31.8581 19.4698 31.6701L10.1268 26.2927C9.80023 26.1048 9.59667 25.7533 9.59667 25.3774V14.6226C9.59667 14.2467 9.80023 13.8952 10.1268 13.7073L19.4698 8.32988C19.7964 8.14193 20.2036 8.14193 20.5301 8.32988Z" fill="white"/>
</g>
</g>
</g>
</g>
<rect x="1.05" y="1.05" width="37.9" height="37.9" rx="6.95" stroke="black" stroke-opacity="0.15" stroke-width="2.1"/>
<defs>
<filter id="filter0_d_1_68" x="0.285713" y="-0.414282" width="39.4286" height="40.8285" filterUnits="userSpaceOnUse" color-interpolation-filters="sRGB">
<feFlood flood-opacity="0" result="BackgroundImageFix"/>
<feColorMatrix in="SourceAlpha" type="matrix" values="0 0 0 0 0 0 0 0 0 0 0 0 0 0 0 0 0 0 127 0" result="hardAlpha"/>
<feOffset/>
<feGaussianBlur stdDeviation="2.85714"/>
<feComposite in2="hardAlpha" operator="out"/>
<feColorMatrix type="matrix" values="0 0 0 0 0 0 0 0 0 0 0 0 0 0 0 0 0 0 0.25 0"/>
<feBlend mode="normal" in2="BackgroundImageFix" result="effect1_dropShadow_1_68"/>
<feBlend mode="normal" in="SourceGraphic" in2="effect1_dropShadow_1_68" result="shape"/>
</filter>
<linearGradient id="paint0_linear_1_68" x1="20" y1="0" x2="20" y2="40" gradientUnits="userSpaceOnUse">
<stop stop-color="#4A90D9"/>
<stop offset="1" stop-color="#24486D"/>
</linearGradient>
<clipPath id="clip0_1_68">
<rect width="40" height="40" rx="8" fill="white"/>
</clipPath>
<clipPath id="clip1_1_68">
<rect width="26.6" height="29.3999" fill="white" transform="translate(6.7 5.3)"/>
</clipPath>
</defs>
</svg>
