<svg width="236" height="40" viewBox="0 0 236 40" fill="none" xmlns="http://www.w3.org/2000/svg">
<rect width="236" height="40" rx="8" fill="url(#paint0_linear_1_56)"/>
<rect x="1.07143" y="1.07143" width="233.857" height="37.8571" rx="6.92857" stroke="white" stroke-opacity="0.15" stroke-width="2.14286"/>
<g clip-path="url(#clip0_1_56)">
<path d="M8.73767 6.6408V33.3592H10.66V33.9999H7.99999V6H10.66V6.6408H8.73767ZM16.9546 15.1108V16.4623H16.9923C17.353 15.9454 17.7892 15.5469 18.2954 15.2669C18.8015 14.9815 19.3884 14.8415 20.0454 14.8415C20.6754 14.8415 21.2515 14.9654 21.7738 15.2077C22.2961 15.45 22.6892 15.8862 22.9638 16.5C23.26 16.0638 23.6638 15.6761 24.17 15.3423C24.6761 15.0085 25.2792 14.8415 25.9738 14.8415C26.5015 14.8415 26.9915 14.9061 27.4438 15.0354C27.8961 15.1646 28.2784 15.3692 28.6015 15.6546C28.9246 15.94 29.1723 16.3061 29.3553 16.7638C29.533 17.2215 29.6246 17.7707 29.6246 18.4169V25.0992H26.8838V19.44C26.8838 19.1061 26.873 18.7885 26.8461 18.4923C26.8192 18.1961 26.7492 17.9377 26.6361 17.7223C26.5176 17.5015 26.3507 17.3292 26.1246 17.2C25.8984 17.0708 25.5915 17.0061 25.2092 17.0061C24.8215 17.0061 24.5092 17.0815 24.2723 17.2269C24.0354 17.3777 23.8469 17.5661 23.7123 17.8085C23.5776 18.0454 23.4861 18.3146 23.443 18.6215C23.4 18.923 23.373 19.23 23.373 19.5369V25.0992H20.6323V19.4992C20.6323 19.2031 20.6269 18.9123 20.6107 18.6215C20.6 18.3308 20.5407 18.0669 20.4438 17.8192C20.3469 17.5769 20.1854 17.3777 19.9592 17.2323C19.733 17.0869 19.4046 17.0115 18.963 17.0115C18.8338 17.0115 18.6615 17.0385 18.4515 17.0977C18.2415 17.1569 18.0315 17.2646 17.8323 17.4262C17.633 17.5877 17.4607 17.8192 17.3207 18.1207C17.1807 18.4223 17.1107 18.8207 17.1107 19.3107V25.1046H14.37V15.1108H16.9546ZM35.2623 33.3592V6.6408H33.3399V6H35.9999V33.9999H33.3399V33.3592H35.2623Z" fill="#CDD6F4"/>
</g>
<g filter="url(#filter0_d_1_56)">
<path d="M53.6271 18.157H51.7436C51.6712 17.7545 51.5363 17.4003 51.3391 17.0945C51.1419 16.7886 50.9004 16.529 50.6147 16.3157C50.3289 16.1024 50.009 15.9414 49.6548 15.8327C49.3047 15.7241 48.9324 15.6697 48.538 15.6697C47.8256 15.6697 47.1877 15.8488 46.6243 16.207C46.0649 16.5652 45.6222 17.0904 45.2962 17.7827C44.9742 18.4749 44.8132 19.3201 44.8132 20.3182C44.8132 21.3243 44.9742 22.1735 45.2962 22.8658C45.6222 23.558 46.0669 24.0812 46.6303 24.4354C47.1938 24.7895 47.8276 24.9666 48.532 24.9666C48.9223 24.9666 49.2926 24.9143 49.6427 24.8097C49.9969 24.701 50.3169 24.542 50.6026 24.3327C50.8884 24.1235 51.1298 23.8679 51.327 23.566C51.5283 23.2602 51.6671 22.91 51.7436 22.5156L53.6271 22.5217C53.5265 23.1294 53.3313 23.6888 53.0415 24.1999C52.7558 24.707 52.3875 25.1457 51.9368 25.516C51.49 25.8822 50.9789 26.166 50.4034 26.3672C49.8279 26.5684 49.2 26.669 48.5199 26.669C47.4493 26.669 46.4955 26.4155 45.6584 25.9084C44.8213 25.3972 44.1612 24.6668 43.6783 23.717C43.1993 22.7672 42.9599 21.6342 42.9599 20.3182C42.9599 18.9981 43.2013 17.8652 43.6843 16.9194C44.1673 15.9696 44.8273 15.2411 45.6644 14.734C46.5015 14.2229 47.4534 13.9673 48.5199 13.9673C49.1759 13.9673 49.7876 14.0619 50.3551 14.2511C50.9266 14.4362 51.4397 14.7099 51.8945 15.0721C52.3493 15.4303 52.7256 15.869 53.0234 16.3881C53.3212 16.9033 53.5225 17.4929 53.6271 18.157ZM57.5194 20.9943V26.5H55.7144V14.1364H57.4953V18.7365H57.61C57.8273 18.2374 58.1593 17.841 58.6061 17.5472C59.0528 17.2534 59.6364 17.1065 60.3568 17.1065C60.9927 17.1065 61.5481 17.2373 62.023 17.4989C62.5019 17.7605 62.8722 18.1509 63.1338 18.6701C63.3994 19.1852 63.5322 19.8292 63.5322 20.6019V26.5H61.7272V20.8192C61.7272 20.1391 61.5521 19.6119 61.202 19.2376C60.8518 18.8593 60.3648 18.6701 59.741 18.6701C59.3144 18.6701 58.9321 18.7607 58.594 18.9418C58.26 19.1229 57.9963 19.3885 57.8032 19.7386C57.614 20.0848 57.5194 20.5033 57.5194 20.9943ZM68.6395 26.7053C68.0519 26.7053 67.5206 26.5966 67.0457 26.3793C66.5708 26.1579 66.1945 25.8379 65.9168 25.4194C65.6431 25.0008 65.5063 24.4877 65.5063 23.88C65.5063 23.3568 65.6069 22.9261 65.8081 22.5881C66.0094 22.25 66.281 21.9824 66.6231 21.7852C66.9652 21.5879 67.3476 21.439 67.7701 21.3384C68.1927 21.2378 68.6234 21.1613 69.062 21.109C69.6174 21.0446 70.0682 20.9923 70.4143 20.9521C70.7604 20.9078 71.012 20.8374 71.1689 20.7408C71.3259 20.6442 71.4044 20.4872 71.4044 20.2699V20.2276C71.4044 19.7004 71.2555 19.2919 70.9576 19.0021C70.6638 18.7124 70.2252 18.5675 69.6416 18.5675C69.0339 18.5675 68.5549 18.7023 68.2048 18.9719C67.8587 19.2376 67.6192 19.5334 67.4864 19.8594L65.79 19.473C65.9913 18.9096 66.2851 18.4548 66.6714 18.1087C67.0618 17.7585 67.5105 17.505 68.0177 17.348C68.5248 17.187 69.058 17.1065 69.6174 17.1065C69.9877 17.1065 70.3801 17.1508 70.7946 17.2393C71.2132 17.3239 71.6036 17.4808 71.9658 17.7102C72.332 17.9396 72.6319 18.2676 72.8653 18.6942C73.0987 19.1168 73.2154 19.6662 73.2154 20.3423V26.5H71.4527V25.2322H71.3802C71.2635 25.4657 71.0884 25.6951 70.855 25.9204C70.6216 26.1458 70.3217 26.333 69.9555 26.4819C69.5893 26.6308 69.1506 26.7053 68.6395 26.7053ZM69.0319 25.2564C69.5309 25.2564 69.9575 25.1578 70.3117 24.9606C70.6699 24.7634 70.9415 24.5058 71.1267 24.1879C71.3158 23.8659 71.4104 23.5218 71.4104 23.1555V21.9602C71.346 22.0246 71.2212 22.085 71.0361 22.1413C70.855 22.1937 70.6477 22.2399 70.4143 22.2802C70.1809 22.3164 69.9535 22.3506 69.7321 22.3828C69.5108 22.411 69.3257 22.4351 69.1767 22.4553C68.8266 22.4995 68.5066 22.574 68.2169 22.6786C67.9311 22.7833 67.7017 22.9342 67.5287 23.1314C67.3596 23.3246 67.2751 23.5821 67.2751 23.9041C67.2751 24.3508 67.4401 24.6889 67.7701 24.9183C68.1002 25.1437 68.5207 25.2564 69.0319 25.2564ZM79.9481 17.2273V18.6761H74.8832V17.2273H79.9481ZM76.2415 15.0057H78.0465V23.7773C78.0465 24.1275 78.0988 24.3911 78.2035 24.5682C78.3081 24.7412 78.4429 24.86 78.6079 24.9244C78.777 24.9847 78.9601 25.0149 79.1573 25.0149C79.3022 25.0149 79.429 25.0048 79.5376 24.9847C79.6463 24.9646 79.7308 24.9485 79.7912 24.9364L80.1172 26.4276C80.0125 26.4678 79.8636 26.508 79.6704 26.5483C79.4773 26.5926 79.2358 26.6167 78.946 26.6207C78.4711 26.6288 78.0284 26.5443 77.6179 26.3672C77.2074 26.1901 76.8753 25.9164 76.6218 25.5462C76.3682 25.1759 76.2415 24.7111 76.2415 24.1516V15.0057ZM88.4542 26.5L85.7255 17.2273H87.5909L89.408 24.0369H89.4986L91.3217 17.2273H93.1871L94.9982 24.0067H95.0888L96.8938 17.2273H98.7592L96.0366 26.5H94.1953L92.3118 19.805H92.1729L90.2894 26.5H88.4542ZM100.472 26.5V17.2273H102.277V26.5H100.472ZM101.384 15.7965C101.07 15.7965 100.8 15.6919 100.575 15.4826C100.353 15.2693 100.243 15.0157 100.243 14.7219C100.243 14.4241 100.353 14.1706 100.575 13.9613C100.8 13.748 101.07 13.6413 101.384 13.6413C101.698 13.6413 101.965 13.748 102.187 13.9613C102.412 14.1706 102.525 14.4241 102.525 14.7219C102.525 15.0157 102.412 15.2693 102.187 15.4826C101.965 15.6919 101.698 15.7965 101.384 15.7965ZM109.034 17.2273V18.6761H103.969V17.2273H109.034ZM105.327 15.0057H107.132V23.7773C107.132 24.1275 107.185 24.3911 107.289 24.5682C107.394 24.7412 107.529 24.86 107.694 24.9244C107.863 24.9847 108.046 25.0149 108.243 25.0149C108.388 25.0149 108.515 25.0048 108.624 24.9847C108.732 24.9646 108.817 24.9485 108.877 24.9364L109.203 26.4276C109.098 26.4678 108.95 26.508 108.756 26.5483C108.563 26.5926 108.322 26.6167 108.032 26.6207C107.557 26.6288 107.114 26.5443 106.704 26.3672C106.293 26.1901 105.961 25.9164 105.708 25.5462C105.454 25.1759 105.327 24.7111 105.327 24.1516V15.0057ZM113.035 20.9943V26.5H111.23V14.1364H113.011V18.7365H113.126C113.343 18.2374 113.675 17.841 114.122 17.5472C114.568 17.2534 115.152 17.1065 115.872 17.1065C116.508 17.1065 117.064 17.2373 117.539 17.4989C118.018 17.7605 118.388 18.1509 118.649 18.6701C118.915 19.1852 119.048 19.8292 119.048 20.6019V26.5H117.243V20.8192C117.243 20.1391 117.068 19.6119 116.718 19.2376C116.367 18.8593 115.88 18.6701 115.257 18.6701C114.83 18.6701 114.448 18.7607 114.11 18.9418C113.776 19.1229 113.512 19.3885 113.319 19.7386C113.13 20.0848 113.035 20.5033 113.035 20.9943ZM131.83 22.6545V17.2273H133.641V26.5H131.866V24.8942H131.769C131.556 25.3892 131.214 25.8017 130.743 26.1317C130.276 26.4577 129.694 26.6207 128.998 26.6207C128.403 26.6207 127.875 26.4899 127.417 26.2283C126.962 25.9627 126.604 25.5703 126.342 25.0511C126.084 24.532 125.956 23.89 125.956 23.1254V17.2273H127.761V22.908C127.761 23.5399 127.936 24.043 128.286 24.4173C128.636 24.7915 129.091 24.9787 129.65 24.9787C129.988 24.9787 130.324 24.8942 130.658 24.7251C130.996 24.5561 131.276 24.3005 131.497 23.9584C131.723 23.6164 131.834 23.1817 131.83 22.6545ZM143.014 19.4911L141.378 19.7809C141.31 19.5716 141.201 19.3724 141.052 19.1832C140.908 18.9941 140.71 18.8391 140.461 18.7184C140.211 18.5977 139.899 18.5373 139.525 18.5373C139.014 18.5373 138.587 18.652 138.245 18.8814C137.903 19.1068 137.732 19.3986 137.732 19.7567C137.732 20.0666 137.847 20.3162 138.076 20.5053C138.306 20.6945 138.676 20.8494 139.187 20.9702L140.66 21.3082C141.513 21.5054 142.149 21.8093 142.568 22.2198C142.986 22.6303 143.196 23.1636 143.196 23.8196C143.196 24.375 143.035 24.87 142.713 25.3047C142.395 25.7353 141.95 26.0734 141.378 26.3189C140.811 26.5644 140.153 26.6871 139.404 26.6871C138.366 26.6871 137.519 26.4658 136.863 26.0231C136.207 25.5763 135.804 24.9425 135.655 24.1214L137.4 23.8558C137.509 24.3106 137.732 24.6547 138.07 24.8881C138.408 25.1175 138.849 25.2322 139.392 25.2322C139.984 25.2322 140.457 25.1095 140.811 24.864C141.165 24.6145 141.342 24.3106 141.342 23.9524C141.342 23.6626 141.234 23.4191 141.016 23.2219C140.803 23.0247 140.475 22.8758 140.032 22.7752L138.463 22.4311C137.597 22.2339 136.957 21.92 136.543 21.4893C136.132 21.0587 135.927 20.5134 135.927 19.8533C135.927 19.306 136.08 18.8271 136.386 18.4165C136.692 18.006 137.114 17.6861 137.654 17.4567C138.193 17.2232 138.811 17.1065 139.507 17.1065C140.509 17.1065 141.298 17.3239 141.873 17.7585C142.449 18.1892 142.829 18.7667 143.014 19.4911ZM153.585 26.6871C152.716 26.6871 151.957 26.4879 151.309 26.0895C150.661 25.691 150.158 25.1336 149.8 24.4173C149.442 23.7009 149.263 22.8638 149.263 21.9059C149.263 20.944 149.442 20.1029 149.8 19.3825C150.158 18.662 150.661 18.1026 151.309 17.7042C151.957 17.3058 152.716 17.1065 153.585 17.1065C154.454 17.1065 155.213 17.3058 155.861 17.7042C156.509 18.1026 157.012 18.662 157.37 19.3825C157.728 20.1029 157.908 20.944 157.908 21.9059C157.908 22.8638 157.728 23.7009 157.37 24.4173C157.012 25.1336 156.509 25.691 155.861 26.0895C155.213 26.4879 154.454 26.6871 153.585 26.6871ZM153.591 25.1719C154.155 25.1719 154.621 25.023 154.992 24.7251C155.362 24.4273 155.636 24.0309 155.813 23.5359C155.994 23.0408 156.084 22.4955 156.084 21.8999C156.084 21.3082 155.994 20.7649 155.813 20.2699C155.636 19.7708 155.362 19.3704 154.992 19.0685C154.621 18.7667 154.155 18.6158 153.591 18.6158C153.024 18.6158 152.553 18.7667 152.178 19.0685C151.808 19.3704 151.533 19.7708 151.351 20.2699C151.174 20.7649 151.086 21.3082 151.086 21.8999C151.086 22.4955 151.174 23.0408 151.351 23.5359C151.533 24.0309 151.808 24.4273 152.178 24.7251C152.553 25.023 153.024 25.1719 153.591 25.1719ZM161.727 20.9943V26.5H159.922V17.2273H161.655V18.7365H161.77C161.983 18.2455 162.317 17.8511 162.772 17.5533C163.231 17.2554 163.808 17.1065 164.504 17.1065C165.136 17.1065 165.69 17.2393 166.165 17.505C166.639 17.7666 167.008 18.157 167.269 18.6761C167.531 19.1953 167.662 19.8372 167.662 20.6019V26.5H165.857V20.8192C165.857 20.1471 165.682 19.6219 165.331 19.2436C164.981 18.8613 164.5 18.6701 163.889 18.6701C163.47 18.6701 163.098 18.7607 162.772 18.9418C162.45 19.1229 162.194 19.3885 162.005 19.7386C161.82 20.0848 161.727 20.5033 161.727 20.9943Z" fill="#E8E8E8"/>
<path d="M173.936 14.1364H177.636L180.776 21.7912H180.92L184.06 14.1364H187.76V26.5H184.85V18.9055H184.748L181.778 26.4215H179.918L176.948 18.8633H176.845V26.5H173.936V14.1364ZM192.238 26.657C191.647 26.657 191.121 26.5584 190.663 26.3611C190.208 26.1599 189.848 25.8581 189.582 25.4556C189.32 25.0491 189.189 24.54 189.189 23.9283C189.189 23.4131 189.28 22.9785 189.461 22.6243C189.642 22.2701 189.892 21.9824 190.21 21.761C190.528 21.5397 190.894 21.3726 191.308 21.2599C191.723 21.1432 192.166 21.0647 192.637 21.0245C193.164 20.9762 193.588 20.9259 193.91 20.8736C194.232 20.8172 194.466 20.7388 194.611 20.6381C194.76 20.5335 194.834 20.3866 194.834 20.1974V20.1673C194.834 19.8574 194.727 19.6179 194.514 19.4489C194.301 19.2798 194.013 19.1953 193.651 19.1953C193.26 19.1953 192.946 19.2798 192.709 19.4489C192.472 19.6179 192.321 19.8513 192.256 20.1491L189.534 20.0526C189.614 19.4891 189.821 18.986 190.155 18.5433C190.493 18.0966 190.956 17.7464 191.544 17.4929C192.136 17.2353 192.846 17.1065 193.675 17.1065C194.267 17.1065 194.812 17.177 195.311 17.3178C195.81 17.4547 196.245 17.6559 196.615 17.9215C196.985 18.1831 197.271 18.5051 197.472 18.8874C197.677 19.2698 197.78 19.7064 197.78 20.1974V26.5H195.003V25.2081H194.931C194.766 25.522 194.554 25.7876 194.297 26.005C194.043 26.2223 193.743 26.3853 193.397 26.494C193.055 26.6026 192.669 26.657 192.238 26.657ZM193.15 24.7251C193.468 24.7251 193.753 24.6607 194.007 24.532C194.265 24.4032 194.47 24.2261 194.623 24.0007C194.776 23.7713 194.852 23.5057 194.852 23.2038V22.3224C194.768 22.3667 194.665 22.407 194.544 22.4432C194.428 22.4794 194.299 22.5136 194.158 22.5458C194.017 22.578 193.872 22.6062 193.723 22.6303C193.574 22.6545 193.431 22.6766 193.295 22.6967C193.017 22.741 192.779 22.8094 192.582 22.902C192.389 22.9946 192.24 23.1153 192.136 23.2642C192.035 23.4091 191.985 23.5821 191.985 23.7834C191.985 24.0892 192.093 24.3227 192.311 24.4837C192.532 24.6446 192.812 24.7251 193.15 24.7251ZM204.819 17.2273V19.4006H198.969V17.2273H204.819ZM200.195 15.0057H203.147V23.5842C203.147 23.7653 203.175 23.9122 203.231 24.0249C203.292 24.1335 203.378 24.212 203.491 24.2603C203.604 24.3046 203.738 24.3267 203.895 24.3267C204.008 24.3267 204.127 24.3166 204.252 24.2965C204.38 24.2724 204.477 24.2522 204.541 24.2361L204.988 26.3672C204.847 26.4074 204.648 26.4577 204.39 26.5181C204.137 26.5785 203.833 26.6167 203.479 26.6328C202.787 26.665 202.193 26.5845 201.698 26.3913C201.207 26.1941 200.831 25.8883 200.569 25.4737C200.312 25.0592 200.187 24.538 200.195 23.9102V15.0057ZM206.325 26.5V17.2273H209.193V18.9176H209.289C209.458 18.3059 209.734 17.8511 210.117 17.5533C210.499 17.2514 210.944 17.1005 211.451 17.1005C211.588 17.1005 211.728 17.1106 211.873 17.1307C212.018 17.1468 212.153 17.1729 212.278 17.2092V19.7749C212.137 19.7266 211.952 19.6883 211.722 19.6602C211.497 19.632 211.296 19.6179 211.119 19.6179C210.768 19.6179 210.453 19.6964 210.171 19.8533C209.893 20.0063 209.674 20.2216 209.513 20.4993C209.356 20.773 209.277 21.0949 209.277 21.4652V26.5H206.325ZM213.481 26.5V17.2273H216.433V26.5H213.481ZM214.96 16.1467C214.545 16.1467 214.189 16.0098 213.891 15.7361C213.593 15.4584 213.444 15.1244 213.444 14.734C213.444 14.3477 213.593 14.0176 213.891 13.744C214.189 13.4663 214.545 13.3274 214.96 13.3274C215.378 13.3274 215.734 13.4663 216.028 13.744C216.326 14.0176 216.475 14.3477 216.475 14.734C216.475 15.1244 216.326 15.4584 216.028 15.7361C215.734 16.0098 215.378 16.1467 214.96 16.1467ZM220.823 17.2273L222.35 20.282L223.932 17.2273H226.908L224.318 21.8636L227.005 26.5H224.053L222.35 23.4212L220.69 26.5H217.696L220.388 21.8636L217.829 17.2273H220.823Z" fill="white"/>
</g>
<defs>
<filter id="filter0_d_1_56" x="36.2857" y="3.78571" width="197.429" height="32.4286" filterUnits="userSpaceOnUse" color-interpolation-filters="sRGB">
<feFlood flood-opacity="0" result="BackgroundImageFix"/>
<feColorMatrix in="SourceAlpha" type="matrix" values="0 0 0 0 0 0 0 0 0 0 0 0 0 0 0 0 0 0 127 0" result="hardAlpha"/>
<feOffset/>
<feGaussianBlur stdDeviation="2.85714"/>
<feComposite in2="hardAlpha" operator="out"/>
<feColorMatrix type="matrix" values="0 0 0 0 0 0 0 0 0 0 0 0 0 0 0 0 0 0 0.25 0"/>
<feBlend mode="normal" in2="BackgroundImageFix" result="effect1_dropShadow_1_56"/>
<feBlend mode="normal" in="SourceGraphic" in2="effect1_dropShadow_1_56" result="shape"/>
</filter>
<linearGradient id="paint0_linear_1_56" x1="118" y1="0" x2="118" y2="40" gradientUnits="userSpaceOnUse">
<stop stop-color="#111111"/>
<stop offset="1"/>
</linearGradient>
<clipPath id="clip0_1_56">
<rect width="28" height="28" fill="white" transform="translate(7.99999 6)"/>
</clipPath>
</defs>
</svg>
