<svg width="242" height="40" viewBox="0 0 242 40" fill="none" xmlns="http://www.w3.org/2000/svg">
<rect width="242" height="40" rx="8" fill="url(#paint0_linear_1_56)"/>
<rect x="1.07143" y="1.07143" width="239.857" height="37.8571" rx="6.92857" stroke="white" stroke-opacity="0.15" stroke-width="2.14286"/>
<g clip-path="url(#clip0_1_56)">
<path d="M8.73767 6.6408V33.3592H10.66V33.9999H7.99999V6H10.66V6.6408H8.73767ZM16.9546 15.1108V16.4623H16.9923C17.353 15.9454 17.7892 15.5469 18.2954 15.2669C18.8015 14.9815 19.3884 14.8415 20.0454 14.8415C20.6754 14.8415 21.2515 14.9654 21.7738 15.2077C22.2961 15.45 22.6892 15.8862 22.9638 16.5C23.26 16.0638 23.6638 15.6761 24.17 15.3423C24.6761 15.0085 25.2792 14.8415 25.9738 14.8415C26.5015 14.8415 26.9915 14.9061 27.4438 15.0354C27.8961 15.1646 28.2784 15.3692 28.6015 15.6546C28.9246 15.94 29.1723 16.3061 29.3553 16.7638C29.533 17.2215 29.6246 17.7707 29.6246 18.4169V25.0992H26.8838V19.44C26.8838 19.1061 26.873 18.7885 26.8461 18.4923C26.8192 18.1961 26.7492 17.9377 26.6361 17.7223C26.5176 17.5015 26.3507 17.3292 26.1246 17.2C25.8984 17.0708 25.5915 17.0061 25.2092 17.0061C24.8215 17.0061 24.5092 17.0815 24.2723 17.2269C24.0354 17.3777 23.8469 17.5661 23.7123 17.8085C23.5776 18.0454 23.4861 18.3146 23.443 18.6215C23.4 18.923 23.373 19.23 23.373 19.5369V25.0992H20.6323V19.4992C20.6323 19.2031 20.6269 18.9123 20.6107 18.6215C20.6 18.3308 20.5407 18.0669 20.4438 17.8192C20.3469 17.5769 20.1854 17.3777 19.9592 17.2323C19.733 17.0869 19.4046 17.0115 18.963 17.0115C18.8338 17.0115 18.6615 17.0385 18.4515 17.0977C18.2415 17.1569 18.0315 17.2646 17.8323 17.4262C17.633 17.5877 17.4607 17.8192 17.3207 18.1207C17.1807 18.4223 17.1107 18.8207 17.1107 19.3107V25.1046H14.37V15.1108H16.9546ZM35.2623 33.3592V6.6408H33.3399V6H35.9999V33.9999H33.3399V33.3592H35.2623Z" fill="#CDD6F4"/>
</g>
<g filter="url(#filter0_d_1_56)">
<path d="M53.6271 18.157H51.7436C51.6712 17.7545 51.5363 17.4003 51.3391 17.0945C51.1419 16.7886 50.9004 16.529 50.6147 16.3157C50.3289 16.1024 50.009 15.9414 49.6548 15.8327C49.3047 15.7241 48.9324 15.6697 48.538 15.6697C47.8256 15.6697 47.1877 15.8488 46.6243 16.207C46.0649 16.5652 45.6222 17.0904 45.2962 17.7827C44.9742 18.4749 44.8132 19.3201 44.8132 20.3182C44.8132 21.3243 44.9742 22.1735 45.2962 22.8658C45.6222 23.558 46.0669 24.0812 46.6303 24.4354C47.1938 24.7895 47.8276 24.9666 48.532 24.9666C48.9223 24.9666 49.2926 24.9143 49.6427 24.8097C49.9969 24.701 50.3169 24.542 50.6026 24.3327C50.8884 24.1235 51.1298 23.8679 51.327 23.566C51.5283 23.2602 51.6671 22.91 51.7436 22.5156L53.6271 22.5217C53.5265 23.1294 53.3313 23.6888 53.0415 24.1999C52.7558 24.707 52.3875 25.1457 51.9368 25.516C51.49 25.8822 50.9789 26.166 50.4034 26.3672C49.8279 26.5684 49.2 26.669 48.5199 26.669C47.4493 26.669 46.4955 26.4155 45.6584 25.9084C44.8213 25.3972 44.1612 24.6668 43.6783 23.717C43.1993 22.7672 42.9599 21.6342 42.9599 20.3182C42.9599 18.9981 43.2013 17.8652 43.6843 16.9194C44.1673 15.9696 44.8273 15.2411 45.6644 14.734C46.5015 14.2229 47.4534 13.9673 48.5199 13.9673C49.1759 13.9673 49.7876 14.0619 50.3551 14.2511C50.9266 14.4362 51.4397 14.7099 51.8945 15.0721C52.3493 15.4303 52.7256 15.869 53.0234 16.3881C53.3212 16.9033 53.5225 17.4929 53.6271 18.157ZM57.5194 20.9943V26.5H55.7144V14.1364H57.4953V18.7365H57.61C57.8273 18.2374 58.1593 17.841 58.6061 17.5472C59.0528 17.2534 59.6364 17.1065 60.3568 17.1065C60.9927 17.1065 61.5481 17.2373 62.023 17.4989C62.5019 17.7605 62.8722 18.1509 63.1338 18.6701C63.3994 19.1852 63.5322 19.8292 63.5322 20.6019V26.5H61.7272V20.8192C61.7272 20.1391 61.5521 19.6119 61.202 19.2376C60.8518 18.8593 60.3648 18.6701 59.741 18.6701C59.3144 18.6701 58.9321 18.7607 58.594 18.9418C58.26 19.1229 57.9963 19.3885 57.8032 19.7386C57.614 20.0848 57.5194 20.5033 57.5194 20.9943ZM68.6395 26.7053C68.0519 26.7053 67.5206 26.5966 67.0457 26.3793C66.5708 26.1579 66.1945 25.8379 65.9168 25.4194C65.6431 25.0008 65.5063 24.4877 65.5063 23.88C65.5063 23.3568 65.6069 22.9261 65.8081 22.5881C66.0094 22.25 66.281 21.9824 66.6231 21.7852C66.9652 21.5879 67.3476 21.439 67.7701 21.3384C68.1927 21.2378 68.6234 21.1613 69.062 21.109C69.6174 21.0446 70.0682 20.9923 70.4143 20.9521C70.7604 20.9078 71.012 20.8374 71.1689 20.7408C71.3259 20.6442 71.4044 20.4872 71.4044 20.2699V20.2276C71.4044 19.7004 71.2555 19.2919 70.9576 19.0021C70.6638 18.7124 70.2252 18.5675 69.6416 18.5675C69.0339 18.5675 68.5549 18.7023 68.2048 18.9719C67.8587 19.2376 67.6192 19.5334 67.4864 19.8594L65.79 19.473C65.9913 18.9096 66.2851 18.4548 66.6714 18.1087C67.0618 17.7585 67.5105 17.505 68.0177 17.348C68.5248 17.187 69.058 17.1065 69.6174 17.1065C69.9877 17.1065 70.3801 17.1508 70.7946 17.2393C71.2132 17.3239 71.6036 17.4808 71.9658 17.7102C72.332 17.9396 72.6319 18.2676 72.8653 18.6942C73.0987 19.1168 73.2154 19.6662 73.2154 20.3423V26.5H71.4527V25.2322H71.3802C71.2635 25.4657 71.0884 25.6951 70.855 25.9204C70.6216 26.1458 70.3217 26.333 69.9555 26.4819C69.5893 26.6308 69.1506 26.7053 68.6395 26.7053ZM69.0319 25.2564C69.5309 25.2564 69.9575 25.1578 70.3117 24.9606C70.6699 24.7634 70.9415 24.5058 71.1267 24.1879C71.3158 23.8659 71.4104 23.5218 71.4104 23.1555V21.9602C71.346 22.0246 71.2212 22.085 71.0361 22.1413C70.855 22.1937 70.6477 22.2399 70.4143 22.2802C70.1809 22.3164 69.9535 22.3506 69.7321 22.3828C69.5108 22.411 69.3257 22.4351 69.1767 22.4553C68.8266 22.4995 68.5066 22.574 68.2169 22.6786C67.9311 22.7833 67.7017 22.9342 67.5287 23.1314C67.3596 23.3246 67.2751 23.5821 67.2751 23.9041C67.2751 24.3508 67.4401 24.6889 67.7701 24.9183C68.1002 25.1437 68.5207 25.2564 69.0319 25.2564ZM79.9481 17.2273V18.6761H74.8832V17.2273H79.9481ZM76.2415 15.0057H78.0465V23.7773C78.0465 24.1275 78.0988 24.3911 78.2035 24.5682C78.3081 24.7412 78.4429 24.86 78.6079 24.9244C78.777 24.9847 78.9601 25.0149 79.1573 25.0149C79.3022 25.0149 79.429 25.0048 79.5376 24.9847C79.6463 24.9646 79.7308 24.9485 79.7912 24.9364L80.1172 26.4276C80.0125 26.4678 79.8636 26.508 79.6704 26.5483C79.4773 26.5926 79.2358 26.6167 78.946 26.6207C78.4711 26.6288 78.0284 26.5443 77.6179 26.3672C77.2074 26.1901 76.8753 25.9164 76.6218 25.5462C76.3682 25.1759 76.2415 24.7111 76.2415 24.1516V15.0057ZM88.4542 26.5L85.7255 17.2273H87.5909L89.408 24.0369H89.4986L91.3217 17.2273H93.1871L94.9982 24.0067H95.0888L96.8938 17.2273H98.7592L96.0366 26.5H94.1953L92.3118 19.805H92.1729L90.2894 26.5H88.4542ZM100.472 26.5V17.2273H102.277V26.5H100.472ZM101.384 15.7965C101.07 15.7965 100.8 15.6919 100.575 15.4826C100.353 15.2693 100.243 15.0157 100.243 14.7219C100.243 14.4241 100.353 14.1706 100.575 13.9613C100.8 13.748 101.07 13.6413 101.384 13.6413C101.698 13.6413 101.965 13.748 102.187 13.9613C102.412 14.1706 102.525 14.4241 102.525 14.7219C102.525 15.0157 102.412 15.2693 102.187 15.4826C101.965 15.6919 101.698 15.7965 101.384 15.7965ZM109.034 17.2273V18.6761H103.969V17.2273H109.034ZM105.327 15.0057H107.132V23.7773C107.132 24.1275 107.185 24.3911 107.289 24.5682C107.394 24.7412 107.529 24.86 107.694 24.9244C107.863 24.9847 108.046 25.0149 108.243 25.0149C108.388 25.0149 108.515 25.0048 108.624 24.9847C108.732 24.9646 108.817 24.9485 108.877 24.9364L109.203 26.4276C109.098 26.4678 108.95 26.508 108.756 26.5483C108.563 26.5926 108.322 26.6167 108.032 26.6207C107.557 26.6288 107.114 26.5443 106.704 26.3672C106.293 26.1901 105.961 25.9164 105.708 25.5462C105.454 25.1759 105.327 24.7111 105.327 24.1516V15.0057ZM113.035 20.9943V26.5H111.23V14.1364H113.011V18.7365H113.126C113.343 18.2374 113.675 17.841 114.122 17.5472C114.568 17.2534 115.152 17.1065 115.872 17.1065C116.508 17.1065 117.064 17.2373 117.539 17.4989C118.018 17.7605 118.388 18.1509 118.649 18.6701C118.915 19.1852 119.048 19.8292 119.048 20.6019V26.5H117.243V20.8192C117.243 20.1391 117.068 19.6119 116.718 19.2376C116.367 18.8593 115.88 18.6701 115.257 18.6701C114.83 18.6701 114.448 18.7607 114.11 18.9418C113.776 19.1229 113.512 19.3885 113.319 19.7386C113.13 20.0848 113.035 20.5033 113.035 20.9943ZM125.956 26.5V17.2273H127.688V18.7365H127.803C127.996 18.2254 128.312 17.8269 128.751 17.5412C129.189 17.2514 129.715 17.1065 130.326 17.1065C130.946 17.1065 131.465 17.2514 131.884 17.5412C132.306 17.831 132.618 18.2294 132.82 18.7365H132.916C133.138 18.2415 133.49 17.8471 133.973 17.5533C134.456 17.2554 135.031 17.1065 135.699 17.1065C136.54 17.1065 137.227 17.3701 137.758 17.8974C138.293 18.4246 138.561 19.2195 138.561 20.282V26.5H136.756V20.451C136.756 19.8232 136.585 19.3684 136.243 19.0866C135.9 18.8049 135.492 18.6641 135.017 18.6641C134.429 18.6641 133.973 18.8452 133.647 19.2074C133.321 19.5656 133.158 20.0264 133.158 20.5898V26.5H131.359V20.3363C131.359 19.8332 131.202 19.4287 130.888 19.1229C130.574 18.817 130.165 18.6641 129.662 18.6641C129.32 18.6641 129.004 18.7546 128.714 18.9357C128.429 19.1128 128.197 19.3603 128.02 19.6783C127.847 19.9962 127.761 20.3645 127.761 20.783V26.5H125.956ZM144.976 26.6871C144.063 26.6871 143.276 26.4919 142.616 26.1016C141.96 25.7071 141.453 25.1538 141.095 24.4414C140.741 23.725 140.563 22.8859 140.563 21.924C140.563 20.9742 140.741 20.1371 141.095 19.4126C141.453 18.6882 141.952 18.1227 142.592 17.7163C143.236 17.3098 143.988 17.1065 144.85 17.1065C145.373 17.1065 145.88 17.1931 146.371 17.3661C146.862 17.5392 147.303 17.8108 147.693 18.1811C148.083 18.5514 148.391 19.0323 148.617 19.6239C148.842 20.2115 148.955 20.9259 148.955 21.767V22.407H141.584V21.0547H147.186C147.186 20.5798 147.089 20.1592 146.896 19.793C146.703 19.4227 146.431 19.1309 146.081 18.9176C145.735 18.7043 145.329 18.5977 144.862 18.5977C144.355 18.5977 143.912 18.7224 143.534 18.9719C143.159 19.2174 142.87 19.5394 142.664 19.9379C142.463 20.3323 142.362 20.7609 142.362 21.2237V22.2802C142.362 22.9 142.471 23.4272 142.688 23.8619C142.91 24.2965 143.218 24.6285 143.612 24.8579C144.007 25.0833 144.467 25.196 144.995 25.196C145.337 25.196 145.649 25.1477 145.93 25.0511C146.212 24.9505 146.455 24.8016 146.661 24.6044C146.866 24.4072 147.023 24.1637 147.132 23.8739L148.84 24.1818C148.703 24.6849 148.458 25.1256 148.104 25.5039C147.753 25.8782 147.313 26.17 146.781 26.3793C146.254 26.5845 145.653 26.6871 144.976 26.6871ZM159.362 26.6871C158.493 26.6871 157.734 26.4879 157.087 26.0895C156.439 25.691 155.935 25.1336 155.577 24.4173C155.219 23.7009 155.04 22.8638 155.04 21.9059C155.04 20.944 155.219 20.1029 155.577 19.3825C155.935 18.662 156.439 18.1026 157.087 17.7042C157.734 17.3058 158.493 17.1065 159.362 17.1065C160.232 17.1065 160.99 17.3058 161.638 17.7042C162.286 18.1026 162.789 18.662 163.148 19.3825C163.506 20.1029 163.685 20.944 163.685 21.9059C163.685 22.8638 163.506 23.7009 163.148 24.4173C162.789 25.1336 162.286 25.691 161.638 26.0895C160.99 26.4879 160.232 26.6871 159.362 26.6871ZM159.368 25.1719C159.932 25.1719 160.399 25.023 160.769 24.7251C161.139 24.4273 161.413 24.0309 161.59 23.5359C161.771 23.0408 161.862 22.4955 161.862 21.8999C161.862 21.3082 161.771 20.7649 161.59 20.2699C161.413 19.7708 161.139 19.3704 160.769 19.0685C160.399 18.7667 159.932 18.6158 159.368 18.6158C158.801 18.6158 158.33 18.7667 157.956 19.0685C157.586 19.3704 157.31 19.7708 157.129 20.2699C156.952 20.7649 156.863 21.3082 156.863 21.8999C156.863 22.4955 156.952 23.0408 157.129 23.5359C157.31 24.0309 157.586 24.4273 157.956 24.7251C158.33 25.023 158.801 25.1719 159.368 25.1719ZM167.505 20.9943V26.5H165.7V17.2273H167.432V18.7365H167.547C167.76 18.2455 168.094 17.8511 168.549 17.5533C169.008 17.2554 169.585 17.1065 170.282 17.1065C170.914 17.1065 171.467 17.2393 171.942 17.505C172.417 17.7666 172.785 18.157 173.047 18.6761C173.308 19.1953 173.439 19.8372 173.439 20.6019V26.5H171.634V20.8192C171.634 20.1471 171.459 19.6219 171.109 19.2436C170.759 18.8613 170.278 18.6701 169.666 18.6701C169.247 18.6701 168.875 18.7607 168.549 18.9418C168.227 19.1229 167.972 19.3885 167.782 19.7386C167.597 20.0848 167.505 20.5033 167.505 20.9943Z" fill="#E8E8E8"/>
<path d="M179.936 14.1364H183.636L186.776 21.7912H186.92L190.06 14.1364H193.76V26.5H190.85V18.9055H190.748L187.778 26.4215H185.918L182.948 18.8633H182.845V26.5H179.936V14.1364ZM198.238 26.657C197.647 26.657 197.121 26.5584 196.663 26.3611C196.208 26.1599 195.848 25.8581 195.582 25.4556C195.32 25.0491 195.189 24.54 195.189 23.9283C195.189 23.4131 195.28 22.9785 195.461 22.6243C195.642 22.2701 195.892 21.9824 196.21 21.761C196.528 21.5397 196.894 21.3726 197.308 21.2599C197.723 21.1432 198.166 21.0647 198.637 21.0245C199.164 20.9762 199.588 20.9259 199.91 20.8736C200.232 20.8172 200.466 20.7388 200.611 20.6381C200.76 20.5335 200.834 20.3866 200.834 20.1974V20.1673C200.834 19.8574 200.727 19.6179 200.514 19.4489C200.301 19.2798 200.013 19.1953 199.651 19.1953C199.26 19.1953 198.946 19.2798 198.709 19.4489C198.472 19.6179 198.321 19.8513 198.256 20.1491L195.534 20.0526C195.614 19.4891 195.821 18.986 196.155 18.5433C196.493 18.0966 196.956 17.7464 197.544 17.4929C198.136 17.2353 198.846 17.1065 199.675 17.1065C200.267 17.1065 200.812 17.177 201.311 17.3178C201.81 17.4547 202.245 17.6559 202.615 17.9215C202.985 18.1831 203.271 18.5051 203.472 18.8874C203.677 19.2698 203.78 19.7064 203.78 20.1974V26.5H201.003V25.2081H200.931C200.766 25.522 200.554 25.7876 200.297 26.005C200.043 26.2223 199.743 26.3853 199.397 26.494C199.055 26.6026 198.669 26.657 198.238 26.657ZM199.15 24.7251C199.468 24.7251 199.753 24.6607 200.007 24.532C200.265 24.4032 200.47 24.2261 200.623 24.0007C200.776 23.7713 200.852 23.5057 200.852 23.2038V22.3224C200.768 22.3667 200.665 22.407 200.544 22.4432C200.428 22.4794 200.299 22.5136 200.158 22.5458C200.017 22.578 199.872 22.6062 199.723 22.6303C199.574 22.6545 199.431 22.6766 199.295 22.6967C199.017 22.741 198.779 22.8094 198.582 22.902C198.389 22.9946 198.24 23.1153 198.136 23.2642C198.035 23.4091 197.985 23.5821 197.985 23.7834C197.985 24.0892 198.093 24.3227 198.311 24.4837C198.532 24.6446 198.812 24.7251 199.15 24.7251ZM210.819 17.2273V19.4006H204.969V17.2273H210.819ZM206.195 15.0057H209.147V23.5842C209.147 23.7653 209.175 23.9122 209.231 24.0249C209.292 24.1335 209.378 24.212 209.491 24.2603C209.604 24.3046 209.738 24.3267 209.895 24.3267C210.008 24.3267 210.127 24.3166 210.252 24.2965C210.38 24.2724 210.477 24.2522 210.541 24.2361L210.988 26.3672C210.847 26.4074 210.648 26.4577 210.39 26.5181C210.137 26.5785 209.833 26.6167 209.479 26.6328C208.787 26.665 208.193 26.5845 207.698 26.3913C207.207 26.1941 206.831 25.8883 206.569 25.4737C206.312 25.0592 206.187 24.538 206.195 23.9102V15.0057ZM212.325 26.5V17.2273H215.193V18.9176H215.289C215.458 18.3059 215.734 17.8511 216.117 17.5533C216.499 17.2514 216.944 17.1005 217.451 17.1005C217.588 17.1005 217.728 17.1106 217.873 17.1307C218.018 17.1468 218.153 17.1729 218.278 17.2092V19.7749C218.137 19.7266 217.952 19.6883 217.722 19.6602C217.497 19.632 217.296 19.6179 217.119 19.6179C216.768 19.6179 216.453 19.6964 216.171 19.8533C215.893 20.0063 215.674 20.2216 215.513 20.4993C215.356 20.773 215.277 21.0949 215.277 21.4652V26.5H212.325ZM219.481 26.5V17.2273H222.433V26.5H219.481ZM220.96 16.1467C220.545 16.1467 220.189 16.0098 219.891 15.7361C219.593 15.4584 219.444 15.1244 219.444 14.734C219.444 14.3477 219.593 14.0176 219.891 13.744C220.189 13.4663 220.545 13.3274 220.96 13.3274C221.378 13.3274 221.734 13.4663 222.028 13.744C222.326 14.0176 222.475 14.3477 222.475 14.734C222.475 15.1244 222.326 15.4584 222.028 15.7361C221.734 16.0098 221.378 16.1467 220.96 16.1467ZM226.823 17.2273L228.35 20.282L229.932 17.2273H232.908L230.318 21.8636L233.005 26.5H230.053L228.35 23.4212L226.69 26.5H223.696L226.388 21.8636L223.829 17.2273H226.823Z" fill="white"/>
</g>
<defs>
<filter id="filter0_d_1_56" x="36.2857" y="3.78571" width="203.429" height="32.4286" filterUnits="userSpaceOnUse" color-interpolation-filters="sRGB">
<feFlood flood-opacity="0" result="BackgroundImageFix"/>
<feColorMatrix in="SourceAlpha" type="matrix" values="0 0 0 0 0 0 0 0 0 0 0 0 0 0 0 0 0 0 127 0" result="hardAlpha"/>
<feOffset/>
<feGaussianBlur stdDeviation="2.85714"/>
<feComposite in2="hardAlpha" operator="out"/>
<feColorMatrix type="matrix" values="0 0 0 0 0 0 0 0 0 0 0 0 0 0 0 0 0 0 0.25 0"/>
<feBlend mode="normal" in2="BackgroundImageFix" result="effect1_dropShadow_1_56"/>
<feBlend mode="normal" in="SourceGraphic" in2="effect1_dropShadow_1_56" result="shape"/>
</filter>
<linearGradient id="paint0_linear_1_56" x1="121" y1="0" x2="121" y2="40" gradientUnits="userSpaceOnUse">
<stop stop-color="#111111"/>
<stop offset="1"/>
</linearGradient>
<clipPath id="clip0_1_56">
<rect width="28" height="28" fill="white" transform="translate(7.99999 6)"/>
</clipPath>
</defs>
</svg>
