<svg width="40" height="40" viewBox="0 0 40 40" fill="none" xmlns="http://www.w3.org/2000/svg">
<rect width="40" height="40" rx="8" fill="url(#paint0_linear_1_68)"/>
<rect x="1.05" y="1.05" width="37.9" height="37.9" rx="6.95" stroke="white" stroke-opacity="0.15" stroke-width="2.1"/>
<path d="M6.73768 6.6408V33.3592H8.65999V33.9999H6V6H8.65999V6.6408H6.73768ZM14.9546 15.1108V16.4623H14.9923C15.3531 15.9454 15.7892 15.5469 16.2954 15.2669C16.8015 14.9815 17.3884 14.8415 18.0454 14.8415C18.6754 14.8415 19.2515 14.9654 19.7738 15.2077C20.2961 15.45 20.6892 15.8862 20.9638 16.5C21.26 16.0638 21.6638 15.6761 22.17 15.3423C22.6761 15.0085 23.2792 14.8415 23.9738 14.8415C24.5015 14.8415 24.9915 14.9061 25.4438 15.0354C25.8961 15.1646 26.2784 15.3692 26.6015 15.6546C26.9246 15.94 27.1723 16.3061 27.3554 16.7638C27.533 17.2215 27.6246 17.7707 27.6246 18.4169V25.0992H24.8838V19.44C24.8838 19.1061 24.873 18.7885 24.8461 18.4923C24.8192 18.1961 24.7492 17.9377 24.6361 17.7223C24.5176 17.5015 24.3507 17.3292 24.1246 17.2C23.8984 17.0708 23.5915 17.0061 23.2092 17.0061C22.8215 17.0061 22.5092 17.0815 22.2723 17.2269C22.0354 17.3777 21.8469 17.5661 21.7123 17.8085C21.5776 18.0454 21.4861 18.3146 21.443 18.6215C21.4 18.923 21.373 19.23 21.373 19.5369V25.0992H18.6323V19.4992C18.6323 19.2031 18.6269 18.9123 18.6107 18.6215C18.6 18.3308 18.5407 18.0669 18.4438 17.8192C18.3469 17.5769 18.1854 17.3777 17.9592 17.2323C17.7331 17.0869 17.4046 17.0115 16.9631 17.0115C16.8338 17.0115 16.6615 17.0385 16.4515 17.0977C16.2415 17.1569 16.0315 17.2646 15.8323 17.4262C15.6331 17.5877 15.4607 17.8192 15.3207 18.1207C15.1807 18.4223 15.1107 18.8207 15.1107 19.3107V25.1046H12.37V15.1108H14.9546ZM33.2623 33.3592V6.6408H31.34V6H33.9999V33.9999H31.34V33.3592H33.2623Z" fill="#CDD6F4"/>
<defs>
<linearGradient id="paint0_linear_1_68" x1="20" y1="0" x2="20" y2="40" gradientUnits="userSpaceOnUse">
<stop stop-color="#111111"/>
<stop offset="1"/>
</linearGradient>
</defs>
</svg>
