<svg width="56" height="56" viewBox="0 0 56 56" fill="none" xmlns="http://www.w3.org/2000/svg">
<rect width="56" height="56" rx="8.4" fill="url(#paint0_linear_1_62)"/>
<rect x="1.05" y="1.05" width="53.9" height="53.9" rx="7.35" stroke="white" stroke-opacity="0.15" stroke-width="2.1"/>
<g filter="url(#filter0_d_1_62)">
<g clip-path="url(#clip0_1_62)">
<path d="M17.208 27.2831C22.2935 27.2831 26.4161 23.1908 26.4161 18.1427C26.4161 13.0946 22.2935 9.00233 17.208 9.00233C12.1226 9.00233 7.99999 13.0946 7.99999 18.1427C7.99999 23.1908 12.1226 27.2831 17.208 27.2831Z" fill="white"/>
<path d="M21.0301 30.4201H13.2354C10.7755 30.4201 8.78141 32.3995 8.78141 34.8413V42.5787C8.78141 45.0205 10.7755 47 13.2354 47H21.0301C23.4899 47 25.4841 45.0205 25.4841 42.5787V34.8413C25.4841 32.3995 23.4899 30.4201 21.0301 30.4201Z" fill="white"/>
<path d="M46.6702 15.8491L44.9923 14.8875L35.3366 9.35371C34.9323 9.122 34.4737 9.00001 34.0069 9C33.54 8.99999 33.0814 9.12196 32.6771 9.35366C32.2729 9.58536 31.9371 9.91862 31.7037 10.3199C31.4703 10.7212 31.3474 11.1765 31.3474 11.6399L31.3476 24.6305C31.3476 25.0939 31.4705 25.5491 31.7039 25.9504C31.9373 26.3517 32.273 26.6849 32.6773 26.9166C33.0816 27.1483 33.5402 27.2703 34.007 27.2703C34.4738 27.2703 34.9324 27.1483 35.3367 26.9166L46.6703 20.4215C47.0746 20.1898 47.4103 19.8566 47.6437 19.4553C47.8771 19.054 48 18.5987 48 18.1353C48 17.6719 47.8771 17.2167 47.6437 16.8154C47.4103 16.4141 47.0745 16.0808 46.6702 15.8491Z" fill="white"/>
<path d="M46.0093 38.8151C46.0093 39.7036 45.2887 40.4188 44.3937 40.4188H31.4687C30.5737 40.4188 29.8531 39.7036 29.8531 38.8151C29.8531 37.9266 30.5737 37.2113 31.4687 37.2113H44.3937C45.2887 37.2113 46.0093 37.9266 46.0093 38.8151ZM37.9312 30.7964C38.8262 30.7964 39.5468 31.5116 39.5468 32.4001V45.2301C39.5468 46.1185 38.8263 46.8338 37.9312 46.8338C37.0362 46.8338 36.3156 46.1185 36.3156 45.2301V32.4001C36.3156 31.5116 37.0362 30.7964 37.9312 30.7964Z" fill="white"/>
</g>
</g>
<defs>
<filter id="filter0_d_1_62" x="2.28571" y="2.28571" width="51.4286" height="51.4286" filterUnits="userSpaceOnUse" color-interpolation-filters="sRGB">
<feFlood flood-opacity="0" result="BackgroundImageFix"/>
<feColorMatrix in="SourceAlpha" type="matrix" values="0 0 0 0 0 0 0 0 0 0 0 0 0 0 0 0 0 0 127 0" result="hardAlpha"/>
<feOffset/>
<feGaussianBlur stdDeviation="2.85714"/>
<feComposite in2="hardAlpha" operator="out"/>
<feColorMatrix type="matrix" values="0 0 0 0 0 0 0 0 0 0 0 0 0 0 0 0 0 0 0.25 0"/>
<feBlend mode="normal" in2="BackgroundImageFix" result="effect1_dropShadow_1_62"/>
<feBlend mode="normal" in="SourceGraphic" in2="effect1_dropShadow_1_62" result="shape"/>
</filter>
<linearGradient id="paint0_linear_1_62" x1="28" y1="0" x2="28" y2="56" gradientUnits="userSpaceOnUse">
<stop stop-color="#4A90D9"/>
<stop offset="1" stop-color="#24486D"/>
</linearGradient>
<clipPath id="clip0_1_62">
<rect width="40" height="38" fill="white" transform="translate(8 9)"/>
</clipPath>
</defs>
</svg>
