<svg width="56" height="56" viewBox="0 0 56 56" fill="none" xmlns="http://www.w3.org/2000/svg">
<rect width="56" height="56" rx="8.4" fill="url(#paint0_linear_1_62)"/>
<rect x="1.05" y="1.05" width="53.9" height="53.9" rx="7.35" stroke="black" stroke-opacity="0.15" stroke-width="2.1"/>
<g filter="url(#filter0_d_1_62)">
<g clip-path="url(#clip0_1_62)">
<g filter="url(#filter1_d_1_62)">
<mask id="mask0_1_62" style="mask-type:luminance" maskUnits="userSpaceOnUse" x="7" y="8" width="41" height="39">
<path d="M47.7143 8.71429H7.71429V46.7143H47.7143V8.71429Z" fill="white"/>
</mask>
<g mask="url(#mask0_1_62)">
<path d="M16.9223 26.9974C22.0078 26.9974 26.1304 22.9051 26.1304 17.857C26.1304 12.8089 22.0078 8.71662 16.9223 8.71662C11.8369 8.71662 7.71429 12.8089 7.71429 17.857C7.71429 22.9051 11.8369 26.9974 16.9223 26.9974Z" fill="white"/>
<path d="M20.7444 30.1344H12.9497C10.4898 30.1344 8.49569 32.1138 8.49569 34.5556V42.293C8.49569 44.7348 10.4898 46.7143 12.9497 46.7143H20.7444C23.2043 46.7143 25.1984 44.7348 25.1984 42.293V34.5556C25.1984 32.1138 23.2043 30.1344 20.7444 30.1344Z" fill="white"/>
<path d="M46.3845 15.5634L44.7066 14.6018L35.0509 9.068C34.6466 8.83629 34.188 8.7143 33.7212 8.71429C33.2543 8.71428 32.7957 8.83625 32.3914 9.06795C31.9872 9.29965 31.6514 9.63291 31.418 10.0342C31.1846 10.4355 31.0617 10.8908 31.0617 11.3542L31.0619 24.3448C31.0619 24.8082 31.1848 25.2634 31.4182 25.6647C31.6516 26.066 31.9873 26.3992 32.3916 26.6309C32.7959 26.8626 33.2545 26.9846 33.7213 26.9846C34.1881 26.9846 34.6467 26.8626 35.051 26.6309L46.3846 20.1358C46.7889 19.9041 47.1246 19.5709 47.358 19.1696C47.5914 18.7683 47.7143 18.313 47.7143 17.8496C47.7143 17.3862 47.5914 16.931 47.358 16.5297C47.1246 16.1284 46.7888 15.7951 46.3845 15.5634Z" fill="white"/>
<path d="M45.7236 38.5294C45.7236 39.4179 45.003 40.1331 44.108 40.1331H31.183C30.288 40.1331 29.5674 39.4179 29.5674 38.5294C29.5674 37.6409 30.288 36.9256 31.183 36.9256H44.108C45.003 36.9256 45.7236 37.6409 45.7236 38.5294ZM37.6455 30.5107C38.5405 30.5107 39.2611 31.2259 39.2611 32.1144V44.9444C39.2611 45.8328 38.5406 46.5481 37.6455 46.5481C36.7505 46.5481 36.0299 45.8328 36.0299 44.9444V32.1144C36.0299 31.2259 36.7505 30.5107 37.6455 30.5107Z" fill="white"/>
</g>
</g>
</g>
</g>
<defs>
<filter id="filter0_d_1_62" x="2.28571" y="2.28571" width="51.4286" height="51.4286" filterUnits="userSpaceOnUse" color-interpolation-filters="sRGB">
<feFlood flood-opacity="0" result="BackgroundImageFix"/>
<feColorMatrix in="SourceAlpha" type="matrix" values="0 0 0 0 0 0 0 0 0 0 0 0 0 0 0 0 0 0 127 0" result="hardAlpha"/>
<feOffset/>
<feGaussianBlur stdDeviation="2.85714"/>
<feComposite in2="hardAlpha" operator="out"/>
<feColorMatrix type="matrix" values="0 0 0 0 0 0 0 0 0 0 0 0 0 0 0 0 0 0 0.25 0"/>
<feBlend mode="normal" in2="BackgroundImageFix" result="effect1_dropShadow_1_62"/>
<feBlend mode="normal" in="SourceGraphic" in2="effect1_dropShadow_1_62" result="shape"/>
</filter>
<filter id="filter1_d_1_62" x="2.00001" y="3.00001" width="51.4286" height="49.4286" filterUnits="userSpaceOnUse" color-interpolation-filters="sRGB">
<feFlood flood-opacity="0" result="BackgroundImageFix"/>
<feColorMatrix in="SourceAlpha" type="matrix" values="0 0 0 0 0 0 0 0 0 0 0 0 0 0 0 0 0 0 127 0" result="hardAlpha"/>
<feOffset/>
<feGaussianBlur stdDeviation="2.85714"/>
<feComposite in2="hardAlpha" operator="out"/>
<feColorMatrix type="matrix" values="0 0 0 0 0 0 0 0 0 0 0 0 0 0 0 0 0 0 0.25 0"/>
<feBlend mode="normal" in2="BackgroundImageFix" result="effect1_dropShadow_1_62"/>
<feBlend mode="normal" in="SourceGraphic" in2="effect1_dropShadow_1_62" result="shape"/>
</filter>
<linearGradient id="paint0_linear_1_62" x1="28" y1="0" x2="28" y2="56" gradientUnits="userSpaceOnUse">
<stop stop-color="#4A90D9"/>
<stop offset="1" stop-color="#24486D"/>
</linearGradient>
<clipPath id="clip0_1_62">
<rect width="40" height="40" fill="white" transform="translate(8 8)"/>
</clipPath>
</defs>
</svg>
