<svg width="56" height="56" viewBox="0 0 56 56" fill="none" xmlns="http://www.w3.org/2000/svg">
<rect width="56" height="56" rx="8.4" fill="url(#paint0_linear_1_62)"/>
<rect x="1.05" y="1.05" width="53.9" height="53.9" rx="7.35" stroke="white" stroke-opacity="0.15" stroke-width="2.1"/>
<g filter="url(#filter0_d_1_62)">
<g clip-path="url(#clip0_1_62)">
<path d="M41 7H15V49H41V7Z" fill="#E95420"/>
<path d="M20.9448 36.6331C22.4313 36.6331 23.6363 35.3967 23.6363 33.8716C23.6363 32.3465 22.4313 31.1101 20.9448 31.1101C19.4583 31.1101 18.2533 32.3465 18.2533 33.8716C18.2533 35.3967 19.4583 36.6331 20.9448 36.6331Z" fill="white"/>
<path d="M32.1549 30.5777C33.6414 30.5777 34.8464 29.3414 34.8464 27.8162C34.8464 26.2911 33.6414 25.0547 32.1549 25.0547C30.6685 25.0547 29.4634 26.2911 29.4634 27.8162C29.4634 29.3414 30.6685 30.5777 32.1549 30.5777Z" fill="white"/>
<path d="M27.0155 40.9801C25.0762 40.5538 23.4562 39.2833 22.5454 37.4815C21.828 37.8164 21.0205 37.9183 20.2438 37.7713C21.346 40.5485 23.6834 42.5656 26.5529 43.1967C27.1823 43.3353 27.824 43.4024 28.4646 43.3982C27.9703 42.7315 27.695 41.9272 27.6766 41.0893C27.4545 41.0641 27.2335 41.0273 27.0165 40.979L27.0155 40.9801Z" fill="white"/>
<path d="M31.5491 43.7563C33.0356 43.7563 34.2406 42.5199 34.2406 40.9948C34.2406 39.4697 33.0356 38.2333 31.5491 38.2333C30.0626 38.2333 28.8576 39.4697 28.8576 40.9948C28.8576 42.5199 30.0626 43.7563 31.5491 43.7563Z" fill="white"/>
<path d="M35.2947 39.9805C36.1318 38.8979 36.7212 37.618 37.0047 36.2582C37.5 33.8863 37.0375 31.3978 35.7357 29.3797C35.4256 30.1294 34.8996 30.7625 34.2222 31.1983C34.9488 32.6032 35.1698 34.2244 34.8444 35.7836C34.6847 36.547 34.4033 37.2662 34.0072 37.9235C34.6407 38.4569 35.0879 39.1741 35.2957 39.9815L35.2947 39.9805Z" fill="white"/>
<path d="M20.7371 29.911C20.8056 29.9068 20.8742 29.9057 20.9417 29.9057C21.214 29.9057 21.4852 29.9351 21.7543 29.995C22.1933 30.0916 22.6058 30.2617 22.9834 30.5032C24.1951 28.715 26.1508 27.6419 28.2691 27.602C28.2804 27.3931 28.308 27.1852 28.35 26.9804C28.4738 26.3893 28.7256 25.8359 29.0858 25.3624C25.7005 25.0873 22.4113 26.8796 20.736 29.912L20.7371 29.911Z" fill="white"/>
</g>
</g>
<defs>
<filter id="filter0_d_1_62" x="2.28571" y="1.28571" width="51.4286" height="53.4286" filterUnits="userSpaceOnUse" color-interpolation-filters="sRGB">
<feFlood flood-opacity="0" result="BackgroundImageFix"/>
<feColorMatrix in="SourceAlpha" type="matrix" values="0 0 0 0 0 0 0 0 0 0 0 0 0 0 0 0 0 0 127 0" result="hardAlpha"/>
<feOffset/>
<feGaussianBlur stdDeviation="2.85714"/>
<feComposite in2="hardAlpha" operator="out"/>
<feColorMatrix type="matrix" values="0 0 0 0 0 0 0 0 0 0 0 0 0 0 0 0 0 0 0.25 0"/>
<feBlend mode="normal" in2="BackgroundImageFix" result="effect1_dropShadow_1_62"/>
<feBlend mode="normal" in="SourceGraphic" in2="effect1_dropShadow_1_62" result="shape"/>
</filter>
<linearGradient id="paint0_linear_1_62" x1="28" y1="0" x2="28" y2="56" gradientUnits="userSpaceOnUse">
<stop stop-color="#300E0C"/>
<stop offset="1" stop-color="#200908"/>
</linearGradient>
<clipPath id="clip0_1_62">
<rect width="26" height="42" fill="white" transform="translate(15 7)"/>
</clipPath>
</defs>
</svg>
