<svg width="56" height="56" viewBox="0 0 56 56" fill="none" xmlns="http://www.w3.org/2000/svg">
<rect width="56" height="56" rx="8.4" fill="url(#paint0_linear_1_62)"/>
<rect x="1.05" y="1.05" width="53.9" height="53.9" rx="7.35" stroke="white" stroke-opacity="0.15" stroke-width="2.1"/>
<g filter="url(#filter0_d_1_62)">
<g clip-path="url(#clip0_1_62)">
<path d="M9.05383 8.91542V47.0845H11.8V47.9999H8V8H11.8V8.91542H9.05383ZM20.7923 21.0154V22.9461H20.8461C21.3615 22.2077 21.9846 21.6384 22.7077 21.2384C23.4307 20.8307 24.2692 20.6307 25.2077 20.6307C26.1077 20.6307 26.9307 20.8077 27.6769 21.1538C28.423 21.5 28.9846 22.1231 29.3769 23C29.8 22.3769 30.3769 21.823 31.1 21.3461C31.823 20.8692 32.6845 20.6307 33.6769 20.6307C34.4307 20.6307 35.1307 20.7231 35.7769 20.9077C36.423 21.0923 36.9692 21.3846 37.4307 21.7923C37.8922 22.2 38.2461 22.7231 38.5077 23.3769C38.7615 24.0307 38.8922 24.8153 38.8922 25.7384V35.2846H34.9769V27.2C34.9769 26.723 34.9615 26.2692 34.923 25.8461C34.8846 25.423 34.7846 25.0538 34.623 24.7461C34.4538 24.4307 34.2153 24.1846 33.8922 24C33.5692 23.8154 33.1307 23.723 32.5846 23.723C32.0307 23.723 31.5846 23.8307 31.2461 24.0385C30.9077 24.2538 30.6384 24.523 30.4461 24.8692C30.2538 25.2077 30.123 25.5923 30.0615 26.0307C30 26.4615 29.9615 26.9 29.9615 27.3384V35.2846H26.0461V27.2846C26.0461 26.8615 26.0384 26.4461 26.0154 26.0307C26 25.6154 25.9154 25.2384 25.7769 24.8846C25.6384 24.5384 25.4077 24.2538 25.0846 24.0461C24.7615 23.8384 24.2923 23.7307 23.6615 23.7307C23.4769 23.7307 23.2307 23.7692 22.9307 23.8538C22.6307 23.9384 22.3307 24.0923 22.0461 24.3231C21.7615 24.5538 21.5153 24.8846 21.3153 25.3153C21.1153 25.7461 21.0153 26.3153 21.0153 27.0153V35.2922H17.1V21.0154H20.7923ZM46.9461 47.0845V8.91542H44.1999V8H47.9999V47.9999H44.1999V47.0845H46.9461Z" fill="#CDD6F4"/>
</g>
</g>
<defs>
<filter id="filter0_d_1_62" x="2.28571" y="2.28571" width="51.4286" height="51.4286" filterUnits="userSpaceOnUse" color-interpolation-filters="sRGB">
<feFlood flood-opacity="0" result="BackgroundImageFix"/>
<feColorMatrix in="SourceAlpha" type="matrix" values="0 0 0 0 0 0 0 0 0 0 0 0 0 0 0 0 0 0 127 0" result="hardAlpha"/>
<feOffset/>
<feGaussianBlur stdDeviation="2.85714"/>
<feComposite in2="hardAlpha" operator="out"/>
<feColorMatrix type="matrix" values="0 0 0 0 0 0 0 0 0 0 0 0 0 0 0 0 0 0 0.25 0"/>
<feBlend mode="normal" in2="BackgroundImageFix" result="effect1_dropShadow_1_62"/>
<feBlend mode="normal" in="SourceGraphic" in2="effect1_dropShadow_1_62" result="shape"/>
</filter>
<linearGradient id="paint0_linear_1_62" x1="28" y1="0" x2="28" y2="56" gradientUnits="userSpaceOnUse">
<stop stop-color="#111111"/>
<stop offset="1"/>
</linearGradient>
<clipPath id="clip0_1_62">
<rect width="40" height="40" fill="white" transform="translate(8 8)"/>
</clipPath>
</defs>
</svg>
